<?xml version="1.0" standalone="no"?>
<!DOCTYPE svg PUBLIC "-//W3C//DTD SVG 1.1//EN" "http://www.w3.org/Graphics/SVG/1.1/DTD/svg11.dtd" >
<svg xmlns="http://www.w3.org/2000/svg" xmlns:xlink="http://www.w3.org/1999/xlink" version="1.1">
<metadata>
Created by FontForge 20161003 at Sat Jan  4 13:15:38 2020
 By www-data
Made with yourfonts.com. Copyright (c) 2009 Jeff Stone. All rights reserved.
</metadata>
<defs>
<font id="JMS" horiz-adv-x="1169" >
  <font-face 
    font-family="JMS"
    font-weight="400"
    font-stretch="normal"
    units-per-em="2048"
    panose-1="3 0 0 0 0 0 0 0 0 0"
    ascent="1638"
    descent="-410"
    x-height="917"
    cap-height="1609"
    bbox="60 -655 6926 1852"
    underline-thickness="150"
    underline-position="-442"
    unicode-range="U+0020-2122"
  />
<missing-glyph horiz-adv-x="1339" 
d="M60 0v1665h1199v-1665h-1199zM140 80h1039v1505h-1039v-1505z" />
    <glyph glyph-name=".notdef" horiz-adv-x="1339" 
d="M60 0v1665h1199v-1665h-1199zM140 80h1039v1505h-1039v-1505z" />
    <glyph glyph-name=".null" horiz-adv-x="0" 
 />
    <glyph glyph-name="nonmarkingreturn" horiz-adv-x="550" 
 />
    <glyph glyph-name="space" unicode=" " horiz-adv-x="583" 
 />
    <glyph glyph-name="space" unicode="&#xa0;" horiz-adv-x="583" 
 />
    <glyph glyph-name="exclam" unicode="!" horiz-adv-x="477" 
d="M303 1553q56 -75 94 -75q-19 -101 -38 -767h-18l37 -169q-43 -243 -112 -243q-55 0 -131 281q0 16 56 149q0 19 -19 19l19 94v393q0 42 -19 74q19 37 19 56l-19 38q0 150 131 150zM97 75q186 -29 225 -75q0 -150 -168 -150q-72 56 -94 56v57q0 50 37 112z" />
    <glyph glyph-name="quotedbl" unicode="&#x22;" horiz-adv-x="570" 
d="M154 1777q25 -1 74 -94v-37q0 -149 19 -393q-19 -33 -19 -75h-18q-118 0 -150 580zM378 1758q50 -12 94 -93q18 -423 18 -524q-18 -36 -18 -56q-33 19 -75 19q0 18 18 18l-149 580q43 0 112 56z" />
    <glyph glyph-name="numbersign" unicode="#" horiz-adv-x="1375" 
d="M864 1365q86 -36 94 -74q-38 -182 -38 -206q116 -38 150 -38v-112h-187l-19 -93v-113h150q199 0 281 -93v-37q-43 0 -75 -19q-14 0 -112 19q-281 -14 -281 -38q0 -58 19 -355h-113q-47 0 -74 224h18q-18 28 -18 112q-187 -23 -187 -93q18 -164 18 -187q-56 -87 -56 -112
h-56q-11 0 -94 74q12 169 38 169l-19 37l19 38h-56l-75 -57h-75q-56 12 -56 150l75 112l75 -37q149 0 149 112l19 94q-74 -19 -131 -56h-75q0 38 -56 112q19 131 56 131q166 -19 206 -19v37h-37v262q5 38 37 38h19q149 0 149 -300h75l94 19q0 -19 18 -19l19 38v224
q19 56 112 56zM509 673q187 0 187 94l19 112h-19q-168 0 -168 -56q-19 -103 -19 -150z" />
    <glyph glyph-name="dollar" unicode="$" horiz-adv-x="1094" 
d="M528 1646q56 0 112 -112q-19 -128 -19 -206h75q150 -19 150 -131q-10 -89 -131 -150v-18h-38v37h-37v-19q5 -93 37 -93l131 19q206 -178 206 -225q-37 -224 -206 -374q-86 -56 -112 -56v-318l-56 -94q-131 0 -131 113q37 176 37 280h-18q-327 0 -356 131v94q75 87 75 112
h37q75 -124 75 -168h113l93 18q-19 19 -37 300q-468 32 -468 261l112 206q19 0 19 -18q116 93 150 93v-19q85 37 93 75q0 38 -37 38q0 -19 -19 -19v37l19 38q-19 32 -19 75q77 93 150 93zM284 1029q43 -43 225 -75v19q-37 115 -37 149q18 0 18 19l-37 19h-19
q-150 0 -150 -131zM677 748v-37l19 -187q62 25 112 149q0 56 -131 75z" />
    <glyph glyph-name="percent" unicode="%" 
d="M378 1590q63 0 94 -19l112 19h18q19 0 19 -19q19 0 19 19q224 0 224 -187q-69 -95 -205 -524q-146 -201 -225 -786l19 -112v-56q-42 0 -94 -150l-37 -18h-56q-37 0 -75 112q75 152 93 449q94 322 318 879q19 33 19 75v93q-37 0 -37 19q-43 0 -169 -224q-138 -94 -205 -94
q-85 0 -150 112q0 294 187 375zM808 430h38q200 0 243 -299v-19q0 -82 -131 -224q-51 0 -112 -38q-161 0 -225 262q95 267 187 318zM808 93q19 -56 38 -56q53 3 93 113q-19 36 -19 56q-56 0 -112 -113z" />
    <glyph glyph-name="ampersand" unicode="&#x26;" horiz-adv-x="1225" 
d="M434 1534q234 0 374 -206v-187q0 -196 -206 -468q206 -274 206 -318q131 65 131 169q19 0 19 37h150q0 -29 37 -75v-93q-177 -146 -187 -206l93 -131v-56q-87 -56 -131 -56q0 37 -130 75q-235 -206 -468 -206q0 37 -150 93q-101 128 -112 300q50 205 131 243
q0 11 168 243v19q-262 362 -262 580q57 205 206 205q131 0 131 38zM341 1141q88 -262 149 -262h19q112 269 112 318q0 26 -75 131q-205 0 -205 -187zM472 486q-153 -179 -206 -318q0 -108 112 -149h37q135 0 281 187v37q-49 0 -150 187q0 56 -74 56z" />
    <glyph glyph-name="quotesingle" unicode="'" horiz-adv-x="439" 
d="M172 1702q0 -37 131 -56l-19 -37l75 -412q0 -131 -37 -131h-56q0 -75 -38 -75h-74q-38 419 -94 618q30 93 112 93z" />
    <glyph glyph-name="parenleft" unicode="(" horiz-adv-x="889" 
d="M434 1852q32 -75 75 -75v-19q0 -88 -131 -187q-131 -193 -224 -785q0 -19 18 -19l-18 -131v-94q106 -481 374 -654q280 -107 280 -131l-18 -94h-94q-235 0 -542 412q-94 242 -94 467q0 825 299 1291q10 0 75 19z" />
    <glyph glyph-name="parenright" unicode=")" horiz-adv-x="738" 
d="M154 1758q505 -572 505 -916q0 -369 -375 -842h-56l-18 93v38q336 463 336 692q-18 36 -18 56h18q0 270 -411 692q-75 0 -75 75q26 77 94 112z" />
    <glyph glyph-name="asterisk" unicode="*" horiz-adv-x="1038" 
d="M434 1104q94 -35 94 -150v-131q5 -37 37 -37h19v168q75 0 75 75q131 0 131 -112q-19 -59 -19 -150q93 0 93 -38v-18q0 -38 -131 -56v-19q154 -139 225 -262v-75h-56q-178 122 -300 225l-37 -19q11 -150 75 -150v-93q-19 -56 -112 -56q-49 92 -75 93q0 -63 -131 -93
q-75 28 -75 56v19q168 131 168 280q-263 -56 -280 -56q-52 0 -75 150q56 0 56 74h75l-19 -37q28 19 112 19l-168 112q-19 33 -19 75v56l94 19h56q14 -113 150 -113v19q-38 122 -38 168v38q10 0 75 19z" />
    <glyph glyph-name="plus" unicode="+" horiz-adv-x="1075" 
d="M415 1066l38 -19q36 19 56 19l-19 -37h19l37 18v-18l-18 -75q37 -61 37 -112h75q42 0 75 18q280 -62 280 -93v-38q-134 -37 -393 -56v-112q57 -86 57 -150q-19 -93 -94 -93q-88 75 -112 75v56q0 42 19 75q-19 36 -19 56q19 0 19 19l-38 18q-224 -86 -224 -131
q-150 0 -150 169l112 74l38 -18q183 75 224 75l-37 224q18 36 18 56z" />
    <glyph glyph-name="comma" unicode="," horiz-adv-x="477" 
d="M172 206q143 0 225 -262q-127 -318 -262 -318q0 -38 -38 -38q-37 0 -37 38v19q63 0 168 243q-18 36 -18 56h-94q-27 0 -56 56q0 131 112 206z" />
    <glyph glyph-name="hyphen" unicode="-" horiz-adv-x="1094" 
d="M359 879q19 0 19 -19q36 19 56 19q468 -33 468 -56l37 19h75v-75q-119 -38 -804 -94q0 -18 -56 -18q-94 26 -94 131q0 43 299 93z" />
    <glyph glyph-name="period" unicode="." horiz-adv-x="402" 
d="M154 243q71 0 168 -56v-37q0 -113 -112 -169l-38 19l-37 -19q-75 28 -75 56v131q1 26 94 75z" />
    <glyph glyph-name="slash" unicode="/" horiz-adv-x="870" 
d="M621 1721h94q25 -1 75 -94q0 -69 -281 -710q0 -61 -243 -636l-56 -262v-94l-113 -19q-37 61 -37 94q0 150 206 561q318 803 318 935v38q0 42 -19 75q25 112 56 112z" />
    <glyph glyph-name="zero" unicode="0" horiz-adv-x="1206" 
d="M621 1702l112 -19l-18 -37h56l-19 -37h19q0 18 19 18v-37q0 -37 -38 -37h-37l-38 18q0 -18 -18 -18q0 18 -19 18q-150 -99 -150 -112h19q61 37 112 37h75q242 -124 355 -411q75 -262 75 -374v-131q0 -356 -580 -636h-187q-180 0 -243 280q-37 0 -37 19q0 31 -19 225
q0 18 19 18l-19 94v75q162 1047 561 1047zM453 1440q-243 -494 -243 -898q0 -430 299 -430q468 184 468 543q0 317 -187 598q-138 150 -318 150v37h-19z" />
    <glyph glyph-name="one" unicode="1" horiz-adv-x="982" 
d="M378 1646q112 0 112 -168v-19q0 -94 -37 -94l19 -37q56 -912 93 -1085q262 -14 262 -37l37 18h19l19 -112l-38 -19h-112q-179 0 -280 -130h-75v37q-52 0 -281 -75q-9 75 -56 75q0 19 19 19q-19 36 -19 56l75 112l93 -19h113q37 141 37 262v94l-19 112q0 19 19 19
q-24 377 -56 598q19 0 19 19h-19q-71 -206 -94 -206h-18q-97 0 -113 56v75q0 45 131 243q0 172 131 206h19z" />
    <glyph glyph-name="two" unicode="2" horiz-adv-x="1206" 
d="M528 1627v-18l37 18q174 0 281 -262v-74q-38 -34 -94 -374q-131 -465 -337 -618l-37 -131v-37l94 -19q469 56 542 56q71 0 112 -112q-4 -58 -131 -112l-131 19h-56q-242 0 -336 -38l-38 19l-37 -19l-131 19l-38 -19q-120 0 -149 168v38q46 83 149 150q0 16 169 280
q124 127 243 599q-19 36 -19 56h19l-19 37q0 19 19 19q-7 71 -112 131v19h-19q-168 0 -262 -150l-93 -56q-50 12 -94 93v75q71 105 412 243h56z" />
    <glyph glyph-name="three" unicode="3" horiz-adv-x="1150" 
d="M490 1683q318 0 318 -224q-126 -355 -206 -355v-19q468 -56 468 -468v-18l-75 -337l19 -38q-29 -105 -224 -168l-38 19l-374 -112l-131 149l-37 -19q-94 24 -94 57v18q66 113 168 113q45 0 169 -94q393 56 393 187q37 245 37 299q-121 244 -281 244q-201 -57 -280 -57
q-56 87 -56 113q0 78 243 224q93 87 93 262l-130 19q-43 0 -300 -150h-37q-75 37 -75 112t430 243z" />
    <glyph glyph-name="four" unicode="4" horiz-adv-x="1019" 
d="M490 1796l94 -19h75q56 -113 56 -131q-44 -299 -56 -299l18 -38v-112q5 -224 38 -224q18 0 18 18q206 -12 206 -168q-19 -36 -19 -56l-187 19v-19q0 -165 94 -430q-19 -37 -19 -56q0 -33 38 -113q-47 -187 -94 -187h-93q0 43 -57 112q19 206 38 206q-42 323 -94 487
l-37 18q-281 -44 -281 -93h-18q-113 0 -150 131q0 46 131 224q69 125 187 524l-19 112q56 64 131 94zM472 1440q0 -62 -169 -486h19l37 -19q164 19 206 56l-56 449h-37z" />
    <glyph glyph-name="five" unicode="5" horiz-adv-x="1038" 
d="M191 1665q131 -38 131 -75h93q133 37 150 37q75 0 112 -74v-57q0 -100 -75 -131h-74q-94 0 -94 38q-150 0 -150 -112v-169q0 -37 57 -37q199 37 261 37q43 0 75 -18l38 18q243 -83 243 -486q0 -264 -262 -561q-15 0 -168 -94v-18q-187 18 -187 37l-38 -19
q-243 81 -243 262q49 120 94 131h37q40 0 75 -168q109 -56 168 -56q189 0 318 318q19 98 19 187v37q0 143 -169 243h-37q-24 0 -318 -75h-75q0 33 -56 94v19q0 42 19 74l-19 38l19 37q-45 326 -75 374q0 114 131 169z" />
    <glyph glyph-name="six" unicode="6" horiz-adv-x="1038" 
d="M509 1814h37q113 -11 113 -56v-37q-24 -187 -75 -187h-94q-243 -477 -243 -636h19q174 224 318 224q374 -126 374 -336q0 -456 -543 -580q-355 0 -355 393h19q0 18 -19 18q27 337 75 412l-19 37v19q49 0 94 243q38 24 187 374q87 112 112 112zM228 580q0 -82 169 -187
q393 87 393 374q-168 168 -188 168q-18 0 -18 19q-142 0 -356 -374z" />
    <glyph glyph-name="seven" unicode="7" horiz-adv-x="1113" 
d="M846 1833h74q109 -71 113 -112q-243 -578 -374 -1440q37 -74 37 -206q-106 -75 -150 -75q-49 0 -74 131l37 93q-19 37 -19 57q46 0 112 505q84 368 131 430l-18 37q52 222 75 225q0 75 -94 112q-492 -56 -524 -94q-77 26 -112 94v56l56 75l225 -19q313 0 505 131z" />
    <glyph glyph-name="eight" unicode="8" horiz-adv-x="1188" 
d="M640 1646l168 -19l38 19q128 -56 168 -150v-112q-37 -228 -318 -411q0 -38 150 -56q262 -344 262 -487v-149q-127 -220 -262 -318h-75q-221 0 -505 187q-38 61 -38 112v149q35 251 187 431v18q-355 66 -355 337q104 356 318 356q0 24 262 93zM266 1216v-19
q0 -90 262 -187h18q102 107 262 337v18q-42 0 -131 75q-301 0 -411 -224zM546 786q-149 -269 -149 -375v-56q116 -224 374 -224q98 67 149 206l-18 37q0 19 18 19q-179 393 -355 393h-19z" />
    <glyph glyph-name="nine" unicode="9" horiz-adv-x="1075" 
d="M490 1740h94q278 0 411 -300h-18l18 -37q-112 -323 -112 -543l112 -561v-18q0 -103 -112 -150h-93l-19 93v57q0 62 19 93q-57 427 -57 599q-123 -56 -168 -56h-93q-368 0 -412 355q32 0 94 224q37 0 149 187q96 57 187 57zM228 1253q83 -187 281 -187q243 64 243 206
q0 227 -187 299l-37 -18h-19q-19 0 -19 18q-129 0 -262 -280v-38z" />
    <glyph glyph-name="colon" unicode=":" horiz-adv-x="458" 
d="M284 954q94 -56 94 -131q0 -107 -206 -131l-56 75q25 168 75 168q31 19 93 19zM247 486l56 -75v-74q0 -27 -112 -113q-101 0 -131 75v75q0 112 168 112h19z" />
    <glyph glyph-name="semicolon" unicode=";" horiz-adv-x="477" 
d="M172 1066h131q0 -37 38 -37v-94q-83 -131 -187 -131h-19q-38 0 -38 38v187q30 0 75 37zM228 505q0 -22 113 -112q56 -96 56 -187v-38q-71 -280 -281 -280l-19 37v19q150 147 150 187q0 105 -168 168l-19 38q0 168 168 168z" />
    <glyph glyph-name="less" unicode="&#x3c;" horiz-adv-x="757" 
d="M397 1309h56l93 -18v-75q0 -52 -224 -356l-38 -93q82 0 337 -299h56v-75l-93 -19h-75q-193 216 -430 281l-19 93v38q246 203 299 449q0 74 38 74z" />
    <glyph glyph-name="equal" unicode="=" horiz-adv-x="982" 
d="M621 1066h75q206 0 206 -149q0 -27 -56 -57h-56v57q-224 0 -655 -150q-56 0 -75 150q32 37 561 149zM509 692q33 -19 75 -19q20 0 56 19q45 0 262 -112v-94q-29 0 -75 -37l-168 56q-19 0 -19 -19l-94 19q-160 0 -411 -75q-75 31 -75 131v38q0 46 75 56q241 0 374 37z" />
    <glyph glyph-name="greater" unicode="&#x3e;" horiz-adv-x="739" 
d="M116 1235h38q59 -60 505 -356q0 -198 -412 -430q-12 -50 -93 -94h-57v94q116 186 225 224l112 131q-269 243 -374 243v131q0 27 56 57z" />
    <glyph glyph-name="question" unicode="?" horiz-adv-x="832" 
d="M303 1646h19q19 0 19 -19q18 0 18 19q313 0 393 -150v-93q-185 -358 -280 -430q0 -38 -75 -113q56 -11 56 -149v-19q0 -97 -56 -112h-56q-30 100 -113 149l-18 94q0 163 149 243q206 246 206 318q0 49 -150 75h-74q-193 -131 -244 -131q-37 0 -37 37q51 136 94 169z
M434 262h94q44 0 56 -150q-84 -112 -169 -112q-26 0 -56 56v94q51 112 75 112z" />
    <glyph glyph-name="at" unicode="@" horiz-adv-x="1337" 
d="M565 1627q501 0 599 -673v-19q0 -175 -131 -243h-169q-167 -131 -243 -131h-37q-187 0 -187 150v37q0 230 187 487v18h75q158 0 261 -243q57 0 57 -56h18v37l-18 94q18 0 18 19q-37 0 -75 168l-37 -19q-2 101 -224 206h-38q-207 0 -411 -561q-19 -136 -38 -169
q19 -36 19 -56h-19q112 -336 300 -336l93 -19q174 0 655 262q37 -6 37 -38q0 -168 -505 -336q-73 -38 -206 -38h-74q-312 0 -412 449v112q0 280 206 636q0 22 112 150q60 70 187 112zM640 1029q-94 -155 -94 -206v-94h19q206 30 206 113q-112 164 -112 187h-19z" />
    <glyph glyph-name="A" unicode="A" horiz-adv-x="1281" 
d="M565 1571q69 -101 112 -280l393 -1048q29 0 75 -168q27 0 56 -56q-55 -131 -168 -131q-55 0 -225 636q-49 93 -131 93h-37q-281 0 -281 -75q-93 -375 -112 -710l-56 -57h-75q-27 0 -56 57q28 341 112 467q0 38 75 300q-37 61 -37 112v18q112 0 205 562q19 0 19 74v57
l-37 56q0 93 168 93zM528 1253q-94 -397 -94 -486h262v19q-75 208 -94 336q-36 4 -56 131h-18z" />
    <glyph glyph-name="B" unicode="B" 
d="M565 1590h19q79 0 224 -94q68 0 112 -93q75 -7 75 -131v-75q0 -196 -205 -411q149 0 280 -356l19 -112q0 -363 -430 -505h-131q-19 0 -19 19q-19 0 -19 -19q-280 46 -280 262h-19v18q0 78 19 206l-19 38l19 37q-56 256 -94 711h19l-75 393q103 93 150 93l131 -18
q129 37 224 37zM266 1328l18 -93v-94q0 -242 38 -337l37 19h56q19 0 19 -19q318 130 318 225q32 13 75 168q-107 225 -262 225h-37q-182 0 -262 -94zM528 636v-37l-38 18q0 -44 -149 -56q37 -261 112 -486q-56 0 -56 -38q6 -37 37 -37h168q281 74 281 262v112
q-82 199 -224 262h-131z" />
    <glyph glyph-name="C" unicode="C" horiz-adv-x="1506" 
d="M584 1515h112q131 -6 131 -37l37 18q25 0 94 -93v-131q-22 0 -94 -56q-26 0 -168 131h-75q-174 0 -262 -243q-112 -126 -112 -375v-205q0 -479 561 -543l38 19q103 -19 149 -19q26 0 374 262h19q38 -6 38 -37q-106 -252 -337 -374h-112q-599 0 -749 243l-56 75
q-112 176 -112 486q48 523 131 542q140 337 393 337z" />
    <glyph glyph-name="D" unicode="D" horiz-adv-x="1393" 
d="M97 1571h57l56 -37l56 37h18q19 0 19 -18q19 0 19 18q683 0 898 -355q32 0 93 -187q-91 -1010 -318 -1010q-37 -56 -355 -206q0 -19 -150 -56q-83 27 -299 206l19 187v56q0 213 -94 860l19 38q-75 408 -75 449zM322 1365h-56q37 -501 131 -1159h-19q19 -19 37 -243h38
q636 179 636 636q37 0 37 392q0 179 -374 374q-211 38 -280 38q-69 -38 -150 -38z" />
    <glyph glyph-name="E" unicode="E" 
d="M154 1609h18q19 0 19 -19l37 19h38q72 -75 131 -75l37 19q74 -19 131 -19q19 0 19 19l93 -19h38l112 19q36 -19 56 -19q36 19 56 19q150 -34 150 -94q-19 -56 -38 -56q-77 0 -205 -19l-94 19q-163 -19 -280 -19h-75q0 -43 -75 -75h-19v-262h262q52 0 168 -74v-19
q-28 -75 -56 -75h-131q-18 0 -18 19l-206 -56v-75q0 -636 112 -636q0 -19 38 -19q374 -7 374 -37l37 18h168q38 0 38 -56q-38 -131 -187 -131q-206 33 -206 57q-19 0 -19 -19l-93 19h-19q-26 0 -299 -38h-19q0 32 -93 206q14 75 37 75l-19 37v281l-18 131h18q-37 98 -37 392
v169q0 52 -75 262v18q94 64 94 113z" />
    <glyph glyph-name="F" unicode="F" horiz-adv-x="1094" 
d="M827 1683q187 -33 187 -149q-153 -32 -673 -56q0 -75 -38 -131l19 -112h-19l19 -38v-187l187 -19q47 0 150 19q261 -37 261 -93q-18 -37 -18 -57h-112q-468 0 -468 -131q0 -256 37 -729l-93 -94h-38q-44 11 -93 131q19 134 19 150q0 84 -19 112q19 191 19 300v318
q0 130 -19 411h19q-94 155 -94 281h19q18 0 18 37h57q18 0 18 -19q95 38 131 38v-38q379 24 524 56z" />
    <glyph glyph-name="G" unicode="G" horiz-adv-x="1375" 
d="M715 1665q262 0 262 -169v-18q-88 -56 -131 -56q-56 18 -56 37l-38 -19h-37q-19 0 -19 19q-165 0 -337 -393q-56 -129 -112 -411q0 -283 262 -393q29 0 75 -38h75q243 50 243 169l37 37q-60 243 -224 243l-38 -18q-120 0 -149 168v75q30 0 149 37q113 -56 356 -56h37
q132 38 150 38h37q38 -6 38 -38l-57 -75q19 0 19 -18l-224 -57v-18q70 -150 112 -150q0 -382 -243 -468q-102 -56 -169 -56q-409 0 -636 356h-18l18 37l-37 56q0 19 19 19l-19 94l19 74l-19 38q181 667 299 711q0 154 356 243z" />
    <glyph glyph-name="H" unicode="H" horiz-adv-x="1262" 
d="M902 1665h18l38 -19q0 19 19 19q0 -31 74 -131l-18 -75q93 -700 93 -973v-187l19 -131h-19l19 -37q0 -19 -19 -19l56 -93v-56q-70 -113 -93 -113q-112 0 -112 169q0 84 -19 112q0 19 19 19l-19 93v505q0 131 -38 131q-399 -56 -636 -150l19 -37q0 -19 -19 -19l19 -37
v-168q0 -283 38 -449q-19 -37 -19 -56h-112q-70 59 -113 205q38 75 38 131q0 848 -75 1235q19 75 112 75h38q27 0 56 -56q0 -43 -19 -75l37 -113l-18 -37q0 -37 18 -37l-18 -131q4 -187 37 -187q467 0 617 112l-93 449h19l-19 37v56q29 0 75 38z" />
    <glyph glyph-name="I" unicode="I" horiz-adv-x="832" 
d="M172 1609q112 -38 112 -56l38 18h112q299 0 299 -56v-19q-11 -56 -149 -56h-56v-131q0 -18 -19 -18l19 -38v-56q0 -19 -19 -19q0 -18 19 -18l-38 -393q38 -231 56 -692q94 0 94 -19l37 19h19q27 0 56 -56q-19 -37 -19 -56q-243 0 -542 -131q-75 0 -112 93q0 131 131 150
q32 -19 74 -19h38l37 19q-18 260 -18 336q0 189 18 973l-37 19q-116 -38 -187 -38q-75 19 -75 113h19l-19 37q0 23 112 94z" />
    <glyph glyph-name="J" unicode="J" horiz-adv-x="1618" 
d="M1444 1646h75l19 -75q-85 -131 -393 -131q0 19 -19 19q-18 -103 -18 -150q0 -246 -19 -841q37 -176 37 -281v-187q0 -177 -318 -318q-375 56 -654 168q-15 0 -94 131v19l19 131h56l243 -168q222 -94 355 -94q225 76 225 187q-19 314 -19 486v19q0 149 19 393l-19 37
q19 33 19 75v38q0 42 -19 74l19 38q-75 140 -75 206h-19q-54 -43 -243 -94q-93 37 -93 131v19q67 93 112 93q20 0 56 -18q192 23 262 56q74 -19 131 -19l37 19q19 0 19 -19l93 19h206v37z" />
    <glyph glyph-name="K" unicode="K" horiz-adv-x="1281" 
d="M902 1627q131 -22 131 -93q0 -126 -169 -187q-313 -337 -336 -337l-19 -37v-19q260 -230 617 -767q75 0 75 -112q-48 -94 -150 -94h-18q-212 453 -524 748l-112 19q0 -19 -19 -19v38h-19l-93 -75q14 -49 37 -224h-19q52 -153 94 -431v-18q-37 -94 -131 -94q-93 14 -93 56
q0 19 18 19l-18 37q0 68 18 169q-18 458 -37 692h19q-38 363 -94 580q0 75 75 112h75q37 -6 37 -37v-356l19 -131h-19q19 -31 19 -93q436 330 561 561q0 93 75 93z" />
    <glyph glyph-name="L" unicode="L" horiz-adv-x="1131" 
d="M135 1534h75q74 -153 74 -337v-75q0 -132 -37 -205h19l-19 -38q19 -133 19 -150q-19 -98 -19 -112q0 -18 19 -18l-19 -94v-187q0 -168 94 -168q129 0 486 -19l93 19q113 -57 131 -57q0 -136 -168 -168v-19q-222 57 -505 57h-19q-37 0 -187 -38q-101 127 -112 299
q56 266 94 842q0 172 -75 412q0 27 56 56z" />
    <glyph glyph-name="M" unicode="M" horiz-adv-x="1525" 
d="M958 1609h131q93 -52 93 -150h-18q14 -39 37 -206h-19q38 -100 169 -748q93 -223 93 -318q0 -91 -75 -262h-18q-88 0 -131 543q-56 123 -169 729q-37 0 -37 56q-172 -204 -187 -430h-19l-37 19v-56h-112q-117 149 -169 149q0 31 -187 206q0 -156 -19 -168q0 -19 19 -19
q0 -20 -19 -56q19 -244 19 -393l-19 -37q19 -33 19 -75q0 -19 -19 -19l19 -37l-19 -94l19 -37q0 -19 -19 -19l19 -94v-18q-45 -112 -112 -112q-36 18 -56 18q0 -18 -19 -18q0 29 -37 74q37 393 56 393q0 19 -19 19q0 62 19 93q-19 759 -75 861q37 140 37 168h113
q0 -62 112 -75q136 -345 355 -467q125 162 225 542z" />
    <glyph glyph-name="N" unicode="N" horiz-adv-x="1187" 
d="M135 1571h19l37 -18q0 18 19 18q0 -48 74 -75q234 -352 599 -1141h19v56q0 416 -38 1029q66 75 131 75q93 -49 94 -75v-18q0 -26 -38 -300v-523q0 -496 57 -562q-55 -131 -169 -131h-19q-56 82 -112 281q-87 125 -243 505q-225 457 -299 505l18 -187v-131q0 -42 19 -75
l-19 -37q19 -33 19 -75l-19 -37q0 -19 19 -19l-19 -94v-187q38 -184 38 -205q-34 -150 -75 -150h-56q-25 0 -75 112q19 220 19 318v430q0 330 -75 618q36 85 75 93z" />
    <glyph glyph-name="O" unicode="O" horiz-adv-x="1394" 
d="M752 1534v-19l38 19l149 -75q0 -19 -19 -19q1 -25 206 -168q125 -238 187 -580q0 -265 -205 -617q-240 -187 -449 -187l-38 18q-74 -18 -131 -18q-318 64 -318 187q-56 25 -112 262v205q6 219 56 300l-19 37q239 561 318 561q120 94 337 94zM228 599q0 -431 113 -431
q0 -18 131 -75l37 19h37v-37q393 27 393 112q76 32 187 355l-18 75l18 38q-18 32 -18 74h18q-66 376 -187 468q-63 63 -224 131q-303 0 -449 -486q-38 -169 -38 -243z" />
    <glyph glyph-name="P" unicode="P" horiz-adv-x="1019" 
d="M191 1590q19 0 19 -19l37 19h299q180 -23 300 -131q93 -149 93 -355q-160 -356 -280 -356q-20 0 -57 -19q-157 19 -280 57v-75q0 -160 56 -468h-19l19 -37q-64 -113 -131 -113q-39 0 -75 94q0 14 19 112q-47 1085 -131 1085v19q0 134 131 187zM359 1422q-12 -42 -93 -150
v-19l18 -93h-18l18 -38v-168q192 -56 206 -56l38 19l37 -19q179 0 225 299q-96 225 -431 225z" />
    <glyph glyph-name="Q" unicode="Q" horiz-adv-x="1543" 
d="M621 1534h94q93 -38 131 -131q398 0 523 -674q0 -254 -187 -486q0 -34 281 -262v-56q-20 0 -56 -19q-76 0 -337 187q-170 -159 -318 -187q-267 0 -524 187q-112 140 -168 487q107 624 355 860q155 94 206 94zM509 1291q-70 -108 -187 -244q-75 -303 -75 -448
q0 -390 281 -449q68 -38 149 -38h75q56 0 187 75l-149 187v112q5 38 37 38h56q131 -107 131 -187h37q150 209 150 411q0 352 -393 543q0 -19 -187 -19v19h-112z" />
    <glyph glyph-name="R" unicode="R" horiz-adv-x="1412" 
d="M322 1515h56q19 0 19 -19l37 19h168q300 -70 300 -187q0 -124 -131 -299q19 0 19 -19q-52 0 -244 -206q121 -64 374 -262q45 0 412 -430v-19q0 -77 -56 -149q-12 0 -131 37l19 38q-404 512 -730 617q0 37 -131 37v-37q0 -186 19 -449l-19 -37l19 -113v-56
q-106 -75 -150 -75l-37 57v93q6 131 37 131q0 19 -18 19q0 62 18 93q-61 1085 -112 1085q0 63 262 131zM266 1029q0 -112 112 -112q274 190 299 261h19v94q-88 56 -131 56h-75q-224 0 -224 -299z" />
    <glyph glyph-name="S" unicode="S" horiz-adv-x="1319" 
d="M808 1646h38q74 -30 74 -131v-19q0 -93 -37 -93q-84 0 -243 19q-299 0 -430 -244q0 -155 430 -243q33 0 93 -37l38 19q467 -156 467 -487v-19h-18q18 -36 18 -56q-138 -392 -505 -392h-93q-524 67 -524 280l19 75l187 -112q186 -75 374 -75q374 32 374 299
q-56 154 -280 281q-206 28 -206 75l-38 -19q-486 119 -486 355v131q112 262 318 262q0 33 430 131z" />
    <glyph glyph-name="T" unicode="T" horiz-adv-x="1338" 
d="M1126 1665q102 0 131 -112q0 -67 -149 -94q-236 24 -281 37q-33 -18 -75 -18l38 -56q-38 -141 -38 -262v-169q0 -18 -19 -18l19 -38v-75q0 -240 38 -579q-94 -226 -94 -262h-75l-37 18l18 131v337q0 19 19 19l-19 37v262q0 218 -37 299q0 19 19 19q-56 295 -56 337
q-328 -19 -412 -19q-56 79 -56 150l37 18h636l187 19v-19q74 38 206 38z" />
    <glyph glyph-name="U" unicode="U" horiz-adv-x="1487" 
d="M210 1571h18q25 0 94 -93q-75 -228 -75 -487v-112l19 -187q-19 0 -19 -19q37 0 75 -299q58 -83 131 -112h56q354 0 468 598q0 107 18 131q-93 370 -93 412q28 168 112 168q138 0 168 -262l-37 -93l19 -112v-57q0 -18 -19 -18q0 -374 243 -805q19 0 19 -56
q-66 -112 -94 -112h-18q-88 0 -206 486l-38 19q-164 -486 -467 -486h-169q-261 34 -261 411q-19 0 -38 169q0 18 19 18q-31 169 -56 730q-19 0 -19 19q19 149 150 149z" />
    <glyph glyph-name="V" unicode="V" 
d="M920 1571q99 0 169 -112v-19q-318 -1194 -449 -1496l-94 -19q-60 0 -262 917q-116 400 -224 505v93q0 47 75 56q168 0 243 -542q75 -181 168 -617q38 -75 56 -75q244 740 244 879q18 262 37 262l-19 37v56q56 47 56 75z" />
    <glyph glyph-name="W" unicode="W" horiz-adv-x="1599" 
d="M1426 1646h18q46 -37 75 -37q0 -19 -19 -19q0 -19 19 -19q-99 -227 -224 -1103q-114 -431 -169 -431h-75q-66 68 -261 767q-31 0 -75 -131q18 -36 18 -56q-27 -23 -168 -430q-19 -6 -112 -224h-94q-88 0 -205 1141q-38 218 -94 280v75q49 92 75 94h19q127 0 168 -767
q-19 0 -19 -19h38v-19h-38v-19q75 0 75 -280q23 -168 56 -168q187 476 187 710l-19 38l19 37l-19 38q50 140 94 149q77 0 150 -93h18v-56q177 -680 244 -749l224 1123l-19 93q19 75 113 75z" />
    <glyph glyph-name="X" unicode="X" horiz-adv-x="1207" 
d="M827 1571q28 -75 56 -75q0 -92 -224 -467q0 -42 -19 -75q341 -692 468 -692l18 -94q0 -68 -93 -112h-38q-152 154 -393 692h-37q-187 -535 -187 -580q19 -36 19 -56q0 -61 -94 -187q-100 0 -131 75v150q89 66 187 449q43 46 113 299q0 117 -244 337q-32 18 -74 18
q0 -18 -19 -18l-56 74q-19 0 -19 56v38q49 92 75 93h19q106 0 392 -392h19q136 445 168 449z" />
    <glyph glyph-name="Y" unicode="Y" horiz-adv-x="1075" 
d="M920 1553q30 0 75 -75v-75q-125 -113 -336 -468q-57 0 -57 -93q38 -599 75 -599h19v-93q-1 -26 -94 -75h-56q-62 0 -74 280h18q-31 350 -131 580h19q-94 169 -318 487v74q6 38 37 38h19q124 0 281 -356q107 -131 149 -131q281 394 281 506h93z" />
    <glyph glyph-name="Z" unicode="Z" horiz-adv-x="1225" 
d="M883 1665h37l38 -19q0 19 19 19q0 -38 37 -38v-56q0 -83 -299 -449q-75 -205 -431 -860q86 -38 188 -38q474 38 579 38l94 -75l-19 -94h-112q-189 0 -692 -56q-262 0 -262 169v75q169 114 692 1159l-131 19q-36 -19 -56 -19v19q-75 -37 -131 -37v18q-84 -37 -243 -37
q-56 12 -56 150v37q6 37 37 37q25 0 206 -37q94 0 505 75z" />
    <glyph glyph-name="bracketleft" unicode="[" horiz-adv-x="795" 
d="M584 1721q0 -29 37 -75v-19h-149q-68 -47 -206 -93q18 -501 18 -617l19 -38q0 -19 -19 -19l19 -93v-449q0 -19 -19 -19q19 -13 38 -318h19l112 19h112q120 -94 150 -94v-56l-187 -18v18q-225 -42 -225 -93q-138 0 -149 75q18 191 18 299v37q0 19 19 19l-19 37v75
q0 19 19 19l-19 37v580l-18 94h18q-37 384 -112 542q26 131 75 131q42 0 75 -19z" />
    <glyph glyph-name="backslash" unicode="\" 
d="M154 1534q98 0 261 -412q40 0 169 -355q-19 0 -19 -19h37v-19l-18 -37h18q0 19 19 19q117 -319 356 -561q101 -53 112 -113q-56 -93 -56 -131h-94q0 42 -262 412q-252 538 -411 767q0 -19 -19 -19v19l19 37q-93 64 -131 169q-41 0 -75 149q32 94 94 94z" />
    <glyph glyph-name="bracketright" unicode="]" horiz-adv-x="720" 
d="M528 1758q112 -14 112 -149q-49 -80 -75 -374q-19 0 -19 -19l-18 -599q18 -398 18 -467q38 -6 38 -38v-19q0 -159 -318 -187h-38q-36 19 -56 19l-37 -19q-75 28 -75 57q7 65 299 130q19 142 38 188l-19 37q12 150 37 150l-18 37v243q0 19 18 19q0 19 -18 19
q37 294 37 729q-19 0 -19 19q-140 -38 -261 -38l-38 57v56q6 37 38 37h168q0 37 187 112h19z" />
    <glyph glyph-name="asciicircum" unicode="^" horiz-adv-x="7006" 
d="M1604 1852h18q104 0 127 -127q146 0 146 -255q109 -210 272 -1489q128 -400 200 -400l72 236q-163 522 -272 1217q0 19 18 19q-73 350 -73 563q6 36 37 36h36l91 -18v-55q127 -547 218 -1017h-18q42 -109 72 -109v18l-72 491q18 35 18 54q0 18 -18 18l18 91v509
q6 36 36 36h18q115 0 146 -218l181 -1090h19q251 509 544 509l73 -73q0 -188 -182 -654l91 19q18 0 18 -19q766 109 1708 273q174 0 236 18q754 0 1235 -418q268 -109 309 -109v-36h-18q-250 0 -927 363l-545 91q-515 -36 -1271 -163q0 18 -18 18v-37h-37l-36 19
q0 -40 -381 -73q0 18 -18 18v-36h-128l-36 -18v36h-18v-36q-18 0 -18 18q-218 0 -218 -164q0 -123 -254 -236h-91q-33 -327 -164 -327h-36q-125 75 -182 236h-18q0 -45 -127 -145q-80 0 -182 145l-36 19h-18q0 -124 -109 -182l-36 18q0 -18 -19 -18q0 28 -36 73q0 18 18 18
q-36 59 -36 109h-18q0 -174 -454 -273h-73l-36 18l-37 -18q-373 112 -672 273q-531 272 -563 308l-18 109v19h36q448 -73 709 -73q179 0 545 73v-19q345 0 345 618q0 400 -400 1017q-41 0 -54 91l72 54q270 -342 273 -435h18v18q-18 268 -55 363q24 91 55 91zM2603 1234
q0 -72 -55 -72v-19q91 0 91 -563q62 -308 127 -308h19q-55 249 -164 962h-18zM2948 199q77 -36 218 -55l36 19q36 -19 55 -19q145 417 145 564h-18q-239 0 -436 -509zM732 -110h-109q-18 0 -18 18q-5 -18 -182 -18q256 -200 727 -381q200 -32 200 -55q454 70 454 200
q28 0 54 182q-72 370 -72 417q-18 0 -146 -236q0 -76 -908 -127zM1931 253q40 0 73 -526q18 0 18 -55h18q0 37 18 37q0 18 -18 18l18 72q0 157 -91 454h-36zM2548 90v-91q0 -109 73 -327h18v91q-25 327 -91 327zM2912 90q0 -309 54 -309h37q129 54 217 273h-18v-19z
M2785 -237q0 -200 -91 -200h-18q0 -26 54 -54q47 0 73 163v91h-18z" />
    <glyph glyph-name="underscore" unicode="_" horiz-adv-x="1300" 
d="M1051 19q160 -45 169 -94v-93h-38q-81 0 -149 -38q-264 19 -449 19h-112q-43 0 -75 -19q-37 19 -56 19q-20 0 -57 -19q-101 19 -205 19l18 37h-37v56q0 62 243 75q36 -18 56 -18q33 18 75 18l38 -18q32 18 74 18h19q19 0 19 -18l37 18h225q18 0 18 -18z" />
    <glyph glyph-name="a" unicode="a" 
d="M490 917h187q75 0 113 -356q187 -390 224 -430l75 -19v-112q-14 0 -112 -19q0 29 -113 112q-37 98 -112 150q-199 -355 -411 -355q-190 0 -281 393v93q0 417 281 486q93 57 149 57zM191 374q35 -337 187 -337q138 47 262 281q0 19 -19 19q0 14 19 112q0 169 -94 318
q-245 0 -355 -337v-56z" />
    <glyph glyph-name="b" unicode="b" horiz-adv-x="1094" 
d="M154 1627q149 0 149 -318q0 -77 19 -205q-19 -31 -19 -94q19 -33 19 -75l318 38q243 0 299 -131q40 -46 75 -169q-46 -505 -150 -505q0 -57 -318 -168q-140 37 -149 37q-19 -36 -19 -56q-131 0 -150 131l38 112l-38 356h19q-15 39 -56 449l19 37l-94 337q-56 0 -56 37v38
q0 101 94 149zM341 711q0 -112 74 -300q0 -243 75 -243h56q300 84 300 281v56q0 281 -131 281l-113 18q-261 -30 -261 -93z" />
    <glyph glyph-name="c" unicode="c" horiz-adv-x="1001" 
d="M565 991l150 -131l18 -112v-37q-37 0 -37 -38q-84 0 -187 113q-262 -59 -262 -300q-19 0 -19 -56q0 -243 337 -243h56q38 37 243 56v38h56v-113q-217 -112 -448 -112q-412 0 -412 374q57 311 262 487q214 74 243 74z" />
    <glyph glyph-name="d" unicode="d" horiz-adv-x="1075" 
d="M677 1515h75q131 0 150 -131q0 -149 -75 -149l19 -38v-75q0 -75 37 -243q-19 -98 -19 -112l19 -38l-37 -130l18 -38q-18 -93 -37 -93q79 -237 168 -337v-94q-75 -67 -75 -93h-93q0 48 -56 131l19 37l-57 187h-37q-198 -318 -374 -318q-262 103 -262 318q133 655 374 655
l38 -19l37 19q96 -37 150 -37v205q0 103 -19 262q37 95 37 131zM210 337q0 -29 93 -169h112q0 33 131 150q113 138 113 206h18l-18 37q0 19 18 19q-49 187 -187 187q-196 0 -262 -430h-18z" />
    <glyph glyph-name="e" unicode="e" horiz-adv-x="1075" 
d="M546 1029q154 0 244 -225q-19 -36 -19 -56l19 -37q0 -195 -431 -225q-131 0 -131 -112q0 -206 244 -206q98 0 168 -18q96 37 150 37l93 -19q19 56 112 56v-93q-183 -131 -467 -131q-324 0 -449 168q0 38 -19 38l19 93v169q65 486 205 486q19 0 19 37q20 0 56 -18
q123 18 187 56zM284 636q337 41 337 112v56l-93 19q-37 -19 -56 -19v19q-188 -38 -188 -187z" />
    <glyph glyph-name="f" unicode="f" horiz-adv-x="1132" 
d="M621 1721h38q392 0 392 -262q-36 -85 -74 -94h-57q-74 169 -205 169h-38q-224 -92 -224 -430v-206q75 0 75 -19l37 19q103 -19 150 -19l37 19q36 -19 56 -19v-75l-336 -56q130 -562 130 -655l-74 -56h-56q-57 0 -94 337h-19v19q0 18 19 18q-19 45 -75 318h-75l-56 -37
h-75q0 37 -37 37v131q0 27 56 57l168 -19v19q0 570 225 748q50 0 112 56z" />
    <glyph glyph-name="g" unicode="g" horiz-adv-x="982" 
d="M546 1047q157 0 206 -224q59 -4 94 -168l-38 -131q19 -99 19 -113h-19q94 -332 94 -729q0 -235 -449 -281h-169q-224 43 -224 187v19q6 38 37 38q113 -75 281 -94q355 0 355 187v318q0 47 -37 168h19q-25 131 -56 131q-126 -168 -244 -168h-56q-88 0 -187 131
q-33 0 -37 187v19q0 240 337 505q42 0 74 18zM266 542q0 -192 149 -205h38q106 87 168 224q-19 36 -19 56h19l-19 38v74l19 38q-47 0 -56 75h-19q-154 0 -262 -300h-18z" />
    <glyph glyph-name="h" unicode="h" horiz-adv-x="1150" 
d="M79 1683h93q79 0 131 -954h19q107 281 299 281h112q278 -422 318 -692q19 0 19 -56v-75q-114 -56 -150 -56q0 75 -56 75l19 37q-115 599 -281 599q-126 -96 -168 -225q-37 -98 -56 -299l19 -112l-113 -113h-18q-131 0 -131 169q56 126 56 206q0 229 -56 692l19 37
q-57 344 -94 374v38l37 56q-18 0 -18 18z" />
    <glyph glyph-name="i" unicode="i" horiz-adv-x="384" 
d="M172 1309h19q112 0 112 -112v-19q-14 -55 -131 -93q-36 19 -56 19v93q12 112 56 112zM97 935h75q0 -37 38 -37v-374q0 -42 18 -75l-18 -38l56 -243q-47 -112 -169 -112q-37 61 -37 112v150q0 42 19 75q0 18 -19 18l19 131v94q0 42 -19 75q19 32 19 75v37l-19 94z" />
    <glyph glyph-name="j" unicode="j" horiz-adv-x="888" 
d="M602 1627q113 -43 113 -74v-38q-46 -81 -131 -112q-112 0 -112 131q26 93 130 93zM565 1029h75q0 -38 37 -38v-56q0 -89 113 -617h-19q14 -24 37 -262l-18 -37l18 -113v-149q-323 -412 -355 -412h-56q-58 2 -187 150q-38 56 -75 56l19 37q-94 0 -94 113l37 18h57
q181 -143 243 -205q172 135 243 318v299q0 320 -150 842z" />
    <glyph glyph-name="k" unicode="k" horiz-adv-x="1131" 
d="M60 1534h75q68 0 112 -281h-19q19 -22 56 -411h19q88 47 243 374h113q37 -6 37 -38v-74q0 -225 -112 -225q0 38 -38 38l-112 -206v-19q66 -5 131 -150q50 -31 412 -505q49 0 74 -93q-36 -86 -74 -94h-19q-94 0 -168 169q-375 486 -431 486l-18 -37v-38q0 -19 56 -262v-37
q-51 -112 -75 -112h-94l-74 131q18 128 18 205v19l-56 75v19l56 205q-56 651 -112 823v38z" />
    <glyph glyph-name="l" unicode="l" horiz-adv-x="476" 
d="M97 1609q187 0 187 -225q57 -1172 113 -1272v-37q-38 -94 -131 -94q-65 0 -94 150h19q0 19 -19 19q0 19 19 56q-32 1234 -112 1234l18 38h-37v56q37 45 37 75z" />
    <glyph glyph-name="m" unicode="m" horiz-adv-x="1468" 
d="M116 1010q131 0 131 -206q182 187 206 187q123 0 206 -243h37q89 206 224 206q145 0 337 -243q75 -286 112 -543q19 0 19 -18v-19q0 -101 -75 -131h-93q0 53 -56 93l18 94v112q-85 449 -280 449q-127 -118 -150 -355q0 -179 -112 -225h-19v38l-37 -19h-19q0 33 -37 94
q12 149 37 149q-42 222 -112 318h-19q0 -43 -56 -131q-25 -299 -37 -336q18 -37 18 -57q-59 -149 -168 -149h-19q0 149 -37 149q0 20 19 57q0 368 -94 654q28 75 56 75z" />
    <glyph glyph-name="n" unicode="n" horiz-adv-x="1094" 
d="M116 954q168 0 168 -168l19 -131h19q0 164 187 280h56q118 0 262 -224q119 0 187 -618q-29 -112 -150 -112q-33 44 -74 430q-88 218 -225 318h-37q-131 -318 -131 -598q-42 -68 -94 -75q-101 0 -112 337q-19 154 -131 449q12 112 56 112z" />
    <glyph glyph-name="o" unicode="o" horiz-adv-x="944" 
d="M397 1066h75q268 0 374 -411q18 -128 18 -206q0 -136 -205 -374q-113 -94 -131 -94q-468 109 -468 356v205q0 104 112 300q35 0 150 168q75 0 75 56zM528 860q0 -60 -94 -112l-37 19q-169 -76 -169 -337v-19q0 -176 281 -243q150 165 150 187q0 28 37 169
q-33 355 -168 355v-19z" />
    <glyph glyph-name="p" unicode="p" horiz-adv-x="869" 
d="M135 991h19q133 -37 149 -37h56q42 0 75 19q356 -186 356 -356q-37 -264 -225 -449q-112 -75 -168 -75h-75l-38 19v-56q0 -224 75 -224q-30 -337 -93 -337h-56q-19 0 -75 75q0 46 19 149q-19 1160 -94 1160q38 112 75 112zM378 748q0 -25 -112 -112v-56q0 -318 93 -318
q139 0 225 243v94q-56 72 -56 112l-38 -19q0 43 -112 56z" />
    <glyph glyph-name="q" unicode="q" horiz-adv-x="1057" 
d="M415 1029q19 0 19 -19l94 19h74l57 -75q93 -88 131 -206q-75 -149 -94 -374l19 -37q0 -19 -19 -19l19 -94q0 -37 -19 -37l19 -94v-168q134 131 224 131h38v-93q-244 -275 -244 -524q-37 0 -37 -75h-19q-149 0 -149 75q37 221 37 280q0 31 -19 225h19l-19 37q0 19 19 19
l-19 37v19q0 19 19 19l-19 37v187q-149 -131 -299 -131q-106 0 -187 169v205q22 161 131 337q26 0 112 112q32 0 112 38zM359 804q-149 -166 -149 -299v-37q0 -113 112 -113q87 0 206 206v38q0 105 -169 205z" />
    <glyph glyph-name="r" unicode="r" horiz-adv-x="813" 
d="M602 1141q131 -24 131 -131v-56q0 -29 -74 -75q-37 0 -187 38q0 -31 -94 -94q-75 -172 -75 -187q75 -288 75 -374q-37 0 -75 -112h-19q-119 0 -168 654q-23 56 -56 56v75q6 38 37 38h75l75 -56q128 145 337 205q0 19 18 19z" />
    <glyph glyph-name="s" unicode="s" horiz-adv-x="888" 
d="M602 1047q94 -11 94 -112q0 -93 -131 -93l-93 18l-38 -18q-36 18 -56 18q-85 -36 -94 -74v-57q449 -51 449 -149q75 -90 75 -150h-18l18 -37v-56q-152 -262 -411 -262l-337 37v131l112 19l112 -19l38 19l37 -19q198 38 243 112q-46 169 -168 169q-19 0 -19 -19
q-318 23 -318 281q0 200 262 243v-19q19 19 243 37z" />
    <glyph glyph-name="t" unicode="t" horiz-adv-x="963" 
d="M453 1627q41 0 56 -187q-15 -75 -37 -75l18 -93v-412q24 0 187 19v-19l38 19h168v-75q0 -49 -318 -112q-36 19 -56 19l-19 -38v-74q15 -393 75 -393q-31 -243 -168 -243l-75 168q37 61 37 112v430h-18q-49 0 -131 -56h-94q-27 0 -56 56v56q0 51 37 113l131 -19h75l56 37
l-18 38v187q-38 273 -38 299q-56 0 -56 56q0 187 206 187z" />
    <glyph glyph-name="u" unicode="u" horiz-adv-x="1112" 
d="M771 935q131 -66 131 -206q-56 -18 -56 -112v-93q0 -337 149 -337l38 -56v-75q-47 0 -131 -75q-125 0 -169 356q-215 -262 -467 -262q-206 0 -206 374v93q0 29 19 300l93 18q0 -18 19 -18q-19 -103 -19 -150q0 -430 75 -430l131 -19q132 0 262 262q19 142 37 187l-56 37
q45 206 150 206z" />
    <glyph glyph-name="v" unicode="v" horiz-adv-x="926" 
d="M790 954q56 -19 56 -112q-281 -560 -281 -749q-56 0 -112 -74q-69 0 -243 542q-150 229 -150 318q19 36 19 56h56q149 -18 149 -224q25 -8 131 -393l38 -19q236 655 299 655h38z" />
    <glyph glyph-name="w" unicode="w" horiz-adv-x="1243" 
d="M135 973q110 0 149 -187q57 -248 57 -318h18q0 56 38 149q-38 0 -38 38v93q38 0 113 75h93q0 -51 94 -112l56 -75l149 -281h19q56 215 94 468l93 75q61 -38 94 -38v-56q-94 -387 -131 -692q-31 0 -150 -37q-35 0 -131 187q-150 243 -187 243h-37v-19q0 -355 -169 -355
q0 -38 -37 -38h-19q0 38 -37 38v19q0 18 18 18q-112 618 -224 618v18q19 169 75 169z" />
    <glyph glyph-name="x" unicode="x" horiz-adv-x="982" 
d="M565 991h94q56 -18 56 -112q0 -47 -94 -187q-93 -158 -93 -224q215 -216 374 -281v-56q0 -30 -150 -112q-238 228 -318 280q-82 -393 -224 -393l-56 113l187 392q-66 118 -262 300q-19 32 -19 75v93h131l224 -243q44 27 150 355z" />
    <glyph glyph-name="y" unicode="y" horiz-adv-x="963" 
d="M154 917h74q56 -88 56 -131q0 -50 -74 -300q25 -274 112 -299h56q123 55 168 187q19 129 38 168q-27 0 -56 57v93q79 112 149 112q127 0 169 -711q24 0 37 -318q-91 -299 -374 -299q-393 65 -393 150v112q1 26 94 75q106 -131 131 -131q74 -28 74 -56q337 33 337 224
l-19 38v18q0 19 19 19l-56 374h-19q-97 -262 -336 -262q-262 0 -262 543l18 75q-37 60 -37 93h19l-19 38q38 116 94 131z" />
    <glyph glyph-name="z" unicode="z" horiz-adv-x="1132" 
d="M808 973q75 -113 75 -169q-374 -497 -374 -542h19v19l37 -19h281q185 0 205 -131q-18 -75 -112 -75q-168 37 -243 37h-224l-188 -18l-56 93q0 137 169 187q211 296 243 393h-56q-267 0 -356 -75q-145 0 -168 113q0 112 168 112h38q18 0 18 -19q37 19 57 19q276 0 467 75z
" />
    <glyph glyph-name="braceleft" unicode="{" horiz-adv-x="739" 
d="M546 1758q113 -29 113 -131v-56q0 -22 -131 -93h-75v56q-169 -31 -169 -243q188 -299 188 -337v-19q-94 -135 -94 -168q37 -62 37 -112v-94q-74 -158 -74 -337q0 -144 318 -224v-75q-2 -26 -94 -75h-37q-374 101 -374 374q39 229 74 244l-18 37v94q-85 0 -150 130
q0 62 224 169q-168 299 -168 411q0 19 19 19l-19 94q0 186 430 336z" />
    <glyph glyph-name="bar" unicode="|" horiz-adv-x="458" 
d="M135 1796q93 -31 93 -113q0 -259 38 -785h-19q37 -195 131 -935q-15 -64 -112 -113h-38q-74 31 -74 131q0 584 -57 1254q0 18 19 18l-19 131v187q0 17 -37 150v19q0 46 75 56z" />
    <glyph glyph-name="braceright" unicode="}" horiz-adv-x="888" 
d="M359 1646q142 -134 169 -187v-131q0 -38 -38 -355q42 0 75 -56l37 18q27 0 113 -112q-113 -187 -131 -318q0 -154 224 -374v-75q-142 -187 -318 -187h-112q-37 0 -37 37v19q33 80 261 150v37q-168 174 -168 374v75q0 42 19 75q0 61 -131 262l-19 75h19l-19 37
q56 110 56 374l-56 38h-206q0 29 -37 74q0 19 19 19l-19 38q0 81 299 93z" />
    <glyph glyph-name="asciitilde" unicode="~" 
d="M1014 1141h37q38 -6 38 -37v-57q-173 -448 -374 -448q-105 0 -281 187q-187 -38 -187 -356h-93q-94 70 -94 225q56 0 112 168q131 191 131 206l449 -206q72 14 225 299z" />
    <glyph glyph-name="cent" unicode="&#xa2;" horiz-adv-x="945" 
d="M303 1515h131q75 -30 75 -131v-131q6 -37 37 -37h19q0 37 19 37q149 -42 149 -168q0 -21 -187 -168q-74 -26 -74 -94l-38 19v-19q38 -6 38 -37q-19 0 -19 -19h19q29 0 205 56q37 -19 56 -19q2 26 94 75h37q0 -155 -430 -280l19 -38v-19q0 -18 -19 -18l19 -38l-19 -37
q19 -36 19 -56h-19q50 -263 94 -300v-37q-20 0 -56 -19q-150 73 -150 356v187q-262 0 -262 374v75q0 149 281 149q-27 106 -75 169q0 18 18 18l-18 38v37q37 46 37 75zM228 898q38 -95 38 -131h56q0 37 19 37q0 19 -19 19l19 94v130q-81 -44 -113 -149z" />
    <glyph glyph-name="sterling" unicode="&#xa3;" horiz-adv-x="1468" 
d="M1051 1646v-19l38 19q206 -51 206 -150q-64 -131 -94 -131h-112q-19 0 -19 19q-115 0 -187 -355l37 -19h188q18 0 18 -19q19 0 19 19l93 -19h131v-37q0 -52 -187 -75v19q-355 -38 -355 -75q-56 -259 -94 -355q60 -19 300 -169q187 -41 187 -56q86 38 168 38v-94
q0 -38 -187 -131h-37q-93 0 -468 206h-19q-108 -186 -224 -225q-348 104 -393 206v75q0 101 206 243q31 19 93 19q77 0 150 -56q70 0 131 299l-56 37q-119 -37 -150 -37q-75 65 -75 131q28 75 56 75h281q100 617 355 617zM378 393q0 -38 -56 -38v-56l75 -18q60 37 93 37v56
q-84 0 -112 19z" />
    <glyph glyph-name="copyright" unicode="&#xa9;" horiz-adv-x="1618" 
d="M864 1534q599 -101 599 -318q75 0 75 -356v-149q0 -42 -19 -75q19 -33 19 -75q-30 -26 -150 -299q-281 -325 -430 -356q-711 129 -711 318q-82 0 -187 431q0 144 206 561q32 76 224 168q294 150 374 150zM228 692q0 -164 169 -411l131 -94q0 19 18 19q0 -75 356 -113
q243 0 449 487q12 149 37 149l-19 38v37q0 19 19 19l-19 37v187l19 38q-86 0 -168 168q-131 94 -356 94h-18q-487 -194 -487 -300q-71 -50 -131 -355zM827 1122q337 -51 337 -243v-112q-66 -112 -94 -112q-93 56 -150 56q0 18 19 18l-19 94l19 94q-14 0 -112 18
q-42 0 -150 -131h-18v-37q0 -197 280 -225h56q105 0 187 113h19q37 -6 37 -38q0 -183 -299 -224h-75q-285 0 -392 411q239 318 355 318z" />
    <glyph glyph-name="registered" unicode="&#xae;" horiz-adv-x="1805" 
d="M846 1665h56q580 -116 580 -374q243 -223 243 -393q-149 -655 -262 -655q-79 -140 -393 -355q-121 -38 -168 -38h-131q-349 160 -430 225q-169 211 -281 692q187 898 786 898zM228 786q0 -265 244 -599q254 -150 448 -150h19q300 92 449 374q156 271 168 506
q0 59 -112 243v18h-18l-94 -18q-99 262 -262 262q0 42 -243 74q-387 0 -599 -654v-56zM1033 1309q123 0 131 -205q0 -175 -206 -412h-19l187 -150h94q0 -32 56 -93v-56q-38 -94 -131 -94h-19q-154 150 -299 225q-24 -206 -94 -206h-18l-94 19v18q0 413 -112 711v75
q0 75 355 112q0 34 169 56zM715 935q0 -149 75 -149q205 104 205 280q-56 19 -56 38q-107 -19 -168 -113q-23 -56 -56 -56z" />
    <glyph glyph-name="degree" unicode="&#xb0;" horiz-adv-x="701" 
d="M303 1627h94q0 -25 205 -168l19 -94v-56q-80 -131 -168 -131h-94l-37 19q0 -19 -19 -19q0 46 -168 75q-75 153 -75 169q76 205 243 205z" />
    <glyph glyph-name="plusminus" unicode="&#xb1;" horiz-adv-x="1019" 
d="M322 1328h150q56 -19 56 -112v-94q46 0 149 19q19 0 262 -56v-75l-75 -19q-20 0 -56 19q-29 0 -299 -56q75 -95 75 -112q-38 -102 -112 -131q-141 0 -150 131q19 0 19 18l-38 19q0 -43 -93 -56q-113 39 -113 150v37q11 45 131 94q33 -19 75 -19h19v19l-38 131
q38 60 38 93zM154 486q93 -18 93 -37l94 19h18q431 0 431 -57v-18q0 -62 -543 -112q0 -19 -56 -38q-131 0 -131 168z" />
    <glyph glyph-name="quoteleft" unicode="&#x2018;" horiz-adv-x="477" 
d="M284 1171q-142 0 -224 262q126 318 262 318q0 38 37 38q38 0 38 -38v-19q-63 0 -169 -243q19 -36 19 -56h93q27 0 57 -56q0 -131 -113 -206z" />
    <glyph glyph-name="quoteright" unicode="&#x2019;" horiz-adv-x="477" 
d="M173 1789q142 0 224 -262q-126 -318 -262 -318q0 -38 -37 -38q-38 0 -38 38v19q63 0 169 243q-19 36 -19 56h-93q-27 0 -57 56q0 131 113 206z" />
    <glyph glyph-name="quotedblleft" unicode="&#x201c;" horiz-adv-x="949" 
d="M284 1171q-142 0 -224 262q126 318 262 318q0 38 37 38q38 0 38 -38v-19q-63 0 -169 -243q19 -36 19 -56h93q27 0 57 -56q0 -131 -113 -206zM756 1171q-142 0 -224 262q126 318 262 318q0 38 37 38q38 0 38 -38v-19q-63 0 -169 -243q19 -36 19 -56h93q27 0 57 -56
q0 -131 -113 -206z" />
    <glyph glyph-name="quotedblright" unicode="&#x201d;" horiz-adv-x="949" 
d="M173 1789q142 0 224 -262q-126 -318 -262 -318q0 -38 -37 -38q-38 0 -38 38v19q63 0 169 243q-19 36 -19 56h-93q-27 0 -57 56q0 131 113 206zM645 1789q142 0 224 -262q-126 -318 -262 -318q0 -38 -37 -38q-38 0 -38 38v19q63 0 169 243q-19 36 -19 56h-93q-27 0 -57 56
q0 131 113 206z" />
    <glyph glyph-name="bullet" unicode="&#x2022;" horiz-adv-x="570" 
d="M266 1029h112q72 -56 112 -56v-131q-70 -262 -243 -262q-187 0 -187 187v19q0 123 206 243z" />
    <glyph glyph-name="Euro" unicode="&#x20ac;" horiz-adv-x="1374" 
d="M864 1590q134 -19 150 -19l37 19q78 -26 113 -94q0 -101 -94 -131l-37 19l-38 -19l-37 19l-38 -19q-14 0 -112 19q-175 0 -262 -243l38 19q117 0 280 -56v-38q0 -56 -355 -93q-48 -63 -75 -169h94q136 0 411 -37v-38q0 -65 -467 -93v-37q116 -188 243 -188
q187 32 561 188l19 -38q0 -211 -655 -337q-219 66 -318 244q0 50 -38 112q-42 -38 -168 -38q-56 69 -56 131v38l75 75l93 -19h38v37l-19 38h37q0 30 -93 93q0 14 -19 112q0 57 112 94q37 -19 57 -19q112 331 336 449z" />
    <glyph glyph-name="trademark" unicode="&#x2122;" horiz-adv-x="1637" 
d="M733 1178q169 -14 169 -56v-56q-384 -68 -412 -93l19 -38q0 -18 -19 -18q0 -20 19 -57q-19 -243 -19 -392v-19q0 -37 38 -187q-19 -56 -38 -56q-116 0 -131 411h19l-94 337l-37 -19h-131q0 56 -56 56v75l19 38l93 -19l112 37v-18q145 56 449 74zM1369 1178l113 -131v-37
q0 -19 -19 -19l19 -37q0 -19 -19 -19l93 -411q-26 -94 -130 -94q-75 0 -113 318h-18l-94 -75h-19q-93 0 -93 56h-56q0 -19 -19 -56q0 -18 19 -18q0 -244 -131 -244q-51 0 -75 543q19 68 75 112q117 -37 262 -149h18v56l-18 93q98 112 205 112z" />
  </font>
</defs>
</svg>
