<?xml version="1.0" standalone="no"?>
<!DOCTYPE svg PUBLIC "-//W3C//DTD SVG 1.1//EN" "http://www.w3.org/Graphics/SVG/1.1/DTD/svg11.dtd" >
<svg xmlns="http://www.w3.org/2000/svg" xmlns:xlink="http://www.w3.org/1999/xlink" version="1.1">
<metadata>
Created by FontForge 20161003 at Thu Feb 23 01:36:31 2017
 By www-data
Created by KEVIN RICHEY with FontForge 2.0 (http://fontforge.sf.net)
</metadata>
<defs>
<font id="Snake" horiz-adv-x="288" >
  <font-face 
    font-family="Snake"
    font-weight="500"
    font-stretch="normal"
    units-per-em="800"
    panose-1="2 0 6 3 0 0 0 0 0 0"
    ascent="600"
    descent="-200"
    x-height="105"
    cap-height="270"
    bbox="-110 -332.545 505.1 560"
    underline-thickness="0"
    underline-position="0"
    unicode-range="U+0020-007E"
  />
<missing-glyph 
d="M26 0v533h210v-533h-210zM52 26h158v481h-158v-481z" />
    <glyph glyph-name=".notdef" 
d="M26 0v533h210v-533h-210zM52 26h158v481h-158v-481z" />
    <glyph glyph-name=".null" horiz-adv-x="0" 
 />
    <glyph glyph-name="nonmarkingreturn" horiz-adv-x="266" 
 />
    <glyph glyph-name="space" unicode=" " horiz-adv-x="170" 
 />
    <glyph glyph-name="exclam" unicode="!" horiz-adv-x="228" 
d="M38 79q0 3 -1.5 11t-1.5 11q0 1 1 5t0 6q0 3 -1.5 6.5t-1.5 4.5q-1 11 -1 31.5v31.5q0 2 -0.5 6t-0.5 6t1 4.5t1 3.5v32q1 4 1 14q0 1 1.5 6t1.5 8v31q2 10 0 18q0 2 -1 5.5t-1 5.5v11q0 2 -0.5 6t-0.5 6t1.5 8t0.5 9l-3 9q-1 6 -1 19v20q0 2 -1 5.5t0 5.5q1 3 9 9
q1 0 1 1q16 0 19 -11q1 -3 1 -13.5t1 -14.5q0 -2 2 -6.5t2 -5.5q1 -4 1 -26v-14.5t-1 -11.5q0 -2 -2 -7t-2 -7t2.5 -4.5t2.5 -4.5q1 -4 0.5 -13.5t-1.5 -13.5q0 -3 -2 -7t-2 -5l3 -20q0 -2 -1.5 -8.5t-1.5 -10.5q-1 -7 -1 -28t-3 -25q4 -13 2 -42q0 -13 -1 -18
q-2 -10 -2 -15q0 -3 2 -8t2 -8q3 -29 -8 -29q-2 1 -4 5t-6 9.5t-5 6.5zM55 -11q1 -5 -2 -9.5t-3 -7.5q-8 -10 -16 -12q-17 3 -13 22q3 6 8 11q3 0 7 2.5t5 2.5q6 -1 14 -9z" />
    <glyph glyph-name="quotedbl" unicode="&#x22;" horiz-adv-x="196" 
d="M95 425q5 -3 0.5 -18.5t-4.5 -19.5q-4 -6 -6 -14q-2 -2 -5 -8.5t-6 -9.5v-6q-4 -6 -10.5 -21.5t-11.5 -21.5q0 -2 -0.5 -5.5t-0.5 -4.5q-1 -1 -3 -3.5t-2 -3.5q0 -6 -4 -13.5t-3 -13.5q-2 -1 -5.5 -8.5t-9.5 -7.5q-6 6 -6 26q9 23 10 34q1 2 2.5 4t2.5 4q0 6 3 14.5
t4 12.5q2 2 5 8.5t6 9.5v7q1 1 2.5 3.5t2.5 3.5q0 1 6 13q0 4 1 6q0 1 1.5 2t1.5 2q1 1 3.5 4.5t4.5 5.5v5q3 5 9 10.5t12 3.5zM178 395q0 -2 -2 -5q-2 -1 -2 -2q-1 -2 -1 -5q-5 -4 -10 -14.5t-7 -13.5q0 -1 -1 -2.5t0 -2.5q-1 -2 -3 -4t-2 -3v-2q-1 -2 -1 -3
q-10 -14 -11 -20q-4 -4 -5 -6q0 -1 -0.5 -3t-0.5 -3t-4 -5.5t-6 -7.5q-2 -9 -6 -15q-2 -16 -2 -22q-2 -7 -8 -10q-11 -2 -14 3q-4 9 0 30q0 2 2 5.5t2 4.5q1 2 1.5 6t0.5 5q5 5 6 12l6 12q0 1 2 2.5t2 2.5q2 6 9.5 16t9.5 19q1 2 3 4t2 3q-1 4 3 8q2 2 3 4q-1 5 5 13
q1 1 1 2v2q2 3 12 11q6 6 12 3q4 -2 4 -19z" />
    <glyph glyph-name="numbersign" unicode="#" horiz-adv-x="520" 
d="M326 221q8 -1 20 2.5t16 3.5q2 1 4.5 3t3.5 3q2 1 5.5 0t4.5 -1q2 0 6 2h9q2 0 4.5 2t4.5 2q42 0 52 7h26q19 0 23 -3q1 -3 -8 -9l-3 -3t-4 -3h-8t-8 -1q-2 0 -4 -2t-4 -2t-9 -0.5t-10 -1.5q-1 0 -4 -1.5l-5 -2.5t-7 -0.5t-8 -0.5q-1 0 -4 -2t-5 -3q-13 0 -22 -6
q-4 -1 -11 0t-11 -1q-2 0 -4.5 -2.5t-3.5 -2.5h-9q-2 0 -4.5 -2t-3.5 -3q-1 0 -5 -0.5t-5 -0.5q-2 -1 -4.5 -3t-3.5 -3h-10q-4 -2 -4 -15.5v-20.5q-1 -2 -2.5 -4t-2.5 -4q0 -21 -6 -28q1 -8 -1 -24q1 -2 11 -2q18 0 22 3q14 3 32 3h8h6q14 0 20 1l4 2q8 4 12 0q0 3 21 2.5
t24 -0.5q2 2 6 2l6 -2h6q9 1 11 -3q0 -6 -8 -9t-9 -4q-11 -1 -32 -1q-1 -1 -4 -3t-4 -3q-5 1 -13 0t-10 -1h-8q-2 0 -5.5 -2.5t-5.5 -2.5q-3 1 -9 0t-8 -1h-8q-1 -1 -3.5 -2t-4.5 -2t-8.5 -1h-9.5q-2 0 -4.5 -1t-3.5 -1h-9q-2 0 -4.5 -1.5t-4.5 -1.5h-7.5t-8.5 -1
q-2 -2 -1.5 -8.5t-0.5 -11.5q0 -1 -2 -3t-3 -4q-1 -3 -1 -37v-44q0 -2 2.5 -4t3.5 -4q0 -16 -7 -16q-1 0 -10 6q0 3 -2.5 7.5t-2.5 6.5q1 6 -3.5 16t-4.5 15v43q0 1 -0.5 4.5t-0.5 5.5q0 4 2 11.5t2 8.5q-1 5 -15.5 3t-17.5 -1q-1 0 -3.5 -2t-4.5 -2q-3 0 -5.5 2t-4.5 2
q-2 1 -5.5 -2t-4.5 -4h-19q-7 -2 -7 -8q-1 -3 -1.5 -17t-2.5 -17q-2 -4 -9 -4.5t-11 2.5q-1 1 -1.5 4t-0.5 4q-2 6 -2 8q0 3 1.5 9.5t0.5 10.5q-3 7 -8 8q-2 0 -11.5 -2t-11.5 1q-6 -3 -24 -4.5t-23 -5.5q-28 2 -29 3q-3 2 -3 12q4 5 12 10l4 4q2 1 7 0.5t8 0.5q2 1 4.5 3
t4.5 2q21 0 28 5q8 2 16.5 1t16 0.5t10.5 6.5q1 3 1 8q1 3 2.5 8.5t1.5 7.5v23l3.5 7t2.5 7.5t-1 7.5q-4 1 -9 -1.5t-9 -0.5q-2 0 -3.5 -2t-3.5 -2h-10q-2 -1 -5 -3t-4 -2q-1 -1 -4 -1h-5t-4 -2t-4 -3t-7 -1l-3 -2q-3 -2 -4 -2q-3 -2 -10.5 -2t-11.5 -1l-4 -2l-4 -2t-4.5 -1
h-3.5q-2 0 -5.5 -2t-4.5 -2q-5 -2 -17 0q-7 5 -9 8v7q1 2 6 7l9 6h9q1 0 3.5 2t4.5 3t4.5 1h3.5q2 1 4.5 3.5t4.5 2.5q14 -3 23 4q9 2 10 2q2 2 13 6q1 0 6.5 3t10.5 2q2 1 4 3t4 3h6.5t6.5 1q3 0 7.5 3t7.5 2q2 1 6.5 4t6.5 4q1 2 1 6v5q0 3 2 7q0 2 -0.5 5.5t-0.5 4.5l3 9
q2 5 2 16q0 1 2 4.5t2 5.5t-2.5 4.5t-2.5 4.5q0 6 1 8q0 9 5 15q0 28 2 35q5 1 13 5q10 -3 13 -13q2 -13 -1 -36.5t-3 -31.5q0 -19 -2 -28q-9 -17 -2 -25q3 1 9 1.5t9 0.5q2 1 5 3t4 2q5 2 15.5 1t15.5 0q2 1 4.5 3t4.5 3q11 0 12 1q1 3 3 8.5t2 6.5t0.5 6t1.5 7t3 5t2 4
q-1 9 2.5 20.5t3.5 18.5q3 3 5.5 10.5t4.5 10.5q0 7 8 21v9q0 2 2.5 4.5t2.5 3.5q-1 6 2.5 12t3.5 12q7 9 13 10q3 -1 4.5 -5t3.5 -6q-2 -3 -1 -10.5t1 -9.5q0 -4 -3 -7q-1 -5 -5 -15q0 -8 -3.5 -17.5t-4.5 -12.5q0 -2 -2.5 -4.5t-2.5 -4.5q1 -8 -4 -18q-2 -21 -7 -35v-14z
M277 175h-15.5t-12.5 -1q-1 0 -4 -2t-5 -2h-17q-2 -1 -5 -3.5t-5 -3.5q-6 0 -8 -1t-2.5 -5.5t-1.5 -6.5q-3 -6 -3 -7v-8t-1 -9l-4 -8q-1 -1 -1.5 -3t-0.5 -3l-3 -6v-7.5t-1 -6.5q0 -2 -1 -4t-1 -4q2 -5 10 -3q3 1 5 1q1 0 9.5 -1t13.5 0q2 0 5.5 0.5t5.5 0.5q1 0 3 -0.5
t4 -0.5q27 0 30 5q2 2 2 8v8q1 3 3 6.5t2 5.5v26q0 18 2 23q0 1 3 4t2 6q-1 2 -8 2z" />
    <glyph glyph-name="dollar" unicode="$" horiz-adv-x="396" 
d="M243 396q8 -2 12 -2l8 -8q2 -5 7 -12q3 -5 4 -7q0 -2 0.5 -9t0.5 -11q0 -16 3 -19q3 0 7 3.5t6 4.5q3 1 19 1q15 0 20 -1l14 -7q1 -1 1.5 -3.5t0.5 -3.5q-2 -1 -5 -4l-4 -4q-4 -2 -5 -3q-1 0 -4 -3.5t-5 -4.5q-3 -1 -8 3t-8 4t-8 -2t-9 -2q-16 -12 -16 -13q0 -3 -2.5 -20
t-3.5 -26q-5 -12 -4 -18q0 -1 -5 -8q-1 -3 -1 -19q0 -2 -2 -4t-2 -4q3 -3 20 -3q14 -1 41 -1l10 -4h25q5 -1 15 -8l9 -12q-1 -4 1.5 -13t1.5 -12q0 -1 -3 -3t-4 -4l-3 -6l-9 -12q-5 -2 -19 -16q-3 -1 -10.5 -7t-14.5 -7q-8 -6 -13 -11q-17 -4 -23 -11q-2 0 -5.5 -2.5
t-4.5 -3.5q-3 0 -5 -1q-3 -3 -4 -3q-10 -7 -10 -8q-3 0 -7 -2.5t-5 -2.5q-4 1 -13 -6q-1 0 -3.5 -0.5t-2.5 -1.5q-8 -30 -8 -48q-1 -1 -4 -7v-48q1 -2 2.5 -5.5t1.5 -4.5l3 -9q0 -1 2.5 -5.5t2.5 -7.5q0 -2 2 -4t2 -4t-4 -6q-11 -5 -13 9q-15 9 -16 13q-1 2 -1 4t-1 4t-3 4
t-2 3q2 7 -1.5 17t-3.5 14q0 2 2 10q0 2 -0.5 5.5t-0.5 4.5q0 2 2 4.5t2 3.5q1 3 0.5 13t-0.5 14q10 10 2 14q-2 0 -6 -2t-5 -2h-9q-3 0 -10.5 -4t-13.5 -3q-6 -5 -18 -5q-2 -1 -4 -3l-3 -3q-10 2 -17 -5h-16q-2 -1 -4.5 -3t-3.5 -3q-3 -1 -9 1.5t-7 2.5q-2 0 -6.5 -2.5
t-7.5 -3.5q-2 0 -10 2q-2 2 -7 6q-4 2 -6 4q-3 5 -1 14q14 18 22 26q3 2 8 6.5t8 6.5l16 3l12 9q5 0 12 3.5t12 1.5l3 -6q-1 -2 -4.5 -5t-4.5 -5q-1 0 -2.5 -0.5t-2.5 -0.5q-3 -1 -7 -5q-4 0 -10 -3t-7 -3l-16 -16q0 -1 -2.5 -2t-2.5 -3q0 -3 5 -3t11.5 1t8.5 1q1 0 3.5 2
t4.5 2q3 1 7 1h6q2 1 4.5 3t3.5 2t3 1t3 1l8 4q8 0 12 1l4 2t3 2q4 1 12.5 1t13.5 1q9 5 17 8q2 2 5 6.5t5 6.5q-1 5 4 16q-1 7 3.5 17t4.5 16q0 1 2 3.5t3 4.5q-1 16 6 23q0 18 -2 20q-7 1 -26.5 0t-24.5 1q-4 4 -14 6q-2 1 -7 6t-10 5q-2 3 -7.5 6.5t-7.5 7.5v12
q2 3 6.5 9.5t6.5 9.5q6 3 20 17q2 0 12 8q12 10 17 16q5 2 13.5 9.5t14.5 9.5q4 3 18 17q8 0 20 12v54l-6 6q-2 18 3 22zM236 275q-8 -8 -11 -9q-2 -1 -3 -2.5t-2 -1.5q-4 -2 -5 -2q-9 -10 -14 -11q-3 -4 -41 -39q-6 0 -6 -4q-1 -4 3 -8l12 -6q20 -3 44 -1q1 0 3.5 -1
t4.5 -1q5 6 10 39l3 7v10l5 10q4 16 -1 21h-1zM346 147q4 5 4 6q0 2 -4 5.5t-6 3.5q-3 1 -16 1q-4 0 -11 -0.5t-11 -0.5q-2 0 -4 2t-4 2q-1 0 -2 -1q-2 -2 -3 -2q-4 2 -5 2q-5 -3 -18.5 -2.5t-18.5 -1.5q0 -7 -3 -18t-4 -18q-6 -9 -6 -23q-4 -4 -5 -6v-10t-1 -8q0 -1 -2 -3
q-4 -5 0 -7q1 0 6 2h6q2 0 5 3t6 2l6 6q1 1 2 1h3q8 5 11 5q2 1 6 5q9 7 19 6q1 0 2.5 2.5t3.5 3.5q1 1 4 1q5 4 15 14.5t17 14.5q4 7 8 13z" />
    <glyph glyph-name="percent" unicode="%" horiz-adv-x="386" 
d="M40 -55q0 7 3.5 11.5t9 9t7.5 7.5v5l17 17q9 14 30.5 38t30.5 38q1 1 4 3t4 4l2 4q4 3 9 10.5t7 9.5l1 2q1 1 1 2q2 3 7 5q21 26 37 41q5 7 23 23q1 2 4 6.5t4 7.5l7.5 7.5t9.5 8.5q4 8 28 34q0 3 2 3l21 24q1 2 1 5q2 1 5 4q1 4 4 7t3 6q17 14 25 27l12 9q13 -2 11 -14
q-1 -1 -4 -2.5t-4 -3.5q0 -3 -3 -8t-2 -10l-6 -6q-3 -8 -11 -15q-1 -4 -6 -8.5t-6 -5.5q0 -3 -1 -5t-5 -4q-3 -5 -9.5 -13.5t-9.5 -12.5q-5 -3 -11.5 -11t-9.5 -11l-1 -2q-1 -1 -1 -2q-1 -1 -5.5 -6t-5.5 -9l-18 -15q-5 -12 -14 -16l-15 -18q-2 -3 -10 -12t-11 -14
q-1 -1 -1 -4q-5 -2 -14 -14q-2 -2 -4 -6q-4 -2 -5 -2l-2 -4q-1 -2 -4.5 -5t-4.5 -5q-2 -2 -3.5 -6t-3.5 -6q-1 -1 -3 -2t-2 -2l-32 -32q-4 -1 -8 -5q0 -1 -2 -5q-3 -4 -10.5 -13t-14 -16t-14.5 -11l-6 -9q-1 -1 -1 -4l-4 -4q-7 -7 -11 -7q-6 0 -11 7zM19 194v12q15 15 22 19
q1 1 2 1h3q1 1 4.5 5.5t6.5 6.5q8 -1 24 11q13 0 17 3l19 3q3 0 10 -0.5t10 -0.5t7 -2t7 -3q0 -2 3 -5.5t4 -6.5q2 -2 1.5 -12t-0.5 -13q0 -1 -2.5 -3t-2.5 -3v-6q-1 -1 -7 -8.5t-10 -9.5q-1 -3 -4 -7t-4 -7q-2 -2 -5 -3.5t-4 -2.5t-2 -3l-1 -2q-1 -1 -2.5 -2t-2.5 -1t-2 -1
l-2 -2q-3 -1 -28 -1q-1 0 -4.5 2.5t-6.5 3.5q-10 14 -9 21q-2 3 -9 3.5t-9 1.5q-2 0 -4.5 1.5t-3.5 1.5q-6 -1 -11 5zM122 226q-6 -2 -13 -10.5t-8 -9.5q-1 -5 -3.5 -10l-3.5 -7q0 -1 -4 -2.5t-4 -3.5t7 -7q6 4 10 4q19 13 20 15q0 1 0.5 2.5t0.5 2.5q1 1 3 2t3 2q0 2 1 4
q3 3 4 5q4 11 -1 18q-5 2 -12 -5zM67 220q-2 -3 -6.5 -8.5t-6.5 -8.5q0 -5 2 -6q8 -1 10 9q8 6 8 14h-7zM246 29q5 1 9 5t6 5q4 0 10.5 3.5t10.5 3.5q9 4 12 4q9 -4 16 -13q1 -5 -3 -9t-4 -8q-16 -14 -32 -26h-5q-2 -1 -4.5 -3t-3.5 -3q-4 -2 -12.5 -2t-11.5 2l-4 4
q-4 2 -5 2l-7 7q-6 7 -7 8q0 14 1 21q1 2 8 10t9 14q1 2 3.5 4.5l3.5 3.5q4 3 13.5 6.5t12.5 5.5h26q5 -5 6 -8q-2 -3 -11 -8q-10 0 -22 -12h-5l-4 -4q-5 -3 -6 -5q-3 -6 0 -8z" />
    <glyph glyph-name="ampersand" unicode="&#x26;" horiz-adv-x="232" 
d="M115 117q6 -4 20 -2q4 1 12 6h19q1 0 3.5 2.5t4.5 2.5q3 2 14 1.5t14 -0.5t7 2t7 1q8 -5 1 -11.5t-13 -8.5q-2 0 -5 -0.5t-4 -0.5t-4 -2t-5 -3h-10q-2 0 -3.5 -3t-3.5 -3h-10q-2 -1 -4.5 -3t-3.5 -2q-6 -2 -10 -1q-1 0 -8 -5q-2 -1 -6.5 -1h-6.5q-5 -1 -16 -9
q-1 -3 -1 -10.5v-10.5l-6 -12q-1 -1 -3 -3.5t-2 -3.5q1 -6 -4 -12q-1 -2 -2 -3v-14q-1 -1 -3.5 -4.5t-3.5 -6.5q-1 -2 -5 -6q1 -4 -4 -11q-2 -2 -3 -4l-1 -3q-11 -7 -16 -6q-3 0 -5 7l-5 5l-6 24q0 1 -2 3t-2 4q-1 2 -1.5 7t-0.5 6t-2 4t-3 5q-1 3 -1 9t-1 9q-1 2 -2.5 4.5
t-1.5 3.5q0 6 -1 20t1 17q4 6 19.5 9t18.5 5q4 -1 11 0t10 1q7 6 10 9v19q0 1 2 3t3 4q2 3 3.5 9.5t2.5 9.5q-1 17 6 24q0 18 -1 22q0 2 -2.5 7t-2.5 7q-1 3 0 10t0 10q0 1 -4 5t-3 9q2 5 8 7.5t12 0.5q2 -1 3.5 -2.5t2.5 -1.5q10 -7 10 -9q1 -3 1 -7t1 -7q0 -2 2.5 -6
t2.5 -9q0 -1 -0.5 -3.5t-0.5 -4.5q-1 -6 -0.5 -18t0.5 -16q0 -1 -2 -3.5t-3 -4.5q-1 -4 -1 -12.5v-12.5q0 -2 -2 -4.5t-3 -4.5v-9q-1 -1 -3 -4q-4 -4 -3 -10zM62 80q-2 -2 -6 -4.5t-6 -4.5q0 -2 -1.5 -9t-0.5 -12q1 -2 2 -8t3 -9q0 -4 3 -7q2 -7 4 -7q1 3 2.5 12.5t4.5 13.5
q2 4 2 8q5 16 5 19q0 1 2 2.5t3 3.5q-1 2 -17 2z" />
    <glyph glyph-name="quotesingle" unicode="'" horiz-adv-x="138" 
d="M104 406q5 2 9 0q1 -1 2 -3q1 -3 2 -4t2 -3t2 -3q0 -3 -2.5 -8.5t-1.5 -9.5l-7 -7q-1 -8 -11 -18q-1 -7 -6.5 -16t-6.5 -12l-4 -5v-3t-1 -2q-3 -4 -16 -30v-5q-3 -2 -6.5 -7.5t-5.5 -7.5q-6 -18 -14 -24h-14q-6 4 -7 8q0 1 -1 1q-1 7 5 13q4 13 12 22q-1 5 3 9l2 4
q1 1 3 5t4 6v4q21 29 23 32q2 8 9 19.5t8 12.5q2 8 2 12q2 2 6 10t9 10h1z" />
    <glyph glyph-name="parenleft" unicode="(" horiz-adv-x="220" 
d="M138 346q4 -5 4 -12q-9 -9 -13 -9q-3 0 -6 2.5t-6 2.5q-4 0 -7.5 -3.5t-6.5 -3.5q-10 -11 -23 -28q-5 -1 -10 -11q0 -2 -2 -4.5t-2 -3.5q0 -10 -6 -18q-1 -4 -1 -10.5t-1 -9.5q0 -1 -2 -4q-3 -8 -2 -14q-5 -6 -7 -23q-2 -8 -2 -12q0 -1 0.5 -4t0.5 -4q0 -2 -0.5 -7
t-0.5 -8q0 -2 1 -6t1 -7q1 -2 1 -5.5v-5.5q1 -2 4 -8.5t2 -9.5q6 -12 5 -18q4 -4 6 -8l3 -3q2 -3 2 -5l1 -2q1 -1 1 -2q1 -5 6 -10q0 -1 2 -2.5t2 -3.5q0 -3 1 -4q2 -2 4 -6q7 -10 10 -10q9 -12 12 -17q4 -3 13.5 -11t15.5 -12h5q1 -1 3 -4t4 -4q13 0 18 -3q4 1 17 -4h10
q12 -5 9 -25q-9 -9 -10 -9q-1 -1 -8 0t-9 1q-12 6 -21 7l-8 4q-3 1 -10 1q-2 1 -4 4q-1 2 -2 3q-5 0 -6 1q-1 0 -4.5 3t-7.5 4q-5 5 -11 13q-1 0 -3 1l-2 1q-2 1 -4 5t-3 5l-2 1q-2 1 -3 2q-6 2 -8 8l-3 6q-2 3 -8 7q-2 5 -18 29q0 2 -6 11l-6 12q-1 5 -6 12q-1 4 -1 11
q0 1 -2 4t-3 5t-1 6v6q0 3 -2.5 7.5t-2.5 7.5q0 2 0.5 7t-0.5 8q0 2 -0.5 6t-0.5 7q0 8 0.5 25t0.5 26q1 1 2.5 4.5t2.5 4.5q1 9 6 22t6 21q2 2 6 8q0 1 5 14q1 2 3.5 8t4.5 8q3 4 7 4l12 18q4 2 12 8q1 1 3 3.5t3 3.5q3 0 8.5 3t9.5 3q17 1 28 -11z" />
    <glyph glyph-name="parenright" unicode=")" horiz-adv-x="244" 
d="M35 -7q7 2 15 0q1 -1 2 -4.5t2 -4.5q10 0 12 -6q0 -1 -1.5 -2.5t-0.5 -3.5q2 -2 7 0.5t7 2.5h7.5t8.5 1q2 1 4 3l3 3q3 0 6.5 2.5t5.5 2.5q3 3 5 6l2 1h2q2 2 13 11t15 15v4l6 6q2 6 9 16.5t9 18.5l6 6q-3 13 6 18q0 8 2.5 25t3.5 28l3 6q-1 3 0.5 10.5t1.5 9.5q0 1 -1 4
t-1 4q0 32 -3 36q0 16 -6 27q1 6 -3 12.5t-4 9.5q-1 2 -3 4t-2 3q0 12 -12 24q-2 8 -7 13t-13.5 10.5t-11.5 8.5h-9q-2 0 -4.5 -2.5t-4.5 -2.5t-7 4t-7 4q0 6 2 9.5t7.5 6.5t6.5 4h16q1 0 8.5 -3.5t14.5 -1.5l9 -6t10 -7t7 -7q1 -2 1 -5q1 -3 5.5 -6.5t5.5 -5.5q0 -3 1 -5
l6 -12q2 -2 5.5 -7.5t4.5 -6.5q0 -8 3 -19.5t3 -18.5q2 -3 6 -7q1 -5 3.5 -16.5t3 -17.5t-0.5 -19q0 -1 -2 -4t-2 -4q0 -11 -1 -16v-21.5t-1 -20.5q0 -1 -2.5 -4.5t-3.5 -5.5q-2 -10 -3 -16q-1 -3 -2 -8.5t-1 -8.5q-1 -3 -5 -8t-5 -8q0 -1 -1 -3l-1 -2l-5 -10q-1 -1 -3 -2
t-2 -2q0 -3 -3 -7t-3 -7q-3 -3 -12 -15t-17 -17q-5 -8 -14.5 -17t-22.5 -11q-2 -2 -6 -4q-2 -2 -4 -3q-2 0 -4.5 -2t-5.5 -3h-8l-16 -4q-2 0 -5.5 1t-4.5 1t-2.5 -0.5t-2.5 -0.5l-12 3q-4 4 -7 6q-3 0 -6 1q-17 10 -7 21q5 2 11 11q0 6 1 8z" />
    <glyph glyph-name="asterisk" unicode="*" horiz-adv-x="344" 
d="M258 352q4 -1 4.5 -7t-2.5 -9q2 -8 1 -11q-1 -2 -3 -4.5t-2 -3.5q-1 -4 -1 -10.5v-11.5q-9 -14 -9 -33q6 0 11 6t7 7q5 -1 22 5q2 1 6.5 0t5.5 -1q12 -6 15 -14q0 -3 0.5 -8.5t0.5 -8.5q-5 -2 -7.5 -1.5t-6.5 3.5t-6 4q-6 -2 -12.5 -8t-10.5 -7q-3 -3 -5 -7
q-3 -3 -16 -15t-17 -21q5 -3 12.5 0.5t10.5 3.5q2 0 7 2.5t8 3.5h31q18 0 23 -4q1 -1 1 -5q-3 -4 -14 -6q-5 -3 -19 -5.5t-19 -4.5q-11 -6 -15 -5q-1 0 -7 -6q-5 1 -10 -2t-7 -3q-8 1 -15.5 -5.5t-11.5 -7.5q-1 -2 -7 -7t-7 -8q0 -2 1 -5q2 -4 2 -6v-16q0 -2 1.5 -6t2.5 -7
q1 -2 1.5 -8t1.5 -10t4 -6q2 -17 6 -22v-12q1 -2 3 -4l3 -3q1 -3 1 -10v-11q1 -2 3 -3.5t2 -3.5q0 -4 3 -13.5t3.5 -14t-2.5 -12.5q-5 0 -14 7q1 4 -4 8q-2 2 -2 3v2.5t-1 1.5q-1 1 -3 3.5t-3 4.5q0 4 -3 10.5t-3 11.5q-7 13 -6 18q-6 11 -5 16q-1 2 -3 4.5t-2 3.5
q-1 3 -2 10.5t-2.5 12t-5.5 5.5q-1 0 -4 -9q-1 -2 -3 -4.5t-2 -3.5v-11q0 -1 -2 -3t-3 -4q0 -4 -3.5 -12.5t-3.5 -14.5q-4 -4 -4 -6q-1 -3 -1 -8l-6 -6q1 -8 -5 -18q0 -7 -3 -16.5t-3 -11.5q-5 -8 -9 -8q-5 0 -9 12q0 14 3 24q4 14 3 18q6 8 6 14q0 1 2 3.5t2 4.5q2 2 2 8.5
t1 8.5q0 1 2 3.5t2 4.5q0 3 1 6q0 2 3.5 8.5t-0.5 8.5q-3 0 -5 -3.5t-4 -4.5q-1 -3 -6 -8q-2 -4 -5 -8q0 -1 -1 -2v-2l-3 -3t-3 -4q0 -3 -3.5 -8t-4.5 -8q-1 -2 -7 -6l-2 -6q-19 -15 -27 -37q0 -11 -1 -16q-1 -1 -3.5 -2.5t-3.5 -2.5l-3 -8q-1 -1 -3 -1q-1 -1 -2 -1
q-1 -1 -3.5 -3t-3.5 -2t-5 -2t-5 -2q-8 0 -13 7q-3 3 -3 10q1 1 3 4t2 4q0 3 1 5q3 3 8 11t9 11q2 8 7.5 14t10.5 11v5q3 3 8.5 9.5t7.5 8.5t2 4q1 2 5 6t5 6q2 2 4 6.5t3 6.5t3 3.5t2 2.5q11 18 17 21q1 2 4 6.5t3 8.5q-2 1 -4.5 -1.5t-3.5 -2.5q-5 -1 -8 -6
q-2 0 -4.5 -0.5t-3.5 -0.5q-6 -5 -37 -5q-2 1 -4 3t-3 2q-5 0 -7 2q-5 6 -2 13t9 9q26 -2 36 5q1 0 2.5 0.5t2.5 0.5q6 7 35 18q2 1 3.5 3t2.5 2q2 0 13 5q7 2 8 3q1 7 -1 23q-1 2 -3 4t-3 4v10l-4 8q0 6 -4 14t-4 12q-8 8 -14 9q-15 18 -5 28q1 0 11 8q10 2 16 -1
q8 -6 9 -10l3 -6q0 -2 2 -4t2 -3v-12q0 -1 2.5 -3.5t3.5 -4.5v-5q1 -2 3 -4l3 -3v-10q1 -2 3 -5.5t2 -4.5l1 -9q0 -8 2 -8t5 12q1 2 2.5 4.5t1.5 3.5q0 4 1 6q3 3 5.5 11.5t4.5 11.5q0 6 3.5 12t3.5 11q1 2 3 4t2 3q0 7 4 14.5t4 11.5q0 2 2 5t2 4q-1 7 2.5 15.5t4.5 11.5
q1 5 5 8q0 9 8 19q8 2 12 2zM140 78q2 -1 3.5 0.5t0.5 3.5q-2 3 -4 1t0 -5z" />
    <glyph glyph-name="plus" unicode="+" horiz-adv-x="244" 
d="M129 102q5 1 14.5 1h14.5q2 0 7 2t7 2q8 2 27 2q1 0 5 2q20 7 22 -4q0 -3 -3 -6q-2 -1 -3 -3q-20 -9 -30 -9q-24 -10 -43 -10q-3 0 -11 1t-12 0q-3 -3 -4.5 -11.5t-2.5 -10.5l-6 -36q0 -3 -0.5 -11t-1.5 -13l-2 -4l-2 -4v-21q0 -25 -3 -27q-2 -3 -6.5 -2.5t-6.5 2.5
q-1 0 -3 7q0 1 -2 3t-3 4q1 9 0.5 25.5t-0.5 24.5q1 4 3 11t2 9q1 12 1 32q6 12 5 14t-13 2q-1 0 -3.5 1.5t-3.5 1.5h-5q-20 3 -23 3l-3 -2q-3 -2 -4 -2q-5 0 -7 6q-6 4 -7 5q-1 2 -2.5 6t-2.5 6q2 9 24 13q15 -5 22 -5q3 -1 9.5 0t8.5 1q1 0 4.5 -3t6.5 -2q4 1 5.5 5
t1.5 11v9t1 5.5t1 4.5q0 7 -2.5 22.5t-2.5 23.5q0 4 1.5 14.5t-0.5 13.5q0 2 -3.5 5t-3.5 4t3 10q12 12 18 17l1 1q7 1 12 -7l3 -3q0 -7 -1 -33.5t0 -42.5q2 -31 0 -45q-3 -13 2 -16z" />
    <glyph glyph-name="comma" unicode="," horiz-adv-x="74" 
d="M34 30q2 -10 4 -11h7q4 -1 6 -8q0 -1 -0.5 -2.5t-0.5 -2.5q1 -4 8 -13v-32q0 -2 -2 -5t-2 -5q-1 -2 -2.5 -8t-3.5 -8q0 -1 -0.5 -3t-0.5 -3q-6 -9 -6 -11q-1 -1 -3 -2.5t-3 -2.5q-1 -6 -6 -12.5t-5 -11.5q-9 -14 -22 -25l-11 -8q-3 0 -8.5 -3t-8.5 -2t-7.5 4t-6.5 4v18
q3 3 10.5 8l10.5 7q4 0 7 1.5t6 4.5t5 4q0 2 2 4q4 4 8.5 12t8.5 11q0 2 5 13q0 1 0.5 6.5t1.5 7.5q11 22 3 39q0 1 -2 3q0 1 -1 3q-1 1 -1 2q0 2 -1 2q0 1 -2.5 2.5t-2.5 2.5v12q11 11 16 8z" />
    <glyph glyph-name="hyphen" unicode="-" horiz-adv-x="245" 
d="M192 113v1l36 -6q6 -2 5 -8.5t-6 -8.5q-5 0 -14.5 -3t-14.5 -3h-18q-2 -1 -5 -3t-4 -2q-3 -1 -18 -1h-88q-15 6 -18 6q-1 -1 -3.5 -3t-4.5 -3q-4 -1 -8.5 3t-8.5 4q-5 5 -4 11.5t6 9.5q20 0 22 -1q2 0 4.5 2t3.5 2h25q2 0 7 -1t8 -1h21q13 -4 17 -3q4 0 12 2
q6 2 18.5 1.5t19.5 0.5q2 0 4.5 1.5t4.5 2.5h1z" />
    <glyph glyph-name="period" unicode="." horiz-adv-x="284" 
d="M70 13q4 1 11.5 4.5t12.5 4.5q2 2 6 5.5t6 5.5q19 3 22 -3q2 -10 -3 -18l-5 -5q-16 -21 -17 -22q-2 -6 -5 -9q0 -1 -0.5 -2.5t-1.5 -2.5q-6 -5 -16 -15.5t-16 -15.5q-12 -2 -16 -2q-10 -4 -18 -4q-7 4 -12 15q2 4 4 14q5 13 5 15q6 12 22 23q1 7 8 12t13 0z" />
    <glyph glyph-name="slash" unicode="/" horiz-adv-x="352" 
d="M330 365q6 -4 3 -18l-5 -5v-2q-1 -2 -2 -2q0 -1 -2 -2t-2 -2q0 -3 -1 -4l-4 -4q0 -1 -0.5 -2.5t-1.5 -2.5t-3 -2l-1 -1l-7 -7q0 -3 -3 -7t-3 -6q-3 -3 -8 -11t-8 -11q-4 -10 -12 -18v-4l-1 -1q-4 -4 -11.5 -13.5t-10.5 -13.5q-1 -1 -1 -4q-4 -4 -5 -6l-1 -2v-2
q-5 -5 -13.5 -17t-14.5 -17q-1 -3 -6 -9t-7 -11q-2 -2 -6 -6.5t-5 -5.5q0 -4 -1 -4q-1 -2 -3 -3.5t-2 -2.5v-5q-6 -6 -14 -18q-6 -3 -10 -8.5t-9 -15t-7 -12.5q-15 -7 -18 -22q-1 -1 -8.5 -11.5t-9.5 -17.5l-1 -2q-1 -2 -2 -2q-3 -1 -7 -3l-6 -3l-6 -9v-2q-1 -2 -1 -3
q-2 -2 -6 -9l-5 -5v-4t-1 -4q-1 -8 -10 -17l-2 -4q-5 -4 -13 -11.5t-13 -11.5q-10 -2 -11 2q-5 4 -3 24q16 19 23 35q10 8 12 16l12 12q3 11 12 17q4 8 14.5 21.5t14.5 21.5q2 1 7 8q0 1 2 2l2 1v4l12 12q0 2 1 4t3.5 5t3.5 4q8 7 8 9l1 2l1 2q1 1 5.5 6t5.5 9q2 2 5.5 6.5
t5.5 6.5q0 4 3 8.5t3 7.5q2 1 8 7.5t10 8.5q2 7 8.5 16.5t8.5 14.5q1 2 8.5 9t9.5 13q2 2 5 6.5t6 6.5q2 8 11 17q2 6 9.5 14.5t9.5 14.5q4 4 11 18q6 5 16 18.5t17 18.5q8 2 16 0z" />
    <glyph glyph-name="zero" unicode="0" horiz-adv-x="353" 
d="M270 207q0 -1 23 -29v-4q1 -2 5 -9q2 -9 -2.5 -22t-3.5 -21q-1 -2 -3 -4l-3 -3q-9 -22 -16 -28q-4 -9 -15 -18q-2 -2 -6.5 -7t-6.5 -7q-5 -2 -5 -3q-12 -10 -19 -20q-5 -2 -13 -7.5t-11 -6.5q-2 -1 -5 -4q-1 0 -4 -0.5t-4 -1.5q-1 0 -5 -3t-7 -3q-2 0 -4 -2q-2 -3 -3 -3
l-14 -7q-1 0 -3 -2t-3 -2h-35q-1 0 -4 -1t-5 -1q-2 2 -6 2h-17l-9 -9v-3l-1 -1q-3 -5 -8 -10.5t-11 -11.5l-9 -9q0 -4 -2 -8.5t-1 -8.5q-3 -5 -13 -3q-2 2 -2 26l6 6v5q2 2 8 8.5t9 10.5v2q0 2 1 2q1 3 6 8t6 9q5 7 5 8q0 2 -3 5t-3 5v41q7 11 6 23q3 3 6 9.5t5 9.5
q0 4 3.5 10.5t3.5 11.5q0 2 2 4l3 3q-1 6 3 13t4 11q1 2 4 5q7 8 8 15q0 1 2 3t2 3q4 8 -2 10q-2 0 -9 -7q-4 -8 -5 -8q0 -3 -2 -5q-1 -1 -4.5 -5t-5.5 -6q-7 -9 -10 -10q-4 3 -2.5 9t5.5 9q1 2 1 7q6 6 6 11q2 3 6.5 8t6.5 8q2 2 6.5 5t7.5 6t5 6q2 0 3.5 0.5t2.5 0.5
q12 12 22 12q2 0 4 2l3 3q4 0 20 4t28 3q0 -1 1 -1l2 -1q3 -2 5 -3t9 -1t9 -1q5 -1 8 -5q7 -2 22 -10q9 3 10 9q8 4 15 9.5t15 13.5l12 12q3 1 9.5 5t12.5 6t13 0q7 -5 -2 -13l-2 -2t-4 -3t-4 -3q-1 0 -2 -0.5t-2 -0.5l-4 -4q-6 -5 -6 -11q-14 -11 -16 -12l-2 -1l-2 -1
q-3 -1 -4 -4q-8 -6 -10 -9q-2 -2 -6 -8zM204 222q-2 1 -16 1q-2 0 -9 0.5t-8 -1.5q-6 -11 -6 -13l-7.5 -7.5t-8.5 -7.5q-3 0 -7 -4v-5q-8 -10 -15 -11q-1 -1 -4 -6t-5 -7q1 -4 -2 -9l-3 -5l-6 -12q0 -6 -3 -14t-4 -11q-4 -4 -6 -7v-12q0 -2 -3 -7t-3 -10l-4 -8q-2 -6 -1 -10
q-6 -16 -2 -22q1 0 3.5 2t3.5 2q14 21 18 25v6q5 5 15 13q2 4 4 5q1 2 5 4q0 3 1 5q8 11 20 18q3 3 3 6q5 3 8 8q1 1 2 2.5t2 2.5q1 3 6 5l12 12l13 13q17 17 22 19l4 4t4 5t5 8t4 10q-1 1 -5 1.5t-5 0.5l-6 6q-8 -1 -16 5zM162 30q1 1 5 1q8 8 19 11q1 1 2 3t3 3
q1 0 2.5 0.5t2.5 0.5q24 21 25 22q2 0 4 1q3 2 7 6.5t7 6.5q2 3 6 7.5t5 6.5q2 4 2 5l6 6v10q6 6 12.5 16.5t3.5 23.5q-1 2 -2.5 6.5t-2.5 6.5l-4 4q-2 2 -3 4l-1 1l-2 2q-3 6 -5 6q-5 -2 -10 -8.5t-5 -13.5q-17 -14 -20 -15q-3 -4 -10 -10t-9 -9q-1 0 -1 -1l-1 -2
l-5.5 -5.5l-4.5 -4.5q-6 -10 -10 -13q-6 -2 -8 -4v-6q-2 -2 -4 -5t-4 -4l-5 -3q-4 -3 -16 -17.5t-21 -19.5q-6 -9 -7 -11l-1 -2v-2q-2 -3 -9 -8.5t-9 -10.5q0 -3 8.5 -2t10.5 1l30 6q1 1 3 2.5t4 2.5h6q1 0 2.5 2.5t3.5 2.5z" />
    <glyph glyph-name="one" unicode="1" horiz-adv-x="101" 
d="M82 262q0 -20 4 -28l-2 -2q-2 -3 -2 -5q1 -5 -2 -12.5t-3 -8.5q-1 -2 -2 -4.5t-1 -3.5q0 -2 -1.5 -4.5t-1.5 -3.5q-1 -3 -1 -9.5v-9.5q0 -2 -2 -4.5t-3 -4.5q0 -6 -5 -44q0 -5 -1 -14.5t-1 -15.5q-3 -4 -5 -33q0 -1 2.5 -4t2.5 -6v-8q0 -2 1 -4t1 -3q1 -2 -0.5 -7
t-1.5 -7q0 -10 -1 -14q0 -2 -1.5 -4t-1.5 -4v-5t-1 -5q-3 -10 -11 -14q-11 -5 -24 14v21q0 1 1.5 4l2.5 5q0 2 -0.5 5.5t-0.5 5.5q0 11 2 31q0 17 4 22q1 4 2 17t4 18q1 6 1.5 17.5t1.5 17.5q1 4 3 10l3 21q0 2 2 9t2 10q-1 3 -4 6.5t-3 5.5q2 11 2 36q1 1 4 8t7 10
q-1 8 6.5 13t14.5 0q1 -1 2 -3.5t2 -3.5q1 -2 3 -5z" />
    <glyph glyph-name="two" unicode="2" horiz-adv-x="265" 
d="M120 46q2 -7 16 0q4 0 6.5 -2.5t5 -6t5.5 -5.5q9 -1 28 -1q1 0 3 -2.5t4 -2.5q3 0 37 -6q7 0 10.5 -0.5t7.5 -2.5t4 -6q0 -1 -7 -5q-2 0 -8 -3h-17q-16 0 -25 -1h-13q-2 0 -4.5 2t-3.5 2q-9 2 -25.5 1.5t-25.5 0.5q-5 3 -7 4q-3 -1 -6.5 0t-5.5 1q-3 -1 -7.5 -5.5
t-7.5 -5.5l-12 -6l-19 -17q-3 0 -5 -1q-1 0 -2.5 -2t-3.5 -3h-18q-6 8 -6 14t4.5 13t5.5 11q1 0 5 4t9 5q2 3 10 8q2 2 4 2q2 1 6.5 1.5t6.5 1.5q1 0 5.5 2.5t7.5 2.5q12 10 15 14q1 6 6 12t6 11q5 5 11.5 17.5t10.5 17.5l6 12q0 3 2 10.5t3 11.5q0 2 1 7q1 10 -5 14
q0 7 -7 21q-5 6 -13 10q-2 2 -8 4.5t-9 5.5q-6 0 -12.5 4.5t-10.5 5.5l-4 -2q-5 -3 -9 -2q-2 -1 -5 -4l-2 -4q-14 -6 -21 -4q-8 6 -9 13q0 2 3 6t3 7q6 4 9 5q4 8 11 15q6 0 14 4q5 1 16 -8q2 -1 5 -1.5t5 -0.5q1 0 3.5 -2t3.5 -3t4 -1h4q4 -2 10.5 -6t10.5 -6q2 -3 12 -10
t13 -14l2 -4q0 -1 1.5 -3.5t2.5 -4.5v-12q0 -4 2 -13t1 -12q0 -2 -2 -7q-1 -2 -1 -4q-2 -23 -5 -25q0 -1 -0.5 -4t-0.5 -5q-1 -1 -3 -3.5t-2 -3.5q-1 -9 -12 -22q-2 -7 -9 -16t-9 -13z" />
    <glyph glyph-name="three" unicode="3" horiz-adv-x="276" 
d="M184 157v-4.5t1 -2.5q1 -3 8 -3h5q1 0 3 -2t4 -3h2q2 -1 3 -1q7 -5 12 -6l24 -20q2 -3 6.5 -8.5t6.5 -9.5q2 -9 -5 -33q-2 -1 -5 -5.5t-6 -6.5q-3 -8 -13.5 -20t-13.5 -18q-7 -3 -16 -12t-13 -12q-5 -1 -11.5 -6t-10.5 -6q-4 -4 -14.5 -10.5t-15.5 -11.5q-1 -1 -5 -1
q-10 -11 -30 -17q-1 0 -3.5 -2t-3.5 -3q-7 -1 -20 -1l-9 -6q-3 0 -18 -0.5t-17 1.5q-4 1 -8 6.5t-4 9.5q-1 3 2 8t3 7v23q6 7 15 15q14 0 18 5q4 1 9.5 4t6.5 3q2 -1 11.5 0.5t10.5 -2.5q-1 -4 -5 -6t-8 -3q-14 -12 -18 -21q-6 -4 -10 -10q-6 -10 -6 -12q1 -4 8 -4q2 0 4 2
q2 3 3 3q2 1 6.5 1t6.5 1t5.5 2.5t4.5 1.5q5 -1 10.5 3t9.5 4l12 6q14 9 18 11q10 10 12 11q4 0 5 1q2 2 5.5 4t5.5 3l3 3q1 1 2 1h3q3 2 8 8.5t8 8.5l6 3l5 7l2 2t2 1t1 2l1 2l4 4l1 2q1 2 2 2q1 2 4.5 4.5t3.5 3.5v2.5t1 2.5l3 3t3 4q-1 4 6 11v10q-4 6 -12 11q-2 4 -4 4
q-3 0 -5 1t-6 5q-4 2 -5 2q-4 4 -12 4q-2 2 -8.5 5.5t-8.5 6.5q-9 1 -19.5 -2.5t-14.5 -3.5h-10q-19 -2 -23 2q-1 4 -1 12q6 8 10 9q8 -1 15 3t12 4q6 3 14.5 11.5t11.5 10.5q1 0 2 0.5t2 0.5q15 12 23 25q1 1 4 3.5t5 4.5q0 3 3 6.5t4 5.5q-7 17 -38 19l-8 4h-16
q-4 0 -11 -2.5t-11 -1.5q-4 0 -11 3q-4 -2 -12.5 -3.5t-10.5 -1.5q-2 -1 -6 -2.5t-6 -2.5q-4 -2 -11 -12q-7 -2 -9 -5q-2 2 -12 7q-3 7 -2 14q5 6 18.5 15t15.5 10q3 0 10 7q13 -1 26 2q2 0 6 -1t7 -1q2 0 4.5 2t3.5 3q9 3 19 -5q6 -1 18.5 0t16.5 -1q13 -6 16 -6l3 -3t3 -2
q8 0 12.5 -3.5t8 -12t5.5 -10.5q0 -18 -5 -22q-2 -2 -2 -5q-18 -23 -21 -25q-3 -6 -11 -14q-2 0 -14 -9zM58 216z" />
    <glyph glyph-name="four" unicode="4" horiz-adv-x="284" 
d="M269 278q-1 -8 -10.5 -18.5t-10.5 -20.5l-5 -5q-1 -3 -1 -6q-5 -5 -6 -12q-9 -12 -11 -13v-10q-7 -11 -6 -18q-6 -11 -6 -13q-3 -2 -6.5 -7t-4.5 -6q1 -9 -6 -16q1 -4 -6 -13q2 -14 -4 -19q-1 -5 -7 -14.5t-6 -17.5l-3 -3l-3 -3l-6 -12v-9q0 -1 -3 -5.5t-3 -8.5
q-4 -4 -9 -13t-8 -13q0 -3 -3.5 -8.5t-2.5 -11.5l-6 -6q1 -5 -2.5 -10t-3.5 -8q0 -1 -2 -3l-3 -3v-5q-1 -1 -3.5 -3t-2.5 -3v-6l-5 -5q-4 -8 -9 -8q-1 0 -9 8v14q7 11 6 15q0 1 2 3q2 1 3 3t1 7.5v7.5q1 2 3 4t2 3q0 4 1 6q2 5 10 15q0 3 4 9t3 12q2 4 5 7q0 5 4 12t4 10
q-2 3 -6.5 3t-11 -1.5t-9.5 -1.5q-1 0 -3 -1.5t-4 -2.5q-17 0 -23 1l-8 4q-3 1 -11 1.5t-10 0.5q-1 0 -4.5 2.5t-6.5 2.5q-6 3 -12 14.5t-8 13.5q-2 16 1 28q0 3 2 7.5t2 8.5q1 2 3 4.5t2 3.5q0 5 1.5 9t5.5 8.5t5 5.5q0 3 1 5q21 21 26 25q21 3 26 -1v-8l-7.5 -7.5
t-9.5 -7.5q-4 -3 -9.5 -12t-8.5 -12l-6 -12v-12q-1 -1 -3.5 -3t-2.5 -3q1 -4 1 -11.5v-10.5q1 -3 7 -5t7 -4q4 0 6 -1q1 -1 3 -2t3 -2q30 -4 46 1q5 -1 12.5 1.5t11.5 2.5q2 1 6.5 3.5t6.5 4.5q-1 7 6 16q1 2 1 6q1 2 2.5 4t1.5 3q0 2 6 14q0 1 0.5 3.5t1.5 3.5q0 1 3 5t2 8
q1 2 3 4.5t3 3.5v9q0 1 3 4.5t2 7.5q1 2 6 6.5t6 7.5v8q0 2 2 4l3 3t1 2.5t1 2.5l2 2q2 2 2 4q1 2 1 6q0 2 2.5 4.5t2.5 3.5q0 3 1 5q3 5 11 13t11 12q2 0 4 2q1 0 2 2t2 3q4 3 10.5 2t8.5 -5z" />
    <glyph glyph-name="five" unicode="5" horiz-adv-x="300" 
d="M282 254q0 -4 -4 -8h-6q-1 0 -8 -5q-3 0 -10 0.5t-11 -0.5q-10 -2 -13 -2q-6 2 -9 2q-4 -1 -9 -6h-67l-9 -3t-10 -3q-12 0 -15 -3q0 -1 -0.5 -6t-1.5 -7q-4 -2 -17 -1t-16 -2v-7l-12 -18q-8 -5 -11 -11q0 -6 -3.5 -12.5t-1.5 -11.5q6 -4 15 -8h43q12 0 16 1q1 1 6 3t8 3
h6q2 1 4.5 2.5t3.5 1.5q14 0 18 5q30 4 49 0q2 -2 10 -12q1 -9 4 -14q0 -25 -21 -46q1 -6 -3 -12t-5 -9q-2 -2 -12 -10.5t-15 -14.5q0 -1 -0.5 -2.5t-0.5 -2.5q-3 -3 -9 -9.5t-9 -9.5q-7 -7 -25 -21l-7 -5q-2 -2 -2 -4q-5 -2 -5 -3q-3 -1 -3 -3l-4 -2q-2 0 -4.5 -2t-4.5 -3
l-23 -23h-4q-2 0 -4 -2q-2 -3 -3 -3q-1 -1 -2 -1h-2l-6 -6q-7 -2 -19 0q-7 5 -8 9q-1 6 3 12t3 12q1 1 6 22q0 1 2 3l3 3q0 4 1 6q1 3 5 7l5 5t1 2q1 2 1 3q2 2 2 3q6 8 18 17q2 0 4 2t6.5 5t6.5 5q13 3 15 -3q0 -7 -5 -12q-3 -1 -7 -4.5t-6 -4.5l-1 -2q-1 -3 -2 -5
q-4 -7 -9 -13q-5 -5 -8 -9q-7 -11 -2 -16q4 -1 7 2.5t6 3.5q7 7 10 11q5 2 16 10q2 1 5.5 4.5l4.5 4.5q5 6 11 10q6 6 10 8q17 17 26 25q0 1 1 3t1 3l2 2l2 2q1 2 3.5 6.5t4.5 6.5q0 2 2 3.5t2 2.5l12 18q0 3 2.5 6.5t2.5 4.5q0 10 -1 12q0 2 -5 2.5t-10 -1.5q-4 -2 -6 -4
q-3 -1 -9.5 -1.5t-9.5 -1.5q-4 -2 -7 -3q-2 0 -5.5 -0.5t-4.5 -0.5q-2 -1 -4.5 -3t-3.5 -2q-7 0 -17 -6q-7 0 -29.5 -1t-28.5 1q-2 1 -4 3.5t-3 2.5q-12 -2 -15 5q-4 1 -15 10q-1 5 -6 12q-1 5 1 11l3 6q1 1 1 5v5t3.5 5t2.5 7q0 2 2 5l3 2q-1 3 1.5 9t2.5 8v10q1 4 4 6
t7.5 4.5t6.5 4.5l5 10q2 2 17 2q2 0 3.5 2.5t3.5 3.5h10l6 6q7 0 25 2.5t29 2.5q5 0 16.5 -0.5t17.5 -0.5q2 0 5 1t4 1h34q17 1 37 -2q1 -2 5.5 -3.5t6.5 -4.5z" />
    <glyph glyph-name="six" unicode="6" horiz-adv-x="232" 
d="M48 74q6 0 10 6q2 1 3.5 3.5t3.5 3.5q5 -1 8.5 3t7.5 4q15 14 27 22q4 1 17 0.5t17 1.5q4 -2 14.5 -2t15.5 -1q2 0 5 -2.5t5 -2.5l2 -2l2 -2q4 -2 5 -1q3 -6 15 -15q1 -4 7 -12v-34q-1 -5 -5 -8q-1 -7 -7 -16.5t-7 -11.5q-10 -5 -10 -10q-13 -15 -39 -32h-6t-6 -1l-9 -6
q-13 -1 -26 5q-3 0 -10 1t-11 1q-1 0 -4.5 2.5t-6.5 2.5q-2 2 -19 12q-7 7 -10 11q-1 0 -2.5 0.5t-2.5 0.5q-2 2 -5 7t-5 7v21l-4 21q-5 21 0 22v15q0 2 1.5 4.5t1.5 3.5v10.5t1 11.5l5 8q-1 7 6 16v6t1 6q0 2 2 4t2 3t0.5 3.5t1.5 4.5q2 2 3 4q1 1 2 5q3 4 5 5q0 4 1 6
q1 1 3 2.5t2 2.5t0.5 2.5t1.5 2.5q6 10 20 26q1 1 1 2q1 2 1 3q2 1 6 7l2 1q2 1 2 2q1 1 3 5l3 3q0 1 0.5 2.5t1.5 2.5q0 1 3.5 4t4.5 5h4q7 5 20 18q1 1 3 4q2 2 4 2q4 4 5 4q5 2 9.5 -2t3.5 -10q-1 -1 -3.5 -5t-3.5 -7q-5 -7 -5 -8q-28 -30 -29 -33q-4 -5 -9 -10
t-10.5 -11.5t-8.5 -9.5q0 -4 -3 -9q-2 -2 -2 -3t-0.5 -4t-1.5 -4q-1 -2 -3 -3.5t-2 -2.5q0 -4 -1 -6l-4 -4q0 -1 -0.5 -4t-1.5 -4l-4 -4q-5 -10 -6 -11q0 -6 -4 -15t-3 -18q0 -1 -2 -3t-2 -3v-10.5t2 -11.5zM162 91q-6 2 -20.5 1.5t-23.5 0.5q-1 -2 -4.5 -4t-4.5 -3l-5 -4
q-4 0 -6 -1t-5 -5t-5 -5q-5 -5 -7 -6q-4 -2 -5 -3l-3 -3q-2 -4 -3 -5q-4 -2 -7 -4q-4 -9 -12 -19v-8q7 -7 11 -12q10 -12 20 -11l12 -12q25 -2 59 12q4 6 9 7q3 4 9 11t7 8l1 2l1 2q2 2 3.5 6t2.5 6q0 1 3 4q1 4 0.5 12.5t0.5 12.5q-3 5 -16 16q-3 -1 -7 1.5t-5 2.5z" />
    <glyph glyph-name="seven" unicode="7" horiz-adv-x="252" 
d="M190 249q-2 -1 -4.5 -3t-3.5 -3q-1 0 -3.5 -0.5t-4.5 -0.5q-1 0 -3.5 -2t-4.5 -3q-4 -1 -16 -1q-6 -3 -21.5 -5t-21.5 -5h-8.5t-7.5 -1q-4 -3 -10 -4t-14 -1t-12 -1q-8 -5 -15 -6q-2 0 -4 -2.5t-4 -2.5q-4 0 -9.5 7t-4.5 13q0 1 7 8q2 0 4.5 1.5t4.5 2.5t7 2t6 1l9 6h30
q2 1 4 3q2 1 3 2h15t16 1q12 6 30 6q15 5 18 5l6 6q4 -1 8.5 2t5.5 3q4 1 12.5 0.5t13.5 0.5q5 -3 10.5 -8t5.5 -12q1 -4 0 -12t-1 -11l-6 -6q0 -3 -1 -5q0 -1 -4 -5q0 -3 -1 -5q-5 -5 -6 -8q-1 -2 -3.5 -5t-3.5 -5l-4 -10l-5 -5q-1 -1 -2.5 -5.5t-2.5 -5.5v-3t-1 -3
q-2 -3 -8 -11.5t-9 -12.5q0 -1 -0.5 -2.5t-0.5 -2.5q-3 -3 -8 -11.5t-9 -12.5v-5q-8 -8 -12 -11v-6q-22 -27 -24 -31q-4 -2 -4 -3q-2 -4 -1 -6q-15 -17 -18 -25l-5 -5q-1 -5 -6 -11.5t-6 -11.5q-2 -2 -9.5 -13.5t-13.5 -16.5q0 -4 -1 -5q0 -1 -2 -3l-3 -3q-1 -4 1 -9
q2 -4 2 -6q-6 -13 -19 -10q-13 10 -12 17q1 2 4 7q1 2 1 6q7 7 6 12q2 2 5.5 6.5t5.5 6.5v5q4 4 9 12.5t8 11.5q-1 5 5 13q6 9 7 10q2 7 18 23v5q1 2 3 4t2 3t0.5 2t0.5 2q5 7 29 36q2 8 16 24q1 4 4 8.5t3 7.5q3 4 13 19t16 23q0 4 1 4q0 1 2.5 5t2.5 7l6 6q0 4 1 6l4 4
q3 7 7 14l3 6q-1 6 -13 4q-3 -1 -5 -1z" />
    <glyph glyph-name="eight" unicode="8" horiz-adv-x="249" 
d="M172 280q6 -4 11 -5q1 0 3.5 -2.5t4.5 -2.5h10q2 -2 12.5 -9t12.5 -13q0 -5 3 -11l3 -6q0 -3 -3 -7.5t-3 -9.5q-4 -9 -5 -12q-4 -5 -9 -10t-12.5 -11.5t-11.5 -9.5q-1 0 -2 -1h-2l-11 -11h-6q-6 -5 -17 -20q0 -1 -2 -3.5t-2 -3.5q-1 -4 2.5 -8.5t3.5 -7.5q13 -17 11 -30
q4 -4 5 -7t-1 -7.5t-2 -6.5t0.5 -6t0.5 -6q0 -4 -2 -10t-2 -9q-9 -15 -39 -37q-3 0 -8 -4t-11 -3q-2 0 -4.5 -2.5t-3.5 -2.5q-16 -2 -31 0h-13q-2 0 -6 3.5t-7 2.5q-2 2 -5.5 4.5t-6 5t-3.5 5.5l-6 12q-1 10 4 17q0 4 4 9l4 6v7q0 1 3 5t2 8q4 2 8 9t7 9l4 2q2 1 9 8t12 9
q3 3 5 4l4 2q2 1 5 4l5 5l10 10l6 6q1 2 -2 6l-2 5q-6 4 -8 9l-4 4l-1 2l-1 2l-21 24q-1 2 -3.5 5t-3.5 6q-2 3 -6 7t-5 6q-1 1 -1 4q-5 7 -5 8v16q6 8 11 11q4 6 15 17h5q5 4 25 6q2 0 7 2t7 2q4 1 27 1q9 1 28 -1zM70 232q0 -2 4 -5t3 -6q18 -21 22 -30q3 -1 7 -7
q2 -1 4.5 -5t4.5 -5q16 -19 18 -20h3q17 15 20 16q1 0 2 0.5t2 0.5q21 21 27 32l11 11q8 12 5 23q-1 1 -4.5 4t-5.5 5q-5 0 -7 1q-5 5 -37 7q-7 5 -22 3q-3 -2 -9 -5q-12 0 -13 -2t1 -4t2 -4q-2 -2 -5.5 -2.5t-9.5 -0.5h-9q-2 -1 -5 -1q-9 -2 -9 -6zM125 118q-11 -9 -18 -12
q-1 0 -2 -2l-1 -2q-2 -1 -4 -3q-4 -4 -26 -22q-5 -4 -11 -14q-8 -11 -9 -13q0 -2 -3.5 -6t-3.5 -6v-20q4 -5 10 -9q5 -1 44 -1q1 0 4 3t7 3q18 14 26 27q2 5 8 11q0 18 -1 28q-2 3 -5.5 9.5t-5.5 9.5q0 4 -3 8q-1 2 -1 3q-2 8 -5 8z" />
    <glyph glyph-name="nine" unicode="9" horiz-adv-x="220" 
d="M166 242q2 2 4.5 6t3.5 5q0 4 1.5 7.5t4 7t3.5 5.5q7 1 9 1t6.5 -4t5.5 -5v-15q0 -1 -2.5 -3.5t-3.5 -4.5v-6q-6 -12 -6 -13q-1 -1 -2.5 -3.5t-2.5 -3.5q-1 -2 -1 -6l-2 -2q-2 -3 -2 -5q-1 -3 -3.5 -8l-3.5 -7q0 -10 -1 -16q0 -2 -2 -3t-2 -3q-1 -2 -1 -7l-3 -3t-3 -4v-7
t-1 -6q0 -2 -2 -5q-2 -1 -2 -2q-1 -2 -1 -6l-6 -12q0 -1 -1.5 -3.5t-2.5 -4.5t-1 -6.5t-1 -6.5q0 -1 -2 -3.5t-2 -3.5t-0.5 -4t-1.5 -4q0 -1 -3 -8.5t-2 -12.5q-5 -7 -5 -8q0 -2 -6 -18q-1 -1 -1 -4v-5q0 -1 -2 -3t-3 -4v-8q-1 -1 -3 -5t-3 -7.5t-1 -7.5q0 -1 -2 -3.5
t-3 -4.5v-7q-3 -3 -6 -10.5t-5 -9.5q0 -9 -1 -11t-3 -4q-1 -2 -2 -3q0 -4 -2 -4q0 -2 -2 -4.5t-2 -3.5q-1 -3 -0.5 -10t0.5 -10q-1 -2 -3 -5t-2 -6q0 -9 -3 -11q-1 -1 -6 -1.5t-7 0.5l-1 1q-2 1 -2 24.5v27.5q1 2 3 4.5t3 3.5q0 4 1 6t3 5l2 3v6t1 6q5 8 5 9q-2 8 5 19
q2 8 5 10q0 2 1 5t1 5q1 2 3 4t3 4q-2 12 5 20q0 4 1 7.5t2.5 7t2.5 5.5q1 1 1 4v5l2 5q3 5 2 9q4 4 6 7q0 1 0.5 4.5t0.5 5.5l3 6q3 5 2 10l3.5 3.5t3.5 4.5q-1 7 2 16.5t3 15.5q6 8 7 13q0 1 2 3t2 4q-2 4 -11 -2q-8 -4 -10 -6q-3 -1 -12 -7h-13t-15 -2q-11 0 -33 2
q-2 2 -6.5 4.5t-6.5 3.5l-4 6l-2 1q-1 2 -2 3l-6 9q1 3 -3 8q-2 3 -3 4q-1 4 -1 15.5t1 15.5l4 4q0 1 1 3l1 2l10 10q8 6 10 10q2 0 12 5q8 0 18 6q5 -1 14.5 1.5t13.5 2.5q37 -5 46 -4q14 -9 16 -14q1 -2 0 -9t2 -8zM154 239q-2 2 -6.5 6t-5.5 5h-47q-4 0 -12.5 -3
t-14.5 -2q-11 -8 -13 -9q0 -2 -8 -12q-2 -12 0 -24q2 -3 17 -13q14 -2 25 -2q6 0 17 7t19 6q1 0 2.5 2t2.5 2q6 4 14.5 13t11.5 12q0 2 3.5 5t2.5 6q0 2 -3.5 1.5t-4.5 -0.5z" />
    <glyph glyph-name="colon" unicode=":" horiz-adv-x="188" 
d="M162 301q12 -12 8 -24q-1 -2 -4.5 -9.5t-6.5 -9.5q-1 0 -1 -2v-3q-1 -2 -2.5 -4t-1.5 -3q-1 -4 -2.5 -7t-4 -6t-3.5 -5q-4 -7 -6 -7q0 -1 -2 -1h-3q-2 -2 -5.5 -8t-7.5 -9.5t-10 -4.5q-1 -1 -5 -6t-7.5 -8.5t-6.5 -3.5q-6 -1 -10 2.5t-8 9t-7 7.5v15q8 10 12 21
q2 3 6.5 7t6.5 7q8 3 11 12l5.5 5.5t5.5 9.5q15 17 32 26q12 0 17 -1zM115 37q0 -1 1.5 -5t1.5 -6q0 -1 -3.5 -5t-2.5 -7q-1 -3 -6 -7.5t-6 -9.5q-2 -3 -8 -6.5t-7 -4.5q-1 -3 -3 -7q-6 -3 -25 -20q-3 0 -4 -1q-1 0 -3 -2t-4 -2q-11 -2 -15 0q-7 2 -10 11q-2 4 1.5 10.5
t3.5 10.5q2 2 4.5 9t5.5 10q1 7 7 15.5t7 10.5q6 8 18 11l6 6l7 6q7 7 11 9q2 1 5 1q15 6 18 5t6.5 -6t2.5 -9q-1 -2 -3 -4q-1 -2 -2 -3q-3 -8 -4 -10zM71 9q-2 2 -3.5 -1t2.5 -3q1 0 1 4z" />
    <glyph glyph-name="semicolon" unicode=";" horiz-adv-x="164" 
d="M125 230q7 0 21 -12v-18q-22 -25 -28 -29q-6 -16 -21 -20l-3 -3t-4 -2t-11 -6h-5q-2 -1 -5.5 -3.5t-6.5 -3.5q-10 -8 -12 -8t-23 3q-8 8 -9 10q-1 5 2.5 9.5t3.5 7.5q2 3 22 23q1 0 1 4l15 15q14 8 23 1q4 1 7 3.5t6 6.5t4 5q11 9 13 12q2 1 5 3t5 2zM98 10q5 -13 1 -24
q-1 -2 -3 -4q-1 -2 -2 -3q0 -3 -1 -4q-4 -4 -5 -6q-2 -5 -6 -19l-10.5 -14t-12.5 -15q-1 -3 -3 -8t-3 -9q-1 -2 -6.5 -7t-7.5 -8q-3 -2 -7.5 -7.5t-6.5 -7.5q-6 -12 -23 -25q-2 -2 -5 -5.5t-5 -5.5l-2 -1q-2 -1 -3 -2l-7 -9q-13 -5 -19 1q-4 13 -1 20q5 4 13 12.5t12 12.5
q8 8 12 13l4 4q3 2 4 3q2 2 7 12q6 6 16 18q6 6 6 7l1 2q1 1 1 2t2 2.5t2 2.5l1 2q1 2 1 3t2 2.5t2 2.5q0 3 2 5q2 3 7.5 8.5t7.5 8.5q1 4 4 10t4 10q9 11 13 21q7 6 14 -1z" />
    <glyph glyph-name="less" unicode="&#x3c;" horiz-adv-x="340" 
d="M66 95q1 -2 5 -3h4q2 -1 4.5 -3.5t3.5 -2.5h10q4 -4 6 -5t5 -1q2 -2 7 -5t7 -5q3 0 9 -4t12 -3l3 -3t4 -2q5 1 9 -3l3 -3q5 1 14 -6q3 0 4 -1t2.5 -2t2.5 -2t2 -1q2 -1 3 -1l2 -3q3 -2 5 -2h5q1 0 3.5 -2t4.5 -3t5 -1h4t3.5 -2t3.5 -3q4 -1 10 -1q3 -3 12.5 -7.5
t13.5 -8.5q4 0 9.5 -4t10.5 -4q2 0 4 -2t3 -2h5l6 -6t7 -6q3 1 9 5t9 5q2 -2 2.5 -5.5t-0.5 -9t-1 -7.5q-6 -6 -5 -20q-3 -4 -11 -8h-8q-6 4 -15.5 14t-15.5 14q-10 0 -22 12q-4 -1 -12 5h-6l-6 6q-23 3 -41 17q-4 0 -5 1q-2 1 -3.5 3t-2.5 2t-3 0.5t-3 0.5l-3 3t-4 2
q-6 0 -11 5q-4 0 -10.5 3.5t-11.5 3.5q-3 3 -7 5q-4 1 -10 0q-2 1 -5.5 4t-6.5 3q-1 1 -5.5 5t-6.5 6q-2 0 -4 1h-1q-7 3 -15 10q-5 1 -10 6q-4 0 -6 1q-1 2 -5 6h-11q-7 4 -9 8q-6 10 2 16q3 2 11 6l5 5l4 4q6 2 7 2q8 8 11 10q4 0 9.5 3.5t10.5 3.5q5 3 13 11q4 0 4 1
q21 16 28 18q1 0 5 2.5t7 2.5q2 0 4 2l3 3q1 0 2.5 0.5t2.5 0.5q15 10 19 11q3 3 12.5 9.5t13.5 10.5q0 1 2 5q2 2 6.5 5t6.5 5q11 -1 19 13t20 10q6 -3 4 -21q-1 -2 -5.5 -5.5t-5.5 -4.5t-2 -4t-2 -4q-4 0 -5 -2q-4 -2 -8 -9q-12 -10 -21 -13l-12 -12q-5 -2 -11.5 -6.5
t-10.5 -5.5q-2 -1 -4 -3l-3 -3h-1q-2 -1 -3 -1q-5 -3 -14.5 -8t-16.5 -9.5t-12 -10.5q-4 0 -8 -3l-3 -3q-7 -1 -16.5 -9t-17.5 -9q-5 -3 -5 -8z" />
    <glyph glyph-name="equal" unicode="=" horiz-adv-x="296" 
d="M251 142q-15 2 -21 -6q-8 1 -18 -2.5t-17 -3.5q-1 0 -4 -2t-4 -3q-3 -1 -7.5 -1h-6.5l-10 -5h-21q-6 -1 -13.5 -3.5t-10.5 -2.5h-42q-10 0 -11 -3q0 -1 1.5 -3.5t0.5 -4.5q-5 -7 -13 -1l-6 3l-3 3q-3 1 -11 0.5t-9 1.5q-1 1 -1.5 3t-1.5 3q0 1 -2 3t-2 4q-2 6 0 11
q6 8 8 13q10 4 14 7q4 1 15 1q8 -8 12 -11q2 0 12 -5q7 2 35 4q7 0 19 3t16 3q11 0 13 1q3 1 7 3q5 2 16.5 2t15.5 1q2 0 4.5 2t3.5 2q3 1 7 1h7q1 0 4.5 2t5.5 3h30q1 -2 5 -4t5 -3t1 -3v-3l3 -6q0 -2 -1 -4q-2 -2 -2 -3q-2 -7 -4 -8q-4 -2 -9.5 4.5t-9.5 6.5zM191 95
q4 0 23.5 1t25.5 -1q1 0 7 -3h6t6 -1q7 -5 6 -9q-1 -2 -7 -4.5t-7 -4.5h-21q-6 0 -20 -6q-37 0 -52 -6q-10 0 -14 -1q-2 0 -5 -2t-4 -2q-3 -1 -7.5 -1.5t-5.5 -0.5q-2 -1 -4.5 -2.5t-4.5 -2.5h-7.5t-7.5 -1q-3 -1 -8 -3q-9 -4 -16 -3q-4 -2 -11 -6.5t-9 -5.5q-1 -1 -4 -3
t-4 -4q-1 -1 -3.5 -4.5t-4.5 -4.5q-7 0 -9 8q-1 11 4.5 19.5t10.5 13.5q6 0 13 6t15 5l9 6q2 1 6.5 1.5t6.5 0.5t4.5 2t3.5 2q5 1 17 3t18 4q1 0 4 1.5l5 2.5q4 1 28 1q4 1 9 3t8 2z" />
    <glyph glyph-name="greater" unicode="&#x3e;" horiz-adv-x="340" 
d="M149 291q2 -5 7 -14t6 -11q0 -8 -5 -13q-2 -1 -5 -2l-2 -1q0 -3 5.5 -7t5.5 -5q1 -2 4.5 -4t4.5 -5q3 -2 8 -7h4q2 -1 7 -6t8 -7q1 -1 1 -2.5t1 -2.5q9 -9 14 -12q5 -5 18.5 -21.5t22.5 -23.5l2 -1h2q12 -11 32.5 -31.5l28.5 -28.5q-1 -4 2 -8t3 -5q0 -3 -4 -11
q-10 -12 -26 -8q-2 0 -5.5 2t-5.5 2t-4.5 -2t-3.5 -2h-17q-2 -1 -4.5 -3.5t-3.5 -2.5h-4.5t-4.5 -1l-3 -3t-4 -2h-19q-12 -7 -15 -6q-2 -1 -3.5 -3t-2.5 -2q-4 -1 -10 -4t-10 -3l-5 -5q-1 0 -3 -0.5t-4 -0.5l-12 -6q-4 -3 -13.5 -8t-13.5 -8h-1q-2 -1 -3 -1q-8 -5 -11 -5
q-8 -8 -13 -12q-9 0 -10 -4q1 -5 16 -3l4 -2q2 -9 -2 -13q-2 -2 -9 -2q-1 0 -3 -2t-3 -2q-5 0 -13 -3t-10 -4q-17 -2 -35 0q-1 1 -6 5t-5 8q0 2 2.5 5.5t2.5 6.5q4 4 7 4q17 17 27 23q2 0 12 5q2 2 4 2q2 1 3 3q3 2 6 2q1 1 3 2.5t4 2.5q5 2 18 12q5 -1 12 6q2 0 14 6
q2 1 5 1q2 1 3.5 2.5t2.5 1.5q8 2 9 6q3 0 12 7h11q2 0 5 3t7 2l17 17q2 1 6 1q1 0 2.5 2t3.5 3h36h7.5t8 0.5t5.5 2.5q0 2 -1.5 4.5t-1.5 3.5t-2 1q-1 0 -2 1l-22 22q0 1 -2 1h-2q-1 1 -9 5.5t-11 8.5l-2 4q-4 5 -12.5 14t-12.5 14q-2 0 -3.5 1t-2.5 1q-12 16 -42 44
q-3 0 -5 1q-4 5 -16 11q-4 6 -20 20l-2 6q-18 16 -20 24q2 7 11 14h17q2 0 4.5 3t3.5 3h15t14 -1z" />
    <glyph glyph-name="question" unicode="?" horiz-adv-x="341" 
d="M206 338q-2 4 -8 10h-5q-2 3 -6.5 6t-6.5 5q-2 0 -12 5q-5 0 -14.5 3t-15.5 4t-16.5 0t-14.5 -1q-2 0 -5.5 -2t-6.5 -3q-27 -20 -32 -27q-2 -6 -10 -14q-8 0 -10 -3q3 -7 0 -14t-9 -9q-12 0 -15 13t2 23l9 6q0 5 7 14q6 6 9 10q2 1 4 3.5t3 2.5q1 1 2 1q2 1 3 1
q2 1 4.5 5t4.5 5q4 0 6 1q2 2 8 5.5t8 5.5q4 2 16 1t14 3q7 1 11 0.5t11 -2.5t10 -2h14q1 0 3 -2t3 -2q3 -1 8.5 -1.5t6.5 -0.5q2 -2 6.5 -5t6.5 -5l6 -2l5 -5q11 -5 13 -7q1 -1 2 -2.5t1 -2.5q10 -17 10 -19q0 -1 -2 -4t-2 -4q-1 -2 -1 -5q-1 -2 -3.5 -3.5t-2.5 -2.5
q0 -4 -3.5 -8.5t-3.5 -8.5q-11 -14 -21 -22q-3 -7 -8 -13t-12 -12.5t-10 -10.5q-1 -1 -1 -5q-4 -4 -10.5 -14.5t-11.5 -15.5q-7 -14 -11 -18q-1 -8 -6 -11q-1 -5 -3.5 -9.5t-3.5 -6.5q-17 -15 -10 -47q1 -3 11 -11l3 -3q1 -1 3 -1t3 -1l2 -2q1 -2 2 -3h12q2 0 6 -2t6 -2t6 1
t6 1t5.5 -1t5.5 -1q21 0 25 -3q1 -1 4 -7q-1 -6 -9 -11q-1 0 -2.5 -1.5t-2.5 -1.5q-2 -1 -7.5 -2t-7.5 -3q-16 -4 -43 -2q-2 2 -8.5 5t-8.5 6q-1 0 -4 0.5t-4 0.5q-1 1 -14 11q-2 5 -3 5l-10 10q0 3 -3 5q0 1 -1.5 2.5t-1.5 2.5q-4 3 -1 23.5t3 23.5q8 18 14 25q-1 4 4 8
q2 2 2 3v2.5t1 1.5q1 2 3 4.5t3 3.5l5 5q0 1 0.5 2.5t0.5 2.5q10 12 11 18q2 3 8 11.5t9 12.5q0 1 1 3v2l45 48q1 2 1 5q8 10 16 22zM54 317v-2q-4 0 -2 2h2zM143 -28q2 -5 -5 -18v-5l-8 -8h-12q-2 1 -5 4.5t-4 4.5q-2 7 2 15.5t4 12.5q6 6 7 12q10 7 14 8q5 0 18 -8
q2 -6 0 -11q-1 -1 -5.5 -2.5t-5.5 -4.5z" />
    <glyph glyph-name="at" unicode="@" horiz-adv-x="484" 
d="M342 296q-2 -7 2.5 -15t3.5 -14q1 -2 3 -4l3 -3v-14q1 -3 6 -8q4 -17 -4 -24q-2 -11 -2 -34q0 -1 -2 -3l-3 -3q1 -5 -7 -20v-11q0 -1 -2 -3t-2 -3l-1 -2q-1 -1 -1 -2q-1 -2 -5 -6.5t-5 -5.5l-3 -6q-5 -5 -8 -7q-1 -1 -1 -2.5t-1 -2.5l-1 -1q-2 -1 -3 -2q-7 -7 -11 -10
q-4 1 -8.5 -2t-5.5 -3q-2 -1 -8 -1q-4 -2 -6 -2q-3 0 -5 2h-12q-5 -4 -15.5 -14t-16.5 -14l-4 -2q-1 -2 -6 -5t-6 -5q-5 1 -10 -4q-2 -1 -3 -2q-5 0 -6 -2q-2 -1 -4 -2.5t-3 -1.5q-7 -2 -31 0q-12 6 -21 19q1 4 -1 9q-2 3 -2 4q0 2 1.5 6t1.5 6q1 2 0 7t0 8q1 2 3 4.5t3 3.5
t1 5v5t2 3t2 3q2 3 8 10t8 10q1 1 3.5 5t4.5 6v4q1 2 3 4l3 3q0 3 1 5q4 6 13 11q3 3 4 3l2 1l2 1l6 2q5 3 9 2q5 -5 19 -5q4 -4 2 -8q-1 -2 -4 -5l-4 -4l-15 -9q-1 -3 -5 -12q0 -1 1 -3.5t0 -3.5q-4 -4 -17 5q-2 -1 -2.5 -3.5t-1.5 -3.5q0 -1 -2.5 -4.5t-1.5 -7.5
q-9 -10 -23 -32q0 -3 -1 -15t1 -15q6 -3 14.5 1t11.5 4q2 1 3.5 3t2.5 2q11 1 20 8.5t14 14.5q10 4 17 16q-5 15 2 42q0 1 1 4.5t1 5.5q0 1 2 2.5t2 2.5l1 2q1 2 2 2q1 1 2.5 4l2.5 5q3 4 10.5 10.5t9.5 8.5q3 0 6.5 2t4.5 2q5 -1 11 -7q2 -4 4 -5q0 -2 1 -5t1 -4
q2 -5 -0.5 -15.5t-2.5 -15.5q-6 -8 -5 -12q-1 -2 -3 -4l-3 -3q0 -3 -3 -6t-3 -6l2 -1q3 -1 5 2l2 2q4 0 6 2q1 0 9 14l11 11q3 13 12 24q-1 2 0 5t1 4t1.5 3.5t2.5 4.5q2 47 1 68q-1 2 -3 4t-3 4q1 7 -5 15t-7 13l-5 5q-1 5 -5 9q-3 6 -5 8q-2 1 -4 3q0 1 -2 2l-2 1l-1 2
q-1 2 -2 2q-3 0 -5 1q-8 6 -11 6q-1 0 -3.5 2.5t-4.5 2.5q-3 0 -6 -3q-2 -2 -4 -3q-8 1 -16 -2.5t-13 -3.5q-3 -1 -10.5 -8.5t-14.5 -8.5q-9 -11 -24 -20q-2 -6 -10 -15t-10 -15q-5 -3 -11 -10.5t-10 -9.5q-8 -17 -35 -50q0 -3 -1 -5l-4.5 -9t-6.5 -9q0 -1 -0.5 -2.5
t-0.5 -2.5q0 -2 -2 -4q-3 -2 -3 -3q0 -8 -6 -16.5t-6 -15.5q-10 -16 -11 -25l-3 -3t-3 -4v-12q-1 0 -2 -2t-2 -3q-4 -14 -2 -45q1 -24 15 -38q3 0 5 -2q1 -1 4.5 -5t6.5 -5h7q6 -6 7 -6h91q2 0 5.5 2.5t5.5 2.5q3 1 12 0.5t13 0.5q2 1 4 3q2 1 3 2q4 -1 18 5q2 1 6 1
q3 1 5 1q2 1 4.5 3t3.5 2h6q2 1 4 3l3 3h12q2 1 4 3q6 4 12 3q2 1 4 3q2 1 3 2q4 -1 10 2.5t9 3.5q1 0 3 2l3 3q5 0 10.5 4t11.5 3q2 1 3.5 3t2.5 3h6q2 1 6 5q6 1 12 6t11 6q1 0 2.5 2.5t2.5 2.5h3t3 1l3 3q4 4 7 4q1 1 3.5 4.5t4.5 4.5q4 1 7.5 4t6.5 6.5t5 5.5q0 2 6 14
q1 3 0.5 11t1.5 9q5 5 9 2q1 -4 1 -37q-1 -2 -3 -4q-1 -2 -2 -3q0 -1 -0.5 -4t-0.5 -4q-4 -6 -12.5 -14t-11.5 -13q-6 -2 -24 -18q-2 0 -5 -2.5t-5 -2.5q-1 -1 -3.5 -1h-3.5l-3 -3t-4 -3q-3 0 -7.5 -3.5t-8.5 -2.5q-2 0 -3.5 -2t-3.5 -3q-3 0 -7 -3t-8 -4q-6 -6 -14 -6
q-2 0 -4 -2t-4 -2q-1 0 -4 -0.5t-5 -0.5q-2 -1 -4 -3l-3 -3q-5 1 -10 -2.5t-7 -3.5q-3 -1 -7 -5l-12 -6h-10h-10q-2 0 -4 -3t-4 -3h-12q-2 -1 -4 -3l-3 -3q-19 0 -25 -5q-11 0 -21 -6q-4 0 -16 0.5t-15 -1.5q-2 0 -6 -2t-5 -2q-2 0 -7.5 2t-8.5 2q-21 0 -33 1q-3 2 -10 5
t-10 5q-2 1 -8 1q-15 11 -32 34q0 3 -3 7t-4 6q0 1 -1 7.5t-4 8.5v21q0 27 4 32q0 10 6 22t6 21q3 3 6.5 9.5t5.5 8.5v7l6 12q0 1 1.5 3t2.5 3q0 1 0.5 3t1.5 3q0 1 2 3t2 3q6 9 7 10q1 3 3 6.5t2 4.5q1 1 1 5q1 1 5 6.5t6 7.5q6 14 24 34v6l14 14l14 14q4 8 10 15.5
t14.5 16l12.5 12.5q4 1 8 4t7 3q17 17 22 19q8 0 21 9h8.5t9.5 0.5t6 2.5q3 0 7 -2q3 -1 11 -0.5t11 -0.5q2 -1 4 -3q1 -2 2 -2t5 -2q3 -3 9 -6q3 -4 10 -11t12 -13t9 -13q1 -1 3 -2.5t2 -2.5z" />
    <glyph glyph-name="A" unicode="A" horiz-adv-x="268" 
d="M239 138q5 -8 0 -13q-1 -1 -8.5 -1.5t-8.5 -5.5q-2 -4 1 -11.5t3 -9.5q1 -3 1 -10t1 -10q4 -6 5 -9q1 -2 1 -5.5v-5.5t2 -5t2 -4q1 -3 1 -16t5 -18q1 -4 1.5 -12.5t0.5 -11.5q0 -2 2 -8.5t2 -11.5q-1 -1 -4 -7t-7 -7q-5 1 -12 10q1 14 -5 32q-1 2 -3 4.5t-2 3.5
q-2 4 -2 11t-1 10q0 3 -2.5 10.5t-1.5 12.5q-5 7 -5 8q-2 6 -2 17.5t-1 15.5q0 2 -2 3.5t-2 3.5q0 12 -4 14q-5 1 -21 -5q-3 -1 -19 -1q-4 0 -10.5 -3t-10.5 -3q-7 -5 -15 -11.5t-12 -14.5q-2 -8 -12 -18q0 -5 -6 -11q1 -4 -6 -13q1 -4 -1.5 -9.5t-2.5 -6.5t-1 -3.5t-1 -3.5
q-6 -12 -6 -14q-2 -2 -5 -7t-5 -7q-1 -3 -3.5 -6.5t-2.5 -4.5q-1 -2 -3 -4l-3 -3t-1 -2q-1 -2 -1 -3l-3 -3q-7 -7 -4 -13q-7 -13 -13 -14q-5 0 -8 6l-4 8q2 2 8 12q0 4 0.5 7t1.5 7t1 6q1 2 3 4t2 3q2 9 11 18q0 3 6 11q-1 5 6 14q0 2 0.5 4t0.5 4q3 4 6 12l4 6q-1 5 -5.5 8
t-5.5 5q0 2 0.5 5.5t0.5 4.5q6 7 20 18.5t20 17.5q3 13 11 18q0 4 3 8l3 3q-1 2 -0.5 5.5t0.5 4.5q4 5 9.5 15.5t7.5 14.5q0 1 0.5 3.5t0.5 4.5q0 1 2 3t3 4q0 9 5 14l3 6q3 2 4.5 10t3.5 11q0 5 7 17q1 2 1 7q6 9 5 14q3 3 6 9.5t5 8.5q0 1 6 13q1 2 1.5 7t0.5 6t1.5 2.5
t2.5 3.5q0 4 1 5q3 3 5 6v4t1 4q0 1 2 3t3 4q2 7 4 8q3 2 8.5 1.5t8.5 -2.5q5 -4 3.5 -13t-5.5 -12q0 -3 -0.5 -8.5t-0.5 -9t-1.5 -7t-3.5 -5.5q-2 -28 -2 -39q0 -10 2 -38l3 -15v-10q0 -2 1.5 -7.5t1.5 -6.5q0 -26 1 -39v-1q2 -3 11 -3t10 -3zM192 164q-1 5 -3 13.5
t-2 11.5q-1 6 -1 21q0 7 -0.5 11.5t-3 9.5t-7.5 2q0 -19 -11 -37q0 -1 -0.5 -2.5t-0.5 -2.5t-2.5 -4.5t-2.5 -7.5q-4 -4 -5 -7q1 -3 -2.5 -6.5t-4.5 -5.5v-10l-2 -2q-2 -3 -2 -5q0 -1 -1 -3l-1 -2l-3 -3q-4 -5 -1 -8q6 0 16 2t14 2q3 2 12.5 3.5t12.5 2.5q3 8 1 27z" />
    <glyph glyph-name="B" unicode="B" horiz-adv-x="272" 
d="M198 190q0 -1 12 -4q10 -5 14 -5q4 -4 10 -7q7 -5 20 -26q0 -3 0.5 -8t0.5 -8l-12 -18v-5l-18 -30q-1 -1 -19 -14q-4 -4 -11.5 -12t-14 -13.5t-14.5 -9.5q-3 -2 -12.5 -9t-15.5 -9l-17 -14q1 -9 -5 -19q0 -33 1 -37q0 -2 2.5 -7t2.5 -9t-2 -6q-3 -2 -12 0q-1 1 -5 4.5
t-5 5.5t-0.5 11.5t0.5 14.5q0 2 -2 5t-2 5q-1 3 1 8t2 6q0 5 -7 7q-1 0 -3.5 -2t-3.5 -2q-2 -1 -7.5 -1.5t-7.5 -0.5q-4 -1 -9 -3t-9 -3q-12 -2 -14 -2q-6 0 -13 5q-2 1 -3.5 4t-2.5 4q-1 7 2.5 13t3.5 9q12 17 16 21q1 1 10 7q5 5 7 6h8q2 0 4 2q2 3 3 3q1 1 2.5 1h2.5l3 3
t4 3h17q3 2 4.5 6t2.5 10t2 9q0 3 0.5 8t0.5 7q2 2 5 8q0 2 0.5 8.5t1.5 9.5q0 1 1.5 4t1.5 4q1 4 1 13t1 12q0 2 2 4.5t2 4.5q1 6 1 21t2 20l2 5q2 6 1 10q-1 3 -5 6.5t-4 5.5q0 4 4 12q1 2 2.5 4.5t2.5 4.5q0 1 -1 4t-1 4q0 10 12 12l7 -3q3 -3 7 -9q0 -4 1 -5q2 -6 2 -7
q0 -2 -1.5 -5t-1.5 -6q1 -6 -1 -14.5t-2 -11.5q-1 -4 0 -10.5t1 -9.5v-7q7 -2 17 13q6 2 14 12q1 3 3.5 6.5t2.5 4.5l5 13v3t1 3l3 3t2 3q4 10 4 11v8q0 2 -2 6t-2 7q-4 8 -15 13q-3 1 -10 0t-11 -1t-12 1t-11 1q-2 0 -4.5 -1.5t-4.5 -1.5q-4 -1 -10.5 -1h-9.5
q-20 -13 -23 -13q-4 -3 -10 -11q-11 -6 -29 -24q-1 -2 -1 -7q-3 -5 -10.5 -5t-11.5 4q-2 9 0 16q0 1 4 5q1 3 3 7q10 16 25 27q2 1 5 1q2 2 8 6t8 6q4 0 6 1q1 0 2 1.5t2 1.5l2 1l2 1q2 1 6 5q2 1 5 1h4t3.5 2t3.5 2q5 0 14 2.5t14 2.5q2 0 6 -1t6 -1q28 -3 29 -3q3 0 8 -3
t10 -2q4 -3 21 -22v-10q8 -11 6 -28q-10 -17 -12 -19v-2q0 -2 -1 -2q-13 -21 -16 -24q0 -3 -2.5 -7t-2.5 -5zM223 151q-4 7 -17 7q-4 4 -21 4q-27 -8 -28 -9t-3 -1t-3 -1q-4 -2 -5 -8t-1 -15.5t-1 -13.5q-2 -4 -3 -7q-1 -4 -1.5 -11t-0.5 -10q-1 -4 -3.5 -12t-2.5 -12
q0 -10 -2 -14q-2 -9 -1 -12q6 -3 10 4q2 1 5 3.5t4 3.5q9 2 20.5 12.5t17.5 12.5q3 4 12.5 12t13.5 14q1 10 13 22q8 14 4 30q-1 1 -7 1zM84 30q-8 -4 -17 -7q-1 -1 -6 -5t-7.5 -7.5t-0.5 -7.5q2 -1 5 1q2 2 4 2q1 0 6 0.5t8 1.5q2 2 7 4q12 0 14 2v19q-4 2 -9 -1
q-3 -2 -4 -2z" />
    <glyph glyph-name="C" unicode="C" horiz-adv-x="252" 
d="M224 20q-2 -1 -6.5 -4t-9.5 -3l-6 -6q-3 0 -13 -5q-2 0 -10 -0.5t-11 -1.5l-15 -9q-19 -3 -23 -5q-5 3 -20 3.5t-20 4.5h-5q-2 1 -3.5 3.5t-2.5 3.5q-3 1 -9 1q-10 7 -28 21q-3 7 -13 15q-3 5 -6 16.5t-4 14.5v27q5 8 5 24q6 14 6 16q0 1 3 5.5t3 7.5q4 4 5 6t1 5
q0 1 2 3.5t3 3.5q6 9 7 11q16 19 17 20q9 5 23.5 18.5t24.5 18.5q2 1 3 2l3 3q3 0 5 1q2 2 9 7.5t11 8.5q5 1 14.5 7t17.5 6q12 5 16 4q3 -1 7 -4.5t5 -8.5q-1 -3 -6 -6l-4 -3q-11 0 -23 -12q-4 0 -6 -1t-8.5 -4.5t-8.5 -6.5q-17 -6 -28 -17l-2 -1h-2q-24 -24 -33 -28
q-3 -3 -8.5 -10t-9.5 -10q0 -1 -11 -20q-1 -3 -6 -11q-7 -30 -7 -43q0 -20 1 -23q6 -12 6 -13q15 -20 32 -27q4 1 15 -6h9q2 -1 5 -3t4 -2t9 2q1 0 4 -0.5t4 -0.5t4.5 1.5t5.5 1.5q2 1 9 1t11 1q2 0 4 2t4 2q4 1 10 1t9 1q2 0 5 3q1 2 2 2q3 -1 14 5q1 1 3.5 1.5t3.5 0.5
q2 0 4.5 1t4.5 0q7 0 7 -5q0 -2 -3 -4.5t-4 -3.5z" />
    <glyph glyph-name="D" unicode="D" horiz-adv-x="304" 
d="M62 11l-4 -1q-3 -2 -8 -7q-7 -7 -7 -8q0 -3 11 -3q2 0 6 -1t5 -1t4.5 0.5t5.5 0.5h15q20 2 27 12q-2 2 -0.5 9.5t1.5 8.5q0 9 1 13q0 1 2 3.5t3 4.5q1 3 0.5 8t0.5 8q0 1 2 3.5t3 4.5q0 1 6 29q2 3 5 12t6 12q-1 6 6 19q2 19 5 22q2 19 7 24q-1 6 2 15.5t3 16t-7 10.5
q-8 0 -10 2l-3 3q5 23 24 26q12 -1 20 -11q-1 -6 2 -20t-2 -16v-14t-2 -17q-5 -11 -4 -15q0 -2 -2 -4t-2 -4q-1 -3 -1.5 -9.5t-0.5 -8.5l-6 -12q-1 -2 -2.5 -4t-2.5 -4q0 -8 -5 -13q0 -4 -2 -10q-3 -4 -5 -15t-5 -15q0 -6 -4 -16t-3 -18q-8 -19 -3 -25q4 1 10 6q3 3 5 4
q1 0 4 0.5t4 1.5q3 1 8.5 4t9.5 4q1 1 4 3q4 5 7 5q19 19 26 24q4 6 12 12q2 5 8 14t9 13q2 6 2 9q2 6 5 8q0 2 1.5 7t0.5 9q4 12 4 18t-3 19t-3 19q-1 2 -3 4.5t-2 3.5q0 4 -2 10q0 1 -2.5 5t-2.5 7q-2 3 -7.5 12t-8.5 12q0 1 -1 2.5t-1 2.5q-5 8 -16.5 18.5t-14.5 13.5
q-12 5 -15 7q-2 1 -5 4q-1 1 -4.5 1.5t-4.5 0.5q-2 0 -5.5 2t-4.5 2q-7 2 -22 2q-11 0 -20 -6q-1 -1 -5 -1q-6 -4 -15 -14.5t-11 -12.5q-2 -9 -12 -9q-5 1 -3 13q0 7 3 13q0 2 3 5.5t3 5.5q8 8 39 28l24 6h3q2 0 4.5 -2t4.5 -2q3 -1 9 -1.5t8 -0.5q1 0 4 -2t5 -2q1 0 3 -1
t3 -1l6 -3q1 -1 3 -1t3 -1q2 0 5 -3t6 -3q25 -25 37 -39q-1 -2 2 -5t3 -4q2 -2 2 -4q1 -2 3 -3.5t2 -2.5q0 -4 1 -6q5 -11 5 -13q2 -3 5.5 -8t4.5 -6q0 -2 1 -6t1 -6q0 -1 2 -4t2 -4l2 -8q3 -15 2 -17q2 -12 2 -15q1 -9 -2 -23.5t-3 -19.5q-2 -4 -9 -15t-9 -18q-6 -8 -6 -10
q-3 -2 -24 -23q-3 -3 -11.5 -10.5t-12.5 -12.5q-6 -4 -8 -6q-8 -4 -11 -6q-10 -3 -18 -8q-1 0 -3 -2t-3 -2q-1 -1 -3.5 -1.5t-3.5 -0.5q-1 -2 -5 -4q-16 -5 -17 -7q-2 -12 -12 -11q-1 0 -4 2t-5 3q-9 3 -19 -5q-39 -4 -67 2q-8 4 -10 7q-2 6 0 15q3 6 20 23q4 1 10 5t8 5
q1 0 7.5 2t9.5 1.5t3 -4.5q0 -2 -6 -8q-2 -2 -5 -4t-5 -3z" />
    <glyph glyph-name="E" unicode="E" horiz-adv-x="336" 
d="M108 175q3 -1 6 2l2 3q5 -1 12.5 1t9.5 2t6 -0.5t5 -0.5t4 1.5t4 1.5t7 1t9 2q2 -1 8 -0.5t9 0.5q2 0 6 -1t6 -1t6 1.5t6 1.5q1 0 4 -1.5t5 -1.5h5t5 -1q7 -1 11 -8q-1 -6 -8 -8q-4 -2 -13 -1.5t-13 -0.5q-2 -1 -8 -3q-8 -2 -28 -2q-1 0 -3.5 -2t-3.5 -3q-1 0 -2.5 0.5
t-2.5 0.5q-4 -3 -13 -2.5t-14 -0.5q-4 -1 -9.5 -5.5t-8.5 -5.5q-5 0 -10 6l-3 3q-3 0 -8 -7q-1 -3 -12 -29q0 -1 -0.5 -4.5t-1.5 -4.5q0 -2 -2 -5t-2 -5v-6t-1 -5t-2.5 -3t-2.5 -3q-4 -13 -6 -15v-6l-12 -18q1 -7 -5 -17q1 -4 -2 -9.5t-3 -6.5q0 -2 0.5 -3.5t0.5 -2.5
q0 -2 -1.5 -5.5t-0.5 -6.5t9 -5q3 0 5 -1q2 1 5 2q4 0 6 1t4 3.5t3 2.5h7q1 0 3 2t4 2q2 2 5 2l5 5q7 2 11 5q7 2 17 9.5t16 9.5q4 4 7 5q4 4 6 5l4 2q2 1 6 5q7 2 12 5q0 1 5 1q12 6 13 6l6 6q8 0 13 5q4 0 11 0.5t10 0.5q13 9 23 4q8 -2 10 -12q-1 -3 -5 -7q-1 -2 -2 -3
q-6 0 -15 -3t-15 -3q-2 -1 -4.5 -3.5l-3.5 -3.5h-13q-21 -12 -26 -16q-2 -1 -5 -1q-2 -2 -6 -4q-2 -2 -4 -3t-4 -3q-2 -1 -4.5 -2t-3.5 -1q-4 -3 -8 -11q-6 -1 -13 -5.5t-11 -5.5q-2 -1 -3 -3t-2 -2h-6q-1 0 -4.5 -2.5t-6.5 -3.5q-6 -5 -18 -13h-11q-1 0 -3 -1.5t-4 -2.5
q-30 -2 -41 6l-7 9q-6 29 4 46q2 12 2 16q5 8 6 17q1 2 3 4t2 3q1 1 1 3v3t2 3t2 3q0 5 1 7q6 11 5 15q1 1 6 16q7 10 6 16q1 2 3 5t3 5v13q1 2 5 7t6 9q0 3 1 5q0 2 2 4t2 4q0 5 1 8.5t3.5 8t3.5 7.5l2 2q1 2 2 3q0 1 0.5 4t0.5 5q1 1 2.5 4t2.5 4q1 7 5 18t5 16q1 2 4 10
q5 5 4 7q0 3 -6.5 6.5t-7.5 4.5q-5 7 6 18q16 8 18 10q10 -2 26 2.5t20 4.5q2 0 5 -0.5t5 -0.5q3 1 6 3.5t6 2.5q5 -2 19 4q5 1 15.5 1.5t14.5 0.5q1 0 4 1t5 1q4 -2 7 -3h21t20 -1q2 0 6.5 -2t6.5 -3q10 -5 11 -8q0 -4 -4.5 -5.5t-8.5 -1.5q-2 0 -4 -1t-3 -1q-4 -1 -11 0
t-9 1q-24 -2 -39 -2h-12q-3 0 -11.5 -3.5t-14.5 -2.5l-12 -6q-18 0 -20 -5q-3 0 -6 -2t-5 -2q-17 0 -23 -3q-3 -5 -5 -18q-2 -2 -2.5 -6t-1.5 -6q0 -2 -2 -6.5t-2 -5.5q0 -11 -1 -15q0 -1 -1.5 -3t-2.5 -4q0 -2 -0.5 -6.5t-1.5 -6.5l-3 -6t-2 -6q-12 -12 -10 -19z" />
    <glyph glyph-name="F" unicode="F" horiz-adv-x="318" 
d="M269 346q0 -1 1 -3t0 -3h-6q-4 0 -13.5 -2t-15.5 -2l-17 -10q-3 0 -12 -6q-7 -2 -8 -3q0 -4 -2.5 -6t-6.5 -1q-2 0 -5 -2t-6 -1q-10 -6 -13 -10q-4 -1 -8.5 -4t-7.5 -3q-3 -4 -12 -10t-12 -10q2 -12 1 -16t-4 -8v-15q0 -4 -2.5 -10.5t-3.5 -10.5v-9t-1 -8q-5 -6 -5 -27
q-4 -8 -5 -12q0 -4 -4 -12t-1 -12q2 0 3 3.5t2 4.5q2 1 6.5 1.5t5.5 0.5q1 1 4.5 4t6.5 3q3 5 13.5 9t13.5 6q4 2 11.5 4t11.5 4q2 0 6 4q3 0 5 1q1 0 4 2.5t7 3.5q2 1 6 5h4q2 1 4.5 3t3.5 2q4 -1 9 4l3 3h3q2 1 7.5 6.5t10.5 5.5q3 2 9.5 5.5t9.5 5.5q3 0 7 2.5t6 2.5t8 1
t9 0l2 -2q0 -5 -6 -14q-3 -4 -13 -9.5t-13 -10.5q-4 0 -7.5 -2.5t-6.5 -6t-5 -4.5q-3 0 -13 -4l-4 -4h-2q-2 -1 -2 -2q-2 -1 -6.5 -5t-6.5 -5l-6 -3l-1 -3q0 -2 -1 -2h-8q-1 -1 -5 -3.5t-7 -3.5l-3 -3q-2 -4 -4 -5q-6 0 -16.5 -4.5t-17.5 -3.5l-2 -2q-4 -4 -9 -3
q-2 -1 -3.5 -3.5t-2.5 -3.5q-8 3 -23 -1q-2 1 -5.5 6.5t-6.5 5.5q-4 -1 -4 -12q-7 -11 -6 -18q0 -1 -2 -3.5t-2 -3.5q-1 -3 -4.5 -11.5t-3.5 -15.5q0 -2 -2 -4t-2 -3q0 -15 -6 -22l-3 -18q0 -1 -1.5 -4t-1.5 -5q0 -1 -0.5 -5.5t-1.5 -6.5q-1 -1 -2.5 -3t-1.5 -3
q-1 -7 -4 -18t-3 -17l-4 -8q-2 -28 -9 -31q-5 -1 -9 2q1 4 -2 8.5t-3 5.5q-1 3 -0.5 12t0.5 13q0 2 2 4t2 3q0 7 4 17.5t3 18.5q1 2 6 24q2 3 4 9q0 1 0.5 4.5t1.5 5.5l1 1l2 4q2 4 2 14q1 2 3 4.5t3 4.5q-2 7 0 15q4 6 5 9q0 2 0.5 6.5t1.5 6.5l4 8q0 1 0.5 3.5t1.5 4.5
q0 3 3 6q0 1 1 4t1 4q5 12 5 16q1 2 3 4t3 4q0 14 1 16q0 2 2 4.5t2 3.5v2q0 3 0.5 9.5t0.5 10.5q11 13 3 32h-12q-3 3 -9 11q-1 5 2.5 9.5t3.5 6.5q1 1 4.5 4t5.5 5q1 1 1 2q0 2 1 2q4 2 5 3t2 3l1 1q1 0 6 2t7 4q1 1 4.5 5t5.5 6h2l2 1q4 4 14 11t14 11q14 5 21 12
q2 0 13 5q1 0 3 0.5t3 1.5q1 0 3 2t3 2q3 1 11.5 3.5t12.5 4.5q13 5 14 5q2 1 9 5h16t15 1q2 0 6 -0.5t5 -0.5l5 -8q-1 -2 -10 -8q-10 0 -11 -4z" />
    <glyph glyph-name="G" unicode="G" horiz-adv-x="308" 
d="M80 167q-1 -1 -3 -1h-3q-1 -1 -1.5 -4t-1.5 -5q-1 -1 -2 -3l-2 -4q-1 -1 -1 -6q-4 -4 -5 -6q-1 0 -1 -2t-1 -2q-5 -10 -5 -13q-6 -14 -6 -23q-8 -12 -4 -36q2 -3 6.5 -10.5t6.5 -12.5q2 -2 8.5 -7t8.5 -8q3 -1 6.5 -3.5t5.5 -2.5q4 0 14.5 -1t16.5 0q7 0 23 7
q14 13 24 34q-1 4 1.5 10t2.5 9q0 1 -1 3.5t-1 3.5t-0.5 4.5t-1.5 5.5q0 2 -3 4.5t-3 5.5q0 19 15 19q5 4 18.5 8.5t18.5 7.5h10q17 8 39 7q1 -1 3.5 -3t4.5 -3h3t3 -1q1 0 8 -5q1 -1 3 -3.5t2 -4.5q1 0 2 -2v-2q0 -1 2 -3q6 -10 0 -14q-8 -2 -12 1q-2 0 -4 2t-3 2
q-3 0 -4 1t-3 2.5t-4 2.5q-2 -1 -15 -1q-12 -5 -24 -5q-14 -6 -19 -5q-7 -7 -8 -9q0 -3 1 -10.5t1 -11.5q0 -1 -1 -3t-1 -3v-10q0 -2 -2.5 -4t-3.5 -4v-6l-6 -12q-10 -9 -17 -23q1 -3 -1 -11l-15 -9q-13 0 -16 -4q-12 2 -16 1q-2 0 -4 -2t-3 -2q-5 0 -11 2.5t-12 1.5
q-2 1 -6.5 3.5t-6.5 3.5h-4q-4 4 -12.5 9.5t-11.5 8.5q-2 1 -5 1q-2 3 -7 10t-8 10q0 2 -6 13q-2 43 0 62q2 5 5 8q1 4 1 11q0 1 2 3t2 4q1 2 2 8.5t4 8.5q1 8 7.5 17.5t8.5 14.5q1 2 3.5 4t3.5 4q2 9 13 16q0 3 2 5q5 4 20 27q11 6 16 14q2 0 6 2t6 2l6 6q3 2 8.5 6t8.5 5
q1 1 4 1q1 0 3 2t3 2q2 1 5.5 1.5t5.5 1.5q3 3 5 4t8 1h10q2 0 7 2t8 2q22 2 28 -8q2 -2 2 -4q-1 -5 -6 -10q-6 -6 -9 -6q-1 -2 -7 -0.5t-8 1.5q-2 -1 -4 -3t-4 -2q-2 -2 -5 -4t-5 -4h-6q-2 -1 -7 -5.5t-10 -5.5q-2 0 -4 3t-4 3q-6 1 -12 -7q-7 -1 -14 -8.5t-12 -8.5
q-10 -10 -15 -14q-1 -5 -4 -9.5t-7.5 -8.5t-6.5 -7q0 -5 -4 -15z" />
    <glyph glyph-name="H" unicode="H" horiz-adv-x="304" 
d="M135 315q4 -4 4 -19q1 -12 -5 -34q-4 -26 -5 -27l-3 -9q-1 -3 -5 -7q0 -5 -3.5 -13t-3.5 -13l-5 -7v-11q0 -1 -2.5 -4t-3.5 -5t-1 -5.5t-1 -5.5q4 -2 10 2t8 4q2 -1 30 2q7 1 21 1q3 0 13 1t15 0q2 0 6.5 -1t7.5 -0.5t6 2.5q0 1 6 16q1 2 1 8t1 9q0 1 2 4t2 4v12l5 15
q1 2 2 10t5 11q0 16 11 31q6 12 12 16q11 4 16 -1q1 -4 -1.5 -9.5t-2.5 -8.5q-4 -5 -4.5 -18.5t-1.5 -16.5q0 -3 -3.5 -7.5t-2.5 -7.5q-1 -1 -2.5 -4l-2.5 -5v-2v-6v-6t-5 -14q-1 -1 -1 -3v-3t-2 -3.5t-2 -4.5q0 -1 -0.5 -3.5t-1.5 -4.5q0 -1 -2 -3q-5 -6 0 -10q2 0 4.5 0.5
t4.5 0.5t5 -1.5t4 -1.5q3 -1 7 1t6 2q11 0 10 -12q-2 -2 -6 -4.5t-6 -4.5q-4 -1 -21 -2.5t-23 -4.5q1 -17 -12 -30q2 -9 -5 -18q0 -8 -6.5 -18t-6.5 -18q-1 -1 -4 -6q0 -6 -3.5 -13.5t-3.5 -14.5q-6 -15 -6 -16q0 -2 -2 -4l-3 -3q-2 -11 -9 -12q-8 6 -8 22q0 1 2 3.5t2 4.5
q1 3 1 15q3 3 5 13t6 13q0 15 8.5 33.5t9.5 24.5q4 4 5 7v9q0 2 3 3.5t3 3.5q0 3 -9 3q-6 -1 -19 -1h-20q-3 0 -9 -0.5t-8 -0.5q-1 0 -9.5 -2.5t-13.5 -3.5h-17q-3 -1 -8 -4t-7 -4q-1 -4 -4 -11t-4 -10l-3 -3t-2 -4v-6q-1 -2 -2.5 -4.5t-1.5 -3.5q-2 -7 -12 -33q0 -5 -4 -11
t-3 -12l-3 -3t-2 -4v-10q6 -11 5 -17q-6 -8 -6 -14q-14 -11 -23 0q0 1 -2 6.5t-2 8.5l3 9q0 3 0.5 8.5t1.5 7.5l1 2q2 3 3 5v8t1 8q0 1 2 4t3 5q-1 7 3 15t4 13q2 4 4 7q0 5 3.5 11t3.5 10q0 1 5 8q-1 7 2.5 15t3.5 13q1 2 3 4.5t3 3.5q1 6 6 15.5t6 16.5q5 7 5 8q-1 5 3 10
l3 6q1 2 0.5 7t0.5 8q0 1 3.5 6t2.5 8q0 1 2.5 7t3.5 10q0 1 1 3q4 4 1 8q-2 0 -6.5 -3.5t-8.5 -3.5q-5 1 -6.5 5.5t1.5 8.5q6 6 17 20t17 21q0 3 2 7q6 4 13 1z" />
    <glyph glyph-name="I" unicode="I" horiz-adv-x="324" 
d="M157 231q2 -2 9.5 -3t9.5 -4q7 0 7 -1q2 -4 0 -7t-7 -2q-4 -5 -4 -16q0 -2 0.5 -5t0.5 -5q-1 -2 -3 -5t-2 -4q0 -5 -4 -13q-1 -5 -1.5 -17t-2.5 -18q0 -1 -1.5 -4l-2.5 -5q-4 -17 -6 -19q0 -8 -1 -12l-2 -4l-2 -4q-1 -1 -1 -11q-1 -4 -3 -14q-3 -6 -3 -13q0 -1 -4 -8
t0 -8q1 -3 12 -3q2 0 4 -0.5t4 -0.5q19 -2 27 0q2 0 4.5 2t4.5 2q6 0 8 -7q-2 -11 -10 -14q-4 1 -8.5 -2.5t-5.5 -3.5q-33 0 -49 -1q-1 0 -3 -1.5t-4 -2.5q-3 -1 -9.5 -1.5t-8.5 -0.5q-1 0 -3 -0.5t-3 -0.5h-10q-1 0 -3.5 -2t-3.5 -2h-16q-5 -5 -19 -11l-2 1q-2 0 -3 -1
q-1 0 -5.5 -3t-9.5 -2q-2 0 -4 1q-3 8 -1 12q2 6 10.5 11.5t10.5 7.5q3 1 7.5 3.5t6.5 3.5q1 0 5.5 1t6.5 2q1 0 3.5 1t3.5 2h7q2 1 7 3t7 2t5 1t5 1q7 1 12 8q0 16 6 24q0 4 0.5 11t0.5 11q3 6 4.5 22t4.5 21q0 5 1.5 14t1.5 12l5 7q0 14 2 20q0 1 1 3.5t2 4.5
q1 3 0.5 10.5t1.5 12.5q5 13 4 19q-3 4 -19 1q-7 -3 -20 -5q-2 -1 -13.5 -5.5t-18.5 -6.5q-2 -1 -5.5 -2.5t-4.5 -1.5q-5 -2 -7 0q-7 4 -7 12q2 9 8 14q14 6 16 7q2 0 5 1t5 0q3 1 7 4t7 4q8 -1 19.5 2.5t12.5 3.5t3 2t4 2h6t6 1q1 0 5 1.5t6 1.5l18 3h5q5 3 13.5 4
t20.5 0.5t17 -0.5q2 0 4.5 0.5t3.5 0.5h52q10 -10 9 -15q-1 -2 -16 -4q-1 0 -4.5 -1.5t-5.5 -1.5l-28 -3q-4 -1 -10 -1h-9q-1 0 -5 -1.5t-6 -1.5q-2 -1 -7 -1h-8q-10 -2 -14 -2q-1 0 -3 0.5t-4 0.5q-3 0 -7 -2q-3 -1 -11.5 -2t-11.5 -4z" />
    <glyph glyph-name="J" unicode="J" horiz-adv-x="302" 
d="M286 320q-3 -8 -20 -11.5t-20 -10.5q-4 -1 -10.5 0t-9.5 0q-1 0 -8 -3t-11 -1q-7 -2 -9 -10q0 -2 2 -6.5t2 -7.5q0 -5 -1 -8q0 -2 1 -4v-3v-18q2 -23 -2 -33q0 -6 -1 -17t-1 -17q0 -2 -1.5 -9.5t0.5 -9.5q-3 -6 -5 -17q0 -1 -3 -8t-3 -12q-4 -4 -5 -7v-1q-2 -29 -6 -33
q0 -2 -6 -25l-6 -6v-7l-3 -3t-2 -3q0 -5 -4 -11t-4 -9q-2 -4 -4 -6q0 -3 -2 -7q-2 -2 -2 -3q-1 -2 -2 -5q-1 -1 -1 -2q-1 -2 -4.5 -6t-4.5 -6q-1 -1 -2 -3l-1 -1q-6 -8 -14 -14l-3 -3l-1 -2q-2 -1 -6 -1q-1 0 -3 -2t-4 -3q-4 1 -11.5 0.5t-10.5 -0.5q-1 0 -19 16
q-4 1 -20 15q0 2 -2.5 5.5t-2.5 5.5q-1 3 -1 8.5t-1 7.5q0 1 -5 8q0 4 -3.5 14t2.5 12q0 37 2 44q0 1 3 4.5t3 8.5q6 6 18.5 16t17.5 15l24 12h17q2 -1 4 -5q-1 -6 -15 -13q-2 -2 -6 -5t-6 -5q0 -1 -2 -1t-2 -1q-3 -2 -33 -32q-1 -3 -1 -7t-1 -7l-3 -9l3 -11q1 -3 1 -9.5
t1 -9.5q6 -10 11 -15q0 -1 4 -9q6 -8 8 -9v-6q8 -10 19 -14q4 2 8.5 6.5l6.5 6.5q4 6 6 8l1 4q2 2 6 7.5t5 6.5q-1 4 3 9q2 2 2 3q1 2 3 7t4 7v6l3 3t3 4v9q1 1 3 3.5t3 4.5v8q6 9 6 26q1 4 4 8q0 4 3 9.5t3 7.5q1 4 1 10.5v11.5q2 3 5 9q1 5 0.5 18t1.5 18q0 2 2 4.5t2 3.5
v42v40q-5 3 -12.5 -1t-11.5 -4q-2 0 -4 -2.5t-3 -2.5h-5q-6 -3 -14 -11q-2 0 -9.5 -3t-12.5 -2q-15 2 -8 20q1 2 4 4t4 4h4q9 7 12 7q4 3 13 7.5t13 8.5q1 0 4.5 0.5t5.5 0.5q1 0 3.5 2t4.5 2q22 7 44 8q2 0 4 2t4 2q15 3 20 2q5 3 11.5 4t16 0t12.5 -1q12 -6 12 -7z" />
    <glyph glyph-name="K" unicode="K" horiz-adv-x="296" 
d="M276 310q7 -6 2 -19q-4 -3 -4 -5l-1 -2l-1 -2l-4 -4l-10 -10q-1 -1 -3.5 -2.5t-4.5 -3.5q-4 -4 -6 -7q-1 0 -3 -5q-6 -3 -7 -4q-2 -1 -5.5 -5.5t-6.5 -6.5q-9 -2 -22 -17q-4 -1 -10.5 -6t-11.5 -5q-2 -1 -4 -5t-4 -5q-2 -2 -4 -2q-9 -6 -17 -16q-3 -3 -3 -4q0 -2 2 -4.5
t2 -3.5q1 -1 1.5 -3.5t0.5 -3.5q1 -1 3 -5l3 -6q0 -1 2 -5q1 -2 1.5 -7t0.5 -6q1 -2 3 -4l3 -3t1 -2q1 -2 1 -3t2 -3.5t2 -4.5q2 -2 5.5 -6.5t5.5 -6.5q0 -1 1 -3v-1q20 -20 28 -42q1 -1 5 -4.5t6 -4.5q4 -8 13 -19q-1 -4 3 -8q2 -3 3 -4q1 -11 -2 -16.5t-12 -4.5
q-9 7 -20.5 23.5t-17.5 21.5q0 1 -0.5 2.5t-0.5 2.5q-3 3 -12.5 16t-16.5 18v5q-4 3 -9 12t-8 13q0 3 -1 5q-2 2 -5 7t-5 7q-1 10 -6 16q-2 13 -11 23q-2 19 -2 22q1 2 5 2q1 5 16 20q1 0 2.5 0.5t3.5 0.5q14 17 34 28q6 6 14 11q2 0 4 1q8 7 24 23h5q3 2 13.5 14t18.5 17
q0 2 2 6q4 5 19 3zM102 303q2 -1 3.5 -4t1.5 -4q1 -1 4 -2.5t4 -2.5q5 -17 6 -19q0 -4 1 -16.5t0 -21t-4 -14.5q-5 -13 -3 -33q0 -1 -2 -2.5t-3 -3.5q2 -5 -1 -12.5t-3 -8.5q-2 -3 -1.5 -9t-0.5 -10q-3 -3 -6 -10t-5 -9q1 -7 -3 -15.5t-4 -12.5q-1 -2 -3 -5q-1 -1 -1 -2v-3
t-1 -3q-7 -12 -7 -16q0 -2 -2 -4t-2 -3v-5.5t-1 -5.5l-1 -2q-2 -3 -3 -5q-1 -1 -1 -3l-1 -3l-3 -3t-2 -4q0 -1 -1.5 -5t-3.5 -6q1 -7 -3 -14.5t-4 -10.5q-1 -2 -2.5 -4.5t-2.5 -4.5q-1 -3 -1 -13.5t-3 -10.5q-9 -1 -12.5 5t-5.5 17q4 15 3 20q1 1 3 4t3 4q1 2 1.5 7.5
t0.5 7.5l2 2q2 3 2 5v6q0 1 2 3.5t3 3.5t3 5t4 5q-1 6 2.5 12t3.5 10q1 2 3.5 4.5t2.5 3.5v10q0 2 2 5t2 4q1 2 1.5 7t0.5 6t2 3t3 4t2.5 6.5t2.5 6.5q2 22 7 29v10q1 2 4.5 12.5t6.5 13.5q0 4 3 16t2 19q0 2 -2.5 9t-1.5 11q0 2 0.5 4t0.5 3t-1 5.5t0 6.5q-1 1 -3.5 4.5
t-3.5 6.5q0 10 4 16t12 3z" />
    <glyph glyph-name="L" unicode="L" horiz-adv-x="318" 
d="M133 2q-2 -1 -4 -8q-1 0 -3.5 -2t-3.5 -2q-2 -1 -4 -3t-3 -2q-1 -1 -2 -1h-2q-3 -2 -7 -6t-6 -5q-5 -1 -11 -6.5t-11 -6.5q-1 0 -2.5 -2t-3.5 -3q-10 -5 -15 -7q-1 0 -3.5 -2t-3.5 -2q-2 -1 -8.5 -0.5t-9.5 0.5q-8 4 -10 7q0 3 -1.5 9t-0.5 11q0 1 0.5 5t0.5 6q0 10 1 12
q0 1 1.5 5t1.5 6v5q3 14 3 16q5 7 5 8q1 3 1 7.5v6.5t2 4t3 4t1 8q0 1 2 3.5t2 3.5t0.5 6t1.5 7q5 7 5 8v6q0 1 2.5 2.5t3.5 3.5v16q4 4 6 7v11q0 1 2 3.5t3 4.5v5t1 5q0 2 2 5t2 4q1 1 1 4t1 5q1 1 2.5 3.5t2.5 3.5v15q0 2 2 5t3 4q1 3 1 8t1 8q1 1 3 4t2 4v8q0 1 2 4t3 4
q1 5 3.5 17t3.5 20l4 8q2 22 5 25q-1 4 0.5 11.5t1.5 10.5q2 14 5 17q0 2 0.5 5.5t0.5 4.5q9 9 12 9q5 1 10 -4t5 -11q0 -2 -2 -5.5t-2 -5.5q-2 -14 -5 -17q2 -33 -7 -52v-12q0 -2 -2.5 -4.5t-2.5 -3.5q1 -12 -6 -21q0 -11 -11 -35q0 -16 -1 -20q0 -1 -2.5 -3.5t-2.5 -4.5
v-5t-1 -4q-1 -2 -3 -4t-2 -3q-1 -2 -1 -6.5t-1 -6.5q0 -2 -1.5 -4.5t-1.5 -3.5q-1 -3 -1 -9q-7 -12 -7 -17q-5 -8 -5 -18q0 -1 -2 -4t-2 -5q-1 -2 -1 -7t-1 -7l-3 -3t-3 -4v-12q0 -1 -2 -3l-3 -3q0 -1 -4 -13q-5 -24 -7 -27q0 -4 -2 -11.5t-2 -11.5t11 -4q11 11 16 14l7 4
q7 4 10 6l4 4q8 4 11 7q1 1 2 1h3t2.5 2t3.5 3l4 2l4 2l6 3q1 0 3.5 2t5.5 3l3 3t4 2h2q2 0 2 1q1 0 4.5 3t6.5 3q10 10 19 11q9 6 10 6q2 1 3.5 3t3.5 3h5q6 4 18.5 12t17.5 11q4 0 5 1q2 2 8.5 4.5t9.5 5.5q2 1 5 1q2 1 4 3t3 2q13 4 23 -1q5 -3 3 -19q-10 -12 -17 -15
q-4 -1 -8.5 -0.5t-6.5 0.5q-1 -1 -4 -2t-4 -2q-9 -4 -10 -6q-9 0 -16 -7h-6q-3 -2 -8 -6.5t-10 -7.5t-11 -4q-16 -11 -18 -11q-9 -7 -10 -7q-16 -12 -24 -11q-1 0 -5 -3t-8 -2z" />
    <glyph glyph-name="M" unicode="M" horiz-adv-x="365" 
d="M354 312q2 -14 0 -24q0 -1 -2 -4t-2 -4q-1 -3 -1 -9.5v-11.5q-4 -3 -5.5 -12t-2.5 -10l-4 -12q-1 -1 -3 -3.5t-3 -3.5q0 -3 -2.5 -7t-2.5 -6v-4t-1 -4q-4 -8 -11 -15q0 -13 -6 -22q2 -12 -6 -18v-8q-4 -6 -8.5 -19.5t-7.5 -18.5q0 -4 -3 -10l-3 -6t-1 -6q-1 -2 -1 -4
t-2.5 -4.5t-2.5 -3.5q1 -11 -5 -19q-1 -5 -1 -16.5t-1 -16.5q2 -6 10 2q8 2 11 1q4 -5 2.5 -9.5t-6 -7.5t-8.5 -6q-4 0 -8 -3t-6 -3q-1 0 -7 4l-6 3q-2 1 -5 7t-5 7q-1 12 1 23t6 23.5t5 19.5q4 6 5 9q0 3 1.5 8t1.5 8l4 12q0 1 2 3l3 3q0 11 2 14l3 6q2 4 5.5 14t6.5 14
q0 2 2 8q2 1 4 16q1 2 3 4.5t3 4.5q0 5 3 11t3 12q3 3 6 10t5 10q1 4 1 12q0 1 2 3t2 4q2 3 2 9.5v8.5q-4 2 -6 -4l-1 -1l-4 -4q-2 -2 -2 -4q-1 -3 -4 -4q-1 -2 -1 -5q-2 -4 -8 -8.5t-8 -7.5q0 -1 -8 -13q0 -1 -2 -2.5t-2 -3.5q-1 -1 -1 -5q-2 -1 -12 -19q-2 -2 -5 -6t-5 -6
q-1 -2 -1 -6q-5 -5 -8 -9q-5 -9 -8 -17q-4 -1 -7.5 -6.5t-5.5 -6.5q1 -4 -3 -8.5t-4 -8.5q-7 -9 -11 -18q-11 -13 -12 -16q-1 -2 -3.5 -5.5t-3.5 -6.5q-1 0 -5.5 -4t-7.5 -6q-11 -2 -17 0q-4 2 -6.5 5.5t-5 8.5t-4.5 8q2 8 1 24.5t2 23.5q0 3 2.5 9t2.5 10q4 5 6 19
q0 12 1 14t2 6t2 6t1 7v8l3 12q-3 -1 -7 -5q-2 -1 -3 -2q0 -4 -1 -6l-3 -6q-1 -3 -2 -5l-5 -5l-6 -12l-12 -18v-5q0 -1 -2 -3t-3 -4q0 -2 -5 -12t-6 -11l-8 -13q2 -4 -2 -10q-2 -3 -2 -5q0 -1 -0.5 -4.5t-1.5 -5.5t-6 -10.5t-5 -14.5q-1 -1 -2.5 -3.5t-2.5 -3.5
q0 -5 -3.5 -12t-3.5 -10q-4 -5 -8.5 -15t-7.5 -14q-1 -4 -1 -9.5v-8.5q-1 -1 -2.5 -3t-2.5 -4q-2 -11 -5 -12q-6 -6 -14 -6q-7 0 -9.5 7.5t-0.5 15.5l2 2q2 3 2 5q0 1 1 5t1 5t3 5.5t3 8.5q0 2 2 4t2 3t0.5 4t0.5 5q6 8 7 12q10 18 11 24l2 3l3 3q0 4 2 9l2 5q5 16 6 17
q1 9 9 23q1 3 4.5 9t4.5 8q0 2 0.5 5t0.5 4q7 7 7 12q3 2 5 11q1 1 11 14q0 4 1 5q2 3 6 7.5t4 5.5q1 6 6.5 15t6.5 12q2 2 5 6.5t5 6.5l1 2q1 2 1 3q1 1 3.5 4.5t4.5 4.5q0 1 3 4.5t4 5.5q1 0 1 2t1 2q2 3 7 8t7 8h13q0 -2 3 -5t4 -6q1 -5 -1 -21q0 -1 0.5 -3t0.5 -3
t-1.5 -3.5t-1.5 -4.5q-2 -5 -6 -11v-5q-3 -6 -2.5 -27.5t-4.5 -24.5q0 -11 -6 -31.5t-6 -31.5q0 -7 -4 -19q5 0 10 7q3 4 5 5v2l1 2q5 5 11.5 16.5t9.5 15.5l1 2l1 2q1 2 3 3.5t2 2.5q1 2 1 5q1 2 5 6.5t5 6.5q0 4 1 5q1 2 3 3q2 2 2 4q4 4 5 6q1 1 1 3t1 3l5 5q0 2 2 4
q5 7 10 13v5q0 1 3 4.5t3 6.5q1 2 4 5t4 5l9 9q1 1 3 5l3 6l5 5q7 11 11 13q1 5 23 26q4 0 12 6h15q2 -1 5 -4z" />
    <glyph glyph-name="N" unicode="N" horiz-adv-x="340" 
d="M327 279q2 -7 -1 -20t-3 -20q-3 -5 -5 -22q-4 -6 -4 -7q-1 -4 -4.5 -12.5t-3.5 -14.5q-4 -4 -6 -19q-3 -6 -4 -7q0 -12 -6 -18l-6 -12q-1 -4 -1 -11.5v-10.5q-1 -4 -5 -8q-2 -9 -5 -12q-1 -1 -1 -3.5t-1 -3.5q-1 -4 -5.5 -10t-5.5 -10l-5 -5q-1 -5 -7 -13t-6 -15
q-4 -6 -12 -16q-14 -5 -24 -11l-12 -4q-2 0 -6 2t-6 2t-4 2q-1 2 -2 2t-3 1t-3 1q-6 6 -8 7q-2 3 -4 7t-4 7q0 1 -2 4t-2 5v30q0 30 3 42q-3 15 8 28q0 3 0.5 8.5t0.5 7.5q6 18 3 23q-2 -1 -4.5 -3.5l-3.5 -3.5q-1 -2 -4 -6.5t-3 -8.5l-5 -5q-2 -6 -9 -14.5t-8 -10.5l-2 -6
l-10 -10q-1 -2 -1 -6q-3 -2 -5 -5q-1 -2 -12 -19v-4q-17 -19 -18 -24q-1 -1 -5 -5.5t-6 -7.5q0 -2 -2 -5t-2 -4q-1 -1 -3 -4.5t-4 -4.5q-1 -3 -12 -16q0 -2 -3 -5.5t-3 -5.5q-1 -3 -1 -8.5t-1 -8.5q-6 -6 -12 -6q-8 8 -9 12q0 5 3 11t2 12q0 1 3 6t4 9q0 1 2.5 4.5t2.5 6.5
q8 11 17 20q0 2 5 9q0 1 0.5 2.5t1.5 2.5q2 2 4.5 8t5.5 8v2q1 2 1 3q5 4 11.5 14t10.5 14q3 9 18 24v6q1 2 5 6v3l1 2q4 4 12.5 16.5t14.5 17.5q2 3 7 8q1 1 1 5q3 3 10 11t12 11q2 6 10 10q6 2 11 0q7 -5 9 -9q0 -9 -3 -15q0 -2 -2 -21q-1 -3 -1.5 -11.5t-2.5 -11.5
q-1 -3 -1.5 -10t-1.5 -11.5t-4 -6.5q0 -8 -4 -18.5t-4 -17.5q-3 -5 -3 -16q1 -5 0 -14t-1 -10q0 -3 3 -10.5t2 -11.5q5 -10 14 -11q7 2 11 1q18 15 20 20q1 2 3.5 8t4.5 8l6 12q1 1 6 11q2 4 4 6q0 1 1 3.5t1 3.5l2 2q2 3 2 5v8.5t1 8.5q1 2 5 6q0 3 5 14q1 4 1 10
q0 1 2 3.5t2 3.5q1 2 1.5 7t1.5 7q1 1 4 7q0 5 3.5 11t2.5 11q2 3 5.5 9.5t6.5 9.5q-1 20 11 46q-4 11 5.5 15t15.5 -3z" />
    <glyph glyph-name="O" unicode="O" horiz-adv-x="236" 
d="M127 239q1 1 11 -2q1 0 5.5 -0.5t6.5 -1.5q4 -1 7 -5.5t4 -4.5q2 -1 19 -15q3 -8 12 -19q0 -3 3 -8t3 -8q2 -2 5.5 -6.5t5.5 -6.5q1 -2 2 -5.5t2 -5.5q0 -2 1 -11t2 -14q4 -17 -1 -21q1 -4 -1 -10q0 -3 -4 -9q-3 -15 -17 -26l-5 -7.5t-4 -6.5q-8 -4 -18 -14h-5
q-5 -2 -8 -6q-5 0 -23 -10q-12 -1 -23 -6q-22 -2 -35 4q-9 -1 -16.5 5.5t-10.5 7.5l-5 5q-4 5 -6 9q-5 5 -10 13q0 2 -2 10.5t-3 13.5t-1.5 12t1 12.5t4.5 9.5q0 10 1 14q1 1 5 6t5 8q1 1 1.5 4.5t0.5 4.5q3 3 4 5q0 1 0.5 2.5t1.5 2.5l6 9q15 18 16 19q-1 7 3 16.5t4 10.5
q13 19 30 18q11 6 26 7zM128 202q-6 -10 -20 -7q-2 -1 -5 -5t-5 -6l-2 -2l-2 -1q-2 -4 -3 -5t-8 -6q-13 -15 -29 -44q0 -7 -7 -16q1 -5 -0.5 -13.5t-1.5 -11.5q3 -13 2 -15q16 -24 19 -26q1 0 3 -1t3 0q7 -6 29 -6q10 0 14 1q2 1 4 3q7 4 12 3q9 6 12 6q1 1 5 3l6 3
q19 17 26 27q1 4 5.5 11.5t5.5 11.5v4q3 9 -1 26.5t-4 19.5q-4 4 -8.5 13.5t-7.5 12.5q-2 2 -2 4q-16 18 -26 25q-1 0 -5 2t-7 2q-2 -1 -2 -13z" />
    <glyph glyph-name="P" unicode="P" horiz-adv-x="238" 
d="M61 32q2 0 3.5 2t3.5 2q4 -4 1.5 -12t-4.5 -11q0 -12 -11 -25q-2 -5 -11 -14h-16q-6 3 -9 9q-2 21 5 30q0 6 3.5 13.5t3.5 12.5q5 10 5 13q1 2 6 7q0 4 3.5 10t2.5 12q3 2 6 7t5 7q-1 5 3 11.5t4 10.5q0 3 -7 9t-5 13q3 5 9 10q10 0 13 7q4 11 6 14q1 7 2 14.5t2 17
t2 14.5q5 7 13 4q3 -1 8 -6t7 -6q3 -6 -4 -17v-10q0 -10 3 -13q3 0 12 -1.5t13 -0.5q2 1 4.5 3t4.5 3t6 1l15 12q4 6 7 12q2 2 8 6.5t8 7.5q2 7 0 23q-5 5 -19 10t-19 9q-42 0 -52 -5q-5 1 -10.5 -2.5t-6.5 -3.5q-5 0 -7 -1q-2 0 -5.5 -1.5t-4.5 -1.5q-6 2 -6 11q2 4 8 9
t8 7q2 1 4 3q7 4 12 3q6 3 9 5q2 0 9.5 1.5t11.5 0.5l8 4q10 0 14 -2q2 0 4 -2q2 0 3 -1q2 -1 5.5 -1h5.5q16 -5 18 -5q2 -1 4.5 -3t3.5 -2q9 -3 24 -20q1 -2 3.5 -5.5t3.5 -5.5q4 -13 0 -26q-1 -2 -3 -5.5t-3 -5.5q-2 -2 -17 -19l-4 -2l-4 -4q-9 -12 -17 -17q-2 -1 -12 -8
l-15 -6q-2 0 -4 -2t-3 -2t-5 -1t-5 -2q-3 -1 -17 -8q-10 3 -18 -5l-6 -12q1 -6 -2.5 -14.5t-3.5 -13.5q-3 -3 -6.5 -9t-5.5 -9v-5q0 -1 -2 -3t-3 -4q0 -3 -4.5 -10t0.5 -10z" />
    <glyph glyph-name="Q" unicode="Q" 
d="M274 -17q-2 0 -5 2q-4 2 -7 1q-8 5 -20.5 18.5t-15.5 16.5q-5 1 -9 9q-1 1 -4 6t-4 7q-7 4 -13 -0.5t-8 -8.5q-4 -2 -14 -12q-4 -1 -12 -7h-6q-1 0 -2.5 -2.5t-3.5 -3.5q-1 0 -12 -5q-2 0 -5 -0.5t-5 -0.5l-7 -7h-3l-1 1q-2 0 -4.5 -2t-3.5 -2q-2 -1 -17 -1q-2 0 -6 -2
t-7 -1q-1 0 -4.5 1.5t-5.5 1.5h-5.5h-4.5q-2 1 -5 3q-4 3 -8 3q-1 1 -6 5t-7 7q-1 2 -3.5 4.5l-3.5 3.5l-6 12q-1 27 0 56q1 2 3 4.5t2 3.5q1 2 1 7v7q0 1 2.5 3.5t2.5 4.5v6q3 2 6.5 7.5t4.5 6.5q0 12 6 18q0 1 0.5 2.5t0.5 2.5l3 3t2 3t6 16v5q21 27 24 29q-1 2 2 7l6 3
q8 6 11 10l9 6q4 1 16.5 0.5t16.5 1.5q32 0 41 -5q8 -2 10 -2q2 -1 4 -3t3 -2q2 -1 6 -1q6 -6 11 -6q15 -12 31 -34l6 -12q1 -1 1.5 -3t0.5 -3q2 -2 4 -6q2 -2 1 -14t-1 -17q-1 -2 -5 -6q0 -4 -1 -8t-2.5 -8t-2.5 -7q0 -1 -5 -6q-1 -2 -1 -5q-3 -2 -5 -6.5t-3 -5.5t-7 -6.5
t-7 -9.5q2 -5 9 -12.5t9 -12.5q1 -2 4 -4t4 -4l6 -9q1 -1 4 -5t4 -7l3 -3t3 -4q-1 -4 3 -10.5t1 -12.5zM202 207q-4 0 -12 6h-4q-2 1 -4 3q-1 2 -2 2q-8 3 -18 4q-3 0 -9 2q-4 0 -8.5 -2.5t-6.5 -2.5q-2 -1 -6 -1h-6l-2 -2q-1 -2 -2 -3t-2.5 -1h-2.5q-2 -1 -5.5 -5t-5.5 -5
q-7 -7 -10 -11q0 -1 -6 -10v-6q-3 -3 -6.5 -9t-5.5 -8q1 -9 -1 -23q8 -6 8 -18q-2 -8 -11 -3q-2 2 -2.5 8.5t-1.5 8.5q-7 2 -9 -2q-1 -1 -1 -5v-6q-1 -2 -3 -4t-3 -4q1 -4 -2 -8q-2 -3 -2 -4q0 -4 -2 -16q-7 -9 -5 -40q3 -3 7.5 -10t7.5 -10q15 -2 20 -4q12 5 38 3l3 3t3 2
t13 6q1 0 2 1t2 1t4.5 2t6.5 2q7 7 11 7q2 2 13 10t13 15q-11 13 -11 24l-6 9q0 1 -2 3t-2 4v13q9 11 16 13t14.5 -2t11.5 -4q4 -2 3 -8q-1 -3 -6 -4.5t-7 -3.5q0 -4 4 -8q2 -3 3 -4t1 -5v-6q4 -2 11 3q0 1 0.5 2.5t0.5 2.5q2 2 5.5 8t5.5 8q0 1 0.5 3t0.5 4t2 4t2 3t3 16
q0 1 1.5 5t1.5 6q0 3 -3 8.5t-3 9.5q0 1 -2 3.5t-2 4.5q0 3 -2 5q-10 6 -26 20z" />
    <glyph glyph-name="R" unicode="R" horiz-adv-x="234" 
d="M126 47q-3 6 -12 14t-12 12q-1 1 -5 1q-8 17 -16 15q-3 -1 -4 -5q-1 -3 -2 -5q0 -1 -2 -3q-4 -8 -3 -12q-2 -2 -5.5 -8.5t-6.5 -8.5v-6q0 -1 -2 -3t-3 -4v-12l-6 -6q0 -9 -9 -25q-15 -5 -20 2v18q0 2 2.5 5t2.5 5q1 2 1 6.5v6.5q0 1 1 3l1 2q0 1 -1 5t-1 6q1 2 3 4l3 3
q4 8 4 17q1 2 4 4l3 3q0 3 3.5 9.5t1.5 13.5q1 2 3 3.5t3 3.5q1 3 0.5 10t1.5 9q0 2 2 4t2 3q5 13 6 14q0 4 4 11.5t2 15.5q0 1 2 3t2 4v11q-5 14 -4 20q8 10 0 17q-1 7 9 24q10 2 16 -3q6 3 10 7q0 4 1 5q0 1 4 5q6 14 21 27q4 0 8 3t5 3h17q15 -9 19 -14v-2q1 -1 1 -2
q7 -6 10 -20.5t0 -28.5l-2 -6q-1 -3 -1.5 -10.5t-1.5 -10.5q-6 -11 -5 -13q-3 -3 -6.5 -10t-5.5 -9v-4q-5 -6 -16 -16t-16 -16q-2 0 -11 -7q-1 -1 -3.5 -3t-4.5 -2h-4q-2 -1 -3.5 -3.5t-2.5 -3.5h-5q-5 -3 -5 -8q0 -3 7 -6.5t7 -6.5q7 -5 18.5 -17t18.5 -17q1 -1 2 -3t2 -3
q2 -2 6.5 -6t7.5 -6q2 -5 13 -16l18 -24q-1 -6 4.5 -11.5t6.5 -8.5t1 -12q0 -3 2 -10t2 -10v-23q-3 -6 -8.5 -1.5t-7.5 8.5q1 5 -2 10.5t-3 7.5q-1 2 -1 5v4q-6 12 -6 13q-6 6 -16 20.5t-17 20.5q-1 1 -1 2q-1 2 -1 3q-3 2 -10 9.5t-11 10.5h-2zM140 266q0 -1 -0.5 -2.5
t-0.5 -2.5q-9 -11 -16 -16q-10 -18 -12 -20q0 -1 -0.5 -4t-0.5 -4q-1 -1 -6 -19q-4 -8 -4 -12v-11t-2 -13q-5 -8 -4 -12q6 -4 13 2.5t9 7.5q1 2 5 5t5 5q5 0 7 1q2 6 9 13q1 1 4 6.5t5 7.5v5q1 1 3 3.5t3 3.5q0 2 0.5 4t0.5 4q0 1 2 3t2 4q1 3 1.5 16.5t-0.5 18.5
q0 1 -2.5 4t-2.5 4q0 6 -2 6q-7 3 -12 -4q-2 -3 -4 -4z" />
    <glyph glyph-name="S" unicode="S" horiz-adv-x="240" 
d="M104 245v-12q1 -2 5 -4.5t5 -3.5q6 0 14 -3.5t14 -3.5q2 -3 11 -5t12 -6q1 -1 3 -1h2q5 -2 13 -10q4 0 5 -1q2 -2 10 -7t12 -10t4 -14q4 -6 6 -8q1 -19 0 -39q-6 -9 -6 -11q-3 -4 -8 -12.5t-8 -12.5q0 -3 -5 -11q0 -1 -0.5 -2.5t-1.5 -2.5t-3 -2l-1 -1q0 -1 -0.5 -2.5
t-1.5 -2.5q-2 -3 -7 -7t-6 -5t-2.5 -2t-2.5 -1q-9 -7 -11 -13q-13 -8 -14 -8q-7 -11 -17 -12q-8 -8 -13 -11h-1q-1 -1 -2 -1q-2 -2 -17 -12q-1 0 -2.5 -1.5t-3.5 -2.5l-2 -1q-3 -1 -4 -2q-1 0 -2.5 -2t-3.5 -2h-8l-2 -2q-3 -2 -5 -2q-1 -1 -3 -1.5t-3 -0.5q-15 -6 -21 -6
q-11 9 -15 15v11q0 1 2.5 3.5t2.5 4.5v4t1 4q7 9 7 13q4 4 14 13t15 14q3 1 7 3.5t6 2.5l6 6q6 2 16 8t13 8q3 0 9 1t10 0q0 -1 1 -2q1 -8 -9 -13.5t-11 -7.5h-5q-2 -2 -5 -4.5t-4 -3.5q-8 -8 -13 -12q-6 -4 -10 -9l-12 -9v-6q-1 -2 -5.5 -5.5t-6.5 -6.5q3 -4 15 4
q11 -2 24 11l1 1h4q2 2 10.5 7t11.5 9q6 2 15 9.5t14 9.5q9 9 15 13q0 3 2 5q4 3 11 11.5t11 12.5q-2 6 5 15q3 9 5 10l3 14l3 6q2 7 -2 18q-1 4 -5.5 10t-5.5 9q-7 3 -12 9q-4 0 -8.5 3.5t-7.5 3.5q-2 1 -4 3q-2 1 -3 2h-18q-8 6 -16 6q-20 15 -26 18q-1 2 -6 10t-7 14
q6 14 11 19v5l8 8q3 3 9.5 9t9.5 9h1q2 1 4 1q16 14 40 17l8 4q1 0 3 -1t4 -1l21 3q20 -10 8 -22q-17 -7 -20 -7q-1 0 -3 0.5t-3 0.5q-3 1 -10.5 0t-9.5 -1t-4 -2t-4 -3h-6q-2 -1 -4 -3l-3 -3l-1 -1h-3q-5 -4 -14 -12.5t-13 -12.5z" />
    <glyph glyph-name="T" unicode="T" horiz-adv-x="308" 
d="M51 245q-1 -1 -2 -7t-2 -7q-5 -2 -7.5 -1t-6.5 3.5t-7 2.5l-8 8q0 2 0.5 5.5t0.5 4.5q5 8 12 12q3 3 10 4q5 0 7 1t5 2t4 2q10 4 12 7q7 -2 15 2t13 4q2 0 3 2q3 2 4 3q3 0 10 2.5t9 2.5h12q2 0 6.5 0.5t7.5 0.5q2 1 7 1h8q20 5 26 5h10.5t12.5 1t8 3h1q6 -1 21 -0.5
t21 -1.5q4 -1 11.5 -1t11.5 -1q7 -2 7 -7t-9 -5q-2 0 -4 -2t-3 -2q-2 0 -4 1.5t-4 1.5t-5.5 -2t-5.5 -2q-5 -1 -19 -0.5t-19 -1.5q-2 -1 -5 -3q-1 -1 -2 -1q-6 1 -16.5 -2t-13.5 -3q-5 -1 -16.5 -1t-17.5 -1l-4 -2l-4 -2q-7 -1 -21 -1q-2 -1 -4 -3t-3 -2q-16 0 -21 -6
q-3 0 -15 -6q-7 0 -17 -6q-4 0 -10 -2zM158 264q5 0 9 -5l3 -3q5 -17 -4 -30q0 -17 -5 -23q3 -4 -1 -20q-4 -19 -7 -22q0 -11 -7 -21v-19q0 -2 -2 -4t-2 -4q0 -1 -1 -3t-1 -3q-2 -3 -4 -7q0 -1 -1 -4t-1 -4q0 -2 -2 -5t-2 -4v-7q-1 -1 -3 -3.5t-3 -4.5t-1 -7t-1 -7
q0 -1 -2 -3.5t-2 -4.5v-4t-1 -5q-1 -1 -2.5 -3.5t-2.5 -3.5q1 -5 -3 -12q-2 -4 -3 -7v-11q0 -1 -2 -3.5t-3 -4.5t-1 -7v-7q-4 -8 -8 -10q-9 -2 -15 9q-1 7 3 19t2 22q8 10 7 22q3 3 5 12t5 12q0 3 6 18q1 3 1 8q1 1 3 3.5t3 4.5q-1 4 5 22q1 3 1 10q0 2 2 5.5t2 5.5q1 2 3 8
t4 9q0 29 5 35v4t1 5q0 2 1.5 4.5t1.5 3.5v10q0 2 3 8v7.5t1 6.5q0 2 2 6t2 6q9 9 12 10z" />
    <glyph glyph-name="U" unicode="U" horiz-adv-x="232" 
d="M75 307q3 -3 4 -11t2 -11q-4 -14 -4 -19q-4 -8 -5 -12v-17q0 -2 -2 -8v-15l-4 -8q-2 -5 -4 -16t-2 -13q-2 -3 -4 -7q-1 -4 -1.5 -11.5t-1.5 -13t-3 -9.5q0 -3 -0.5 -12.5t-1.5 -15.5q0 -1 -2 -3.5t-2 -3.5v-38q0 -1 -1 -5.5t0 -6.5t3.5 -4t2.5 -3q1 -16 15 -26
q3 1 8 -0.5t8 -1.5q1 0 3 1t3 1h13q2 0 5.5 2.5t5.5 2.5q2 3 25 23q4 2 5 4q2 2 6 8t7 9q0 2 11 18q1 1 1 5q5 10 5 12l3 3t3 4q0 14 6 23q-1 4 4 20l4 31q0 1 3 7q0 3 -2 9.5t-2 9.5v10q0 2 -1.5 7.5t-1.5 7.5q-4 8 -4 12q1 3 8 10q4 1 12 1q4 -1 6.5 -4t4.5 -7t4 -6v-31.5
t-1 -31.5q0 -3 -2 -8.5t-3 -9.5q-2 -30 -5 -34q0 -2 -0.5 -5.5t-0.5 -5.5q-1 0 -5 -7q1 -6 -2.5 -11.5t-3.5 -10.5q-6 -6 -7 -12q-14 -21 -18 -30q-8 -4 -10 -11q-3 -2 -10.5 -10.5t-14.5 -10.5q-8 -6 -12 -10q-5 -1 -11.5 -5.5t-8.5 -5.5q-14 -4 -35 0q-1 1 -15.5 7.5
t-19.5 13.5q-1 4 -7 15v7q0 1 -2 4t-3 5q-1 3 -1 9v10q0 1 -0.5 4t-0.5 5q0 5 0.5 17.5t0.5 18.5q0 12 1 15q0 2 2.5 5t2.5 5q1 5 1 14.5v13.5q5 6 5 29q4 6 5 8q0 6 3.5 16t3.5 18q0 1 2 3.5t3 4.5q1 4 0.5 12.5t0.5 12.5q1 1 3 4t2 4v16q2 6 7.5 14t13.5 6z" />
    <glyph glyph-name="V" unicode="V" horiz-adv-x="296" 
d="M78 -29q-2 -1 -7.5 -4.5t-10.5 -3.5l-9 9q-1 8 -1 51q0 5 2 18t2 20q2 29 1 37q0 3 -2.5 11.5t-2.5 13.5v27v24q0 2 -1.5 4.5t-1.5 3.5t-3 26q-1 1 -2.5 4t-2.5 4q1 6 -3 11.5t-4 7.5q-5 1 -9.5 5t-3.5 10l7 5q2 6 4 7q5 10 16 8q2 -4 4 -12q0 -6 1.5 -10.5t5.5 -8.5
t5 -6v-4q4 -3 7.5 -10.5t4.5 -8.5q0 -23 3 -34q0 -1 1 -3.5t1 -4.5q1 -3 0 -7.5t-1 -6.5t0.5 -5t0.5 -4v-26.5t2 -31.5v-26q0 -2 -1 -6q-1 -8 2 -10q4 1 4 6q2 2 4.5 7.5t5.5 7.5q0 4 6 12q0 2 2 8q3 6 12 16l5 8q1 1 4.5 5.5t6.5 6.5q3 11 11 19v5q7 9 7 12q0 1 2 2.5
t3 2.5q1 2 1 6q1 1 2.5 3t2.5 3q1 5 6 11t6 8q-2 4 2 9q1 2 2 3q5 10 6 11t1 4t1 5q0 1 2 3.5t3 4.5q0 5 12 17q0 4 3 8.5t2 9.5l5 5q5 10 18 25q0 3 5 11q0 4 4 7q2 2 3 4q2 8 16 20q2 0 7.5 1t8.5 0q9 -7 8 -16q-3 -4 -7 -16l-8 -5q-3 -2 -12 -15q-1 -1 -1 -4l-6 -6
q0 -4 -1.5 -7t-5 -6t-4.5 -5q0 -5 -1.5 -8.5t-5.5 -8t-5 -5.5q0 -3 -3.5 -8t-3.5 -9q-2 -2 -5 -6.5t-5 -6.5q1 -5 -4 -10l-2 -2v-5q-1 -2 -3 -4l-3 -3q1 -1 0 -3t-1 -3t-1.5 -2.5t-2.5 -3.5t-1 -4.5t-1 -3.5q-3 -4 -8 -13t-8 -13q0 -1 -0.5 -2t-0.5 -3l-6 -6v-7
q-4 -4 -11 -14t-11 -14q-1 -6 -6.5 -12t-6.5 -12q-4 -4 -5 -6v-4q-8 -16 -22 -30l-2 -6q-2 -2 -7.5 -8t-8.5 -10q0 -12 -1 -16q-1 -2 -3 -4t-2 -4q0 -5 -2 -11z" />
    <glyph glyph-name="W" unicode="W" 
d="M258 311q9 0 11 -10q0 -1 -0.5 -3.5t-0.5 -4.5q0 -3 1 -8t1 -7t-1 -8t-1 -10t0.5 -15.5t-1.5 -12.5q-1 -2 -3 -5t-2 -4v-17q0 -2 -2 -4t-2 -4q-1 -3 -1 -9.5t-1 -10.5q-6 -11 -6 -14v-14q0 -2 -2 -4.5t-2 -4.5q0 -1 -6 -19q0 -2 -1 -6t-1 -6q0 -1 -2 -3.5t-3 -4.5l-3 -12
q-2 -2 -4 -6t-4 -6q0 -8 -1 -13q0 -1 -1.5 -2.5t-2.5 -3.5q-1 -1 -1.5 -2t-1.5 -2q0 -1 -2.5 -3.5t-2.5 -3.5q-2 -2 -12 -10q-9 -4 -24 -3q-8 6 -12 7q-4 3 -8 10t-7 10q0 3 -5 17q-4 10 -6 12l-3 8q-2 1 -4 -3l-2 -3q0 -1 -1.5 -2.5t-1.5 -2.5q-1 -2 -1 -7q-6 -11 -5 -13
q-2 -2 -6 -7l-3 -3t-2 -4q-1 -1 -1 -5l-5 -5q0 -1 -1 -3t-1 -3q-4 -7 -5 -9t-3.5 -5.5t-3.5 -5.5q-6 -15 -26 -37q-10 -5 -19 -8q-3 1 -6.5 3.5t-4.5 3.5q0 6 -6 14q-6 30 -6 32q0 6 2 19t2 17v20t1 19q0 1 1.5 6t1.5 8q0 2 -1 8t0 9q0 3 2 11v10q0 1 1 4t1 4q1 3 -0.5 8.5
t-1.5 8.5l1 2v3q0 3 -1 11t-1 11q0 4 3 11.5t3 8.5q-4 8 -2 17.5t9 11.5q16 -1 16 -25q0 -2 -0.5 -5.5t-0.5 -4.5v-18q0 -41 -1 -59q-1 -9 -0.5 -17t-0.5 -16t-4 -12q2 -2 0.5 -8.5t-1.5 -8.5q3 -9 3 -10q0 -2 -1 -6q-2 -2 -2 -4v-14q0 -3 -0.5 -9t-0.5 -10t1 -9t3 -8
q8 10 9 16q4 4 8.5 12.5t7.5 11.5l1 2q0 2 1 2q1 2 3 4q1 2 2 3q1 2 3 6.5t3 6.5t3 4l3 3q2 2 4 6q1 2 1.5 6t0.5 5q6 13 6 15q1 2 5 8.5t6 10.5q2 2 8.5 9t11.5 10h12q5 -5 8 -9l6 -45l6 -9q1 -1 1 -3.5v-3.5q0 -2 3 -6t2 -8q1 -3 5.5 -3t5.5 2v7q7 7 7 11q4 4 8.5 13
t7.5 13q7 23 7 31q1 1 2.5 3.5t2.5 4.5q0 2 0.5 5t0.5 4l4 8l6 24q0 2 0.5 9.5t1.5 10.5l3 8q3 7 2 12q1 2 2.5 4t2.5 4q1 3 1 16t4 17q2 30 9 39v1z" />
    <glyph glyph-name="X" unicode="X" horiz-adv-x="298" 
d="M101 94q-1 0 -3 -2t-3 -2q-3 -2 -10 -8t-11 -9q-1 0 -2 -2q-12 -7 -6 -13q2 0 4 2t3 2q6 -4 -2 -8q-1 -3 -6 -8q-1 -2 -3 -4q-8 -8 -10 -8q-2 -1 -6 -1q-2 -1 -4 -1q-2 -1 -4 -2.5t-4 -2.5q-5 0 -7 1t-5 6q0 1 -2 3.5t-2 4.5t3 5.5t2 6.5q3 3 13 16.5t18 20.5t18 11
q4 5 13.5 13t13.5 13q-1 17 -12 37q0 1 -0.5 4t-0.5 5t-2 4t-2 4q-1 4 -7 12v5q-9 12 -10 17l-3 21q0 1 -3.5 5.5t-4.5 7.5q-4 13 0 17q2 6 12 6l3 -3q15 -16 6 -25q2 -3 6 -6q3 -2 5 -4q0 -1 4 -7t3 -11l3 -3t2 -4l6 -12q-1 -3 6 -14v-5q7 -12 7 -15q2 -2 4 -7t3 -7
q3 0 6 2.5t6 2.5q9 6 12 11q9 3 26 20q3 4 10 11q1 1 4.5 4t5.5 5q12 12 19 18h1q2 1 3 1q3 2 12 11t15 14l8 4q2 2 6.5 8t7.5 8q4 0 4 2q1 0 3 2q13 9 15 2q1 -3 -4.5 -10t-5.5 -10q-8 -10 -13 -15q-2 -3 -7.5 -7.5t-7.5 -6.5q-8 -11 -11 -13q-3 -4 -8 -5l-4.5 -4.5
t-6.5 -4.5q-3 -2 -9.5 -11t-12.5 -12q-7 -9 -16 -16l-2 -1h-2q-17 -14 -19 -17q-3 0 -5 -1q-11 -9 -17 -16q0 -1 -1.5 -2.5t-1.5 -2.5q-2 -6 1.5 -14t3.5 -12q1 -1 3 -3.5t3 -3.5q-1 -4 2 -8.5t3 -5.5v-5.5t1 -6.5q1 -1 3 -6t3 -7t3 -3.5t2 -2.5v-2q1 -2 1 -3l4 -4
q2 -4 3 -7q0 -1 2 -4t2 -5q1 -2 3 -3.5t2 -2.5q0 -8 9 -10q1 -1 4.5 -4t4.5 -6q4 -13 -9 -22q-1 0 -5.5 -1t-6.5 0l-9 9q-1 2 -4.5 5.5l-4.5 4.5t-3 5l-4 4q-1 2 -1 6.5v6.5q0 1 -2 3t-2 3t-0.5 2.5t-1.5 2.5q-6 12 -6 13q0 2 -2 4q-3 2 -3 3l1 2q0 2 -1 3q-1 2 -3 4t-2 4
q0 4 -3 10t-4 11q-1 2 -3 4q-1 2 -2 3q0 5 -3 10.5t-6 5.5q-1 0 -6 -4z" />
    <glyph glyph-name="Y" unicode="Y" horiz-adv-x="260" 
d="M173 219q-5 0 -8.5 -2t-7.5 -6t-7 -5q0 -1 -4 -1q-2 -2 -5.5 -4t-5.5 -3l-4 -4q-3 0 -5 -1q-11 -6 -16 -5q-2 -1 -4 -3l-3 -3q-16 0 -21 -6q-12 -2 -18 -2q-15 3 -16 3l-2.5 2.5t-3.5 2.5q-12 6 -14 8q-1 1 -2 3l-1 2q-6 8 -7 15q0 21 10 53q-2 17 -1 25q12 22 31 21
q5 -3 5 -8q0 -4 -6 -10t-7 -11v-13q0 -2 -3 -4t-3 -4q-1 -3 1.5 -6.5t2.5 -5.5t-1.5 -21t3.5 -19q4 -4 12 -5t14 4q6 -1 14 2.5t13 3.5q9 7 23 10q2 1 4 3l3 3t5 1q14 11 17 12q1 0 5.5 4t7.5 6q9 9 12 11q1 1 4 2l2 2l3 6q1 1 4 4.5t4 5.5l4 4t5 4q0 4 3.5 9t2.5 10
q4 8 13.5 12.5t20.5 -0.5q5 -9 -3 -22q-1 -1 -1 -3l-2 -2q-1 -2 -10 -11q0 -1 -6 -13q-1 -1 -1.5 -3.5t-0.5 -3.5t-4 -5q0 -4 -1 -6l-4 -4q-1 -1 -1 -2.5t-1 -2.5l-3 -3t-2 -3l-6 -12q1 -2 0 -5.5t-1 -4.5q-5 -5 -5 -23q-3 -3 -6.5 -10l-4.5 -9q0 -5 -3.5 -12.5t-2.5 -14.5
q-12 -14 -12 -31q-3 -3 -6 -9.5t-5 -8.5q0 -4 -2 -9l-2 -6q0 -1 -0.5 -4t-1.5 -4q-6 -15 -6 -16q-2 -3 -6 -7v-2q-1 -2 -1 -3q-4 -3 -8 -12.5t-7 -12.5q0 -4 -3.5 -10.5t-3.5 -11.5l-6 -6q0 -2 -0.5 -4t-0.5 -3q-4 -5 -8 -18t-7 -18q-1 -2 -1 -8q0 -2 -3 -4t-3 -4t-5 -12
q-1 -5 -1 -16q-6 -8 -7 -12q-4 -4 -9 -5q-8 1 -11.5 9.5t3.5 14.5q-1 6 0 11.5t3.5 11.5t3.5 10q3 2 5 10t5 10q2 4 2 8q2 3 4.5 10t5.5 10q0 1 1 3v2q3 4 7.5 18.5t9.5 19.5q0 1 0.5 3.5t0.5 3.5q3 5 9.5 20.5t12.5 22.5q0 5 6 13q0 3 5 13q0 1 4 12.5t8 15.5q0 3 2 7
q1 2 2 3.5t2 3.5t1 5.5v5.5q1 2 3 4.5t2 3.5q-1 2 -0.5 5t0.5 4q1 1 2.5 4t2.5 4q1 5 4.5 13.5t4.5 14.5z" />
    <glyph glyph-name="Z" unicode="Z" horiz-adv-x="380" 
d="M301 255v-17q-1 -2 -4.5 -5t-5.5 -6t-2 -7q-5 -6 -11 -11v-3t-1 -3q-3 -5 -11.5 -13.5l-10.5 -10.5q-1 -1 -1 -5q-3 -2 -9.5 -9t-10.5 -10q-2 -1 -6 -3.5t-6 -4.5t-5 -5.5t-5 -4.5q-1 -1 -3.5 -3t-3.5 -3l-3 -3t-4 -3q-3 1 -6.5 -2.5t-4.5 -3.5q-1 -1 -4 -1q-1 0 -2 -2
l-1 -2q-3 0 -5 -2l-9 -6q-6 -3 -14 -11.5t-13 -11.5q-3 -4 -10 -10.5t-10 -10.5q-7 -5 -9 -11q2 -2 10 -2.5t10 -1.5q12 0 16 2q2 1 6 -2.5t6 -3.5q3 -1 9.5 -1h10.5q25 0 28 -3l2 1h2q2 -4 22 -3t26 0q1 0 3.5 -1.5t4.5 -1.5t5.5 1t4.5 1q3 1 8 -0.5t7 -1.5q1 0 5 -1.5
t7 -0.5q1 0 4 2t5 3h17.5t15.5 4q2 -2 12 -4q3 -3 7 -13q-10 -15 -13 -16q-6 1 -14 -5q-5 -1 -15 -1h-15q-1 0 -4 -0.5t-5 -0.5t-8.5 0.5t-9.5 0.5h-30q-2 0 -5.5 1t-5.5 1h-6q-8 0 -11 4h-15.5t-18.5 2q-2 0 -6 1.5t-6 1.5q-1 1 -3 0t-3 -1t-3 1t-4 1q-12 1 -17 5
q-32 0 -40 3q-6 1 -20.5 -2t-19.5 1q-4 3 -4 21q7 5 7 10q13 15 22 22q1 0 1 2t1 2q5 4 16 14.5t19 15.5q4 5 9 9.5t11.5 9.5t9.5 8q6 2 14.5 9.5t14.5 9.5q5 4 19.5 17t23.5 19q1 2 4 6.5t4 8.5q4 6 5 10q1 2 5.5 5.5t5.5 5.5q-2 5 -13 2l-8 -5h-12.5t-12.5 -1q-2 0 -5 -2
t-5 -2q-7 1 -17.5 -2.5t-15.5 -3.5q-4 -1 -13.5 -1.5t-13.5 -0.5q-2 0 -8.5 0.5t-9.5 0.5q-10 -2 -16 -3q-6 -2 -17 -2q-8 -4 -13 -4q-2 0 -6.5 -1t-7.5 -1q-1 0 -3 1t-3 1t-9.5 -1.5t-13.5 -0.5q-12 9 -13 14q0 6 8 14q9 2 44 2q2 0 6 2.5t6 2.5t41 3q4 3 14.5 2.5
t16.5 0.5q1 0 4 2t5 3q5 1 14.5 1h15.5q1 1 3.5 2.5t3.5 2.5q3 0 12 1.5t14 0.5l8 4q4 1 21.5 1t23.5 3q15 3 22 -7z" />
    <glyph glyph-name="bracketleft" unicode="[" 
d="M142 340q-1 -3 1 -6.5t2 -5.5t-1 -6q-2 -2 -2 -4q-3 -5 -2.5 -19.5t-1.5 -21.5q-5 -10 -4 -15q-3 -3 -4.5 -14t-2.5 -14l-3 -3t-2 -3v-22q0 -2 -3 -6t-3 -6v-10.5t-2 -12.5q0 -2 -2 -4.5t-2 -3.5v-9q0 -2 -2 -4.5t-2 -3.5t-0.5 -4.5t-1.5 -4.5q0 -1 -2 -4t-2 -5v-2.5
t-1 -2.5q0 -1 -2.5 -3t-2.5 -4t-0.5 -10t-1.5 -12q-1 -2 -5 -6.5t-5 -5.5q0 -11 -2 -27l-15 -21q1 -2 -2.5 -6t-3.5 -5q-2 -7 -5 -8h-6t-6 -2q0 -3 8 -3l12 -12q4 1 18 -4q5 -3 29 -2t33 0q13 -8 35 -6h12q5 -2 9.5 -10.5t4.5 -9.5q-1 -2 -0.5 -6t0.5 -5q-1 -2 -3.5 -5
t-2.5 -4q-1 -1 -3.5 -3t-4.5 -3q-9 -3 -26 14q-5 0 -15 4q-18 0 -26 1q-8 3 -16 3q-6 1 -17 0.5t-16 0.5q-12 4 -28 6q-1 1 -3 2q-4 4 -10 3q0 1 -7.5 7t-7.5 13q0 2 2.5 4t2.5 4t1 5t1 4q1 2 5 4t5 3q0 3 2.5 7.5t2.5 6.5t0.5 7t1.5 8q0 2 3 4q1 2 2 3v6q1 2 3 4l3 3
q1 2 0.5 9t0.5 10l3 6t2 5v9q0 1 3.5 6t3.5 9q3 2 5 13q0 1 3.5 6.5t2.5 10.5q0 1 5 8v11t1 10q0 2 2 4t2 4q1 5 1.5 14.5t0.5 12.5q5 14 6 17l2 3q2 3 2 4q0 12 1 17q1 1 2.5 3.5t2.5 3.5q1 6 1 16.5v15.5q2 6 2 11q1 10 0 20q5 13 3 22l-2 3q-2 3 -2 4q0 3 4 7q0 6 3 7
q9 2 10 3q6 -3 28.5 -2t25.5 -5q9 0 26.5 -0.5t26.5 -0.5q1 0 3.5 -2.5t4.5 -2.5q3 0 12.5 -0.5t14.5 -1.5q4 -3 6 -23q-3 -7 -7 -7q-1 0 -10 2q-1 0 -6 -1t-8 0q-10 2 -17 2q-22 0 -25 5q-2 0 -7 1.5t-8 2.5q-3 0 -13.5 0.5t-15.5 1.5q-10 3 -12 -1z" />
    <glyph glyph-name="backslash" unicode="\" horiz-adv-x="272" 
d="M183 15q-2 2 -3.5 8t-3.5 8q0 20 -2 25l-4 5q-2 1 -4 5t-3 5q0 1 -0.5 4t-0.5 5l-2 2q-2 2 -2 4q0 1 -0.5 2.5t-0.5 2.5q-3 2 -6 7.5t-6 7.5q-1 3 -3.5 7.5t-3.5 7.5l-5 10q-7 9 -5 14q-6 6 -12.5 19t-9.5 17v2t-1 2q-1 2 -3.5 3.5t-3.5 2.5v6q0 1 -2.5 3t-2.5 3v5
q-3 3 -8 12t-9 13q0 1 -6 10v6q-6 6 -7 11q-15 19 -16 19q0 1 -0.5 3t-0.5 3t-2.5 2.5t-2.5 2.5v6q-1 3 -6 9t-6 11q-1 2 -6 6t-5 9q6 10 14 11q9 -1 19 -11q9 -3 24 -18q1 -3 0.5 -11t1.5 -10q14 -23 21 -31q0 -2 0.5 -3t0.5 -2t3.5 -4t2.5 -7l3 -3t2 -4q0 -3 7 -10
q0 -3 1 -4l2 -4q3 -5 2 -10q2 -3 6 -6.5t5 -5.5q1 -1 1 -4q1 -2 2.5 -3.5l2.5 -2.5t1 -3t1 -3q1 -2 4.5 -4t4.5 -4q0 -3 3.5 -7t3.5 -5q1 -1 1 -3v-3t2 -3t2 -3q0 -4 1 -5l9 -12q0 -3 8 -19l6 -12q0 -3 3 -7.5t3 -8.5q2 -2 6 -4q1 -7 8 -14t8 -10q2 -2 6 -13q0 -1 1 -3.5
t1 -3.5q2 -4 7.5 -6.5t6.5 -3.5t6 -21l3 -9q2 -3 5 -5v-4q5 -5 6 -7q0 -3 -3.5 -7t-3.5 -6q-13 -2 -19 -1q-5 3 -11 10t-9 10q0 1 -1 2.5t-1 2.5q-5 3 -10.5 11t-7.5 10h-3.5t-3.5 1z" />
    <glyph glyph-name="bracketright" unicode="]" horiz-adv-x="308" 
d="M20 -34q-2 12 1 16q1 3 6.5 6t6.5 4q19 -1 40 6h49h26q2 0 4 2q2 3 3 3q5 0 13 6q2 0 7 0.5t8 0.5q2 0 4 2.5t3 2.5q3 0 5 1q1 0 3 2l3 3q1 0 3 0.5t3 0.5q7 7 7 8q1 1 0 3t-1 3v6v7q0 3 2 7l2 4q0 5 -2 14t-2 13q2 4 2 7v6t1 6q0 1 2 3.5t3 4.5q1 3 1 8.5v9.5q1 2 3 4
t2 4q0 4 3.5 12.5t2.5 15.5q4 3 6 13t6 13v16q1 2 3 5.5t3 6.5v35q0 22 1 33q1 1 1.5 3.5t0.5 3.5t-0.5 5t-0.5 5q0 2 1 7t0 8q0 2 -1 6q-2 2 -2 4q0 3 0.5 11t-0.5 12q-3 5 -22 3q-9 0 -12 -1q-2 -1 -4.5 -2.5t-3.5 -1.5q-2 -1 -8 -2.5t-8 -3.5q-2 -1 -6 -1t-6 -1
q-5 -3 -15.5 -4.5t-13.5 -2.5q-1 0 -5 1.5t-6 1.5l-6 -3l-6 -3q-7 -2 -16 0l-6 3q-6 3 -13 2q-1 0 -4 -1.5t-5 -1.5q-4 0 -7.5 4.5t-3.5 8.5q0 5 11 13q9 0 19 6q9 1 27 1h28q1 0 4 2t5 3t5 0t5 0t4.5 3t3.5 3q3 1 9 1h10q2 0 5.5 2t5.5 2q1 0 6 0.5t7 1.5t5.5 2.5t4.5 1.5
q4 1 12 1h11q6 -1 9.5 -6t5.5 -9q0 -1 3 -16q0 -8 1 -12q0 -2 2 -4.5t2 -4.5q1 -4 1 -14.5t2 -12.5l-3 -40l-3 -18q0 -1 -1 -4.5t-1 -5.5q0 -5 0.5 -19.5t-0.5 -18.5q-1 -3 -5 -9q0 -2 -1 -4t-1 -4l-3 -6q-1 -3 -1 -7.5t-1 -6.5q-1 -1 -3 -4t-3 -4q0 -20 -1 -24
q0 -2 -2 -4.5t-2 -4.5v-11q0 -1 -2.5 -4t-3.5 -5q1 -7 -2.5 -15t-3.5 -13q0 -3 2.5 -6t2.5 -5q2 -5 -1.5 -15.5t-3.5 -13.5v-17v-15q-1 -3 -5 -7l-5 -5h-8t-9 -1q-3 -2 -15 -11q-5 0 -11.5 -3.5t-12.5 -1.5l-18 -12q-2 -1 -6 -1h-7q-3 -1 -11 -5q-5 0 -8 -1q-2 0 -5 -0.5
t-4 -0.5t-5 0.5t-6 0.5t-4.5 -2.5t-4.5 -2.5q-3 -1 -8 -1t-7 -2q-7 4 -26 3t-28 1q-7 1 -12 8z" />
    <glyph glyph-name="asciicircum" unicode="^" horiz-adv-x="168" 
d="M142 -143q-13 -3 -17 -1q-3 2 -5.5 5.5t-5 8.5t-4.5 7q1 6 0 17.5t-1 15.5q-1 2 -0.5 6t0.5 5t-1 3.5t-1 4.5q0 1 1.5 5t1.5 7q1 6 0 22t1 20q0 1 2 5t2 6q1 10 1.5 31.5t1.5 31.5q-9 2 -14 -13q-5 -5 -21 -14q-2 -4 -7 -10.5t-7 -10.5q-14 -12 -39 -39q0 -2 -2 -6
q-2 -3 -7 -9t-7 -9q-7 -12 -25 -28v-3.5t-1 -2.5q-1 -2 -7 -11t-10 -13q0 -2 -1 -4v-2q-3 -3 -7 -3q-4 -7 -15.5 -10t-17.5 6v7q2 2 6.5 6t6.5 6q0 1 16 23q1 1 1 5q3 3 12 19q5 4 13.5 14.5t13.5 14.5q1 0 1 2l1 2q12 16 17 26q2 1 5 4t5 4q5 7 17 19.5t17 18.5l2 1
q2 1 2 2q20 17 35 33l15 12q1 0 10 6h17q2 -1 4 -5t3 -5v-26q0 -2 -0.5 -5t-0.5 -4q0 -5 1 -13.5t0.5 -15t-4.5 -11.5q0 -23 -5 -35v-32q0 -5 -2 -15v-19q0 -14 2 -17q3 -1 13 2q9 -2 2 -21q-3 -2 -6.5 -10t-7.5 -11z" />
    <glyph glyph-name="underscore" unicode="_" horiz-adv-x="512" 
d="M493 -42q-20 -4 -26 -8q-9 1 -32 0.5t-30 1.5l-8 4q-10 -3 -18 0q-7 0 -17 -4q-26 -2 -39 0q-3 0 -7 2q-2 0 -5 -1t-5 -1t-6 -1t-6 -1q-4 0 -15 1t-17 0q-8 -1 -27 -1h-26q-1 0 -4 -2t-5 -2q-16 -4 -33 3q-3 1 -7 -1t-7 -2t-6 2t-5 2q-5 0 -17.5 1t-15.5 -1q-1 0 -4 -2
t-5 -2q-6 -3 -15 -1q-2 0 -4 2.5t-5 2.5h-22q-2 1 -5 3t-4 2t-4 -1.5t-5 -0.5q-12 3 -18 13q-3 11 8 20q44 0 57 -7h50q2 0 7 1t8 0q2 0 6 -1t6 -1q3 -1 7.5 0t6.5 1t4.5 -0.5t3.5 -0.5q3 -1 9 1q35 3 37 4l18 3q2 0 6 -0.5t6 -0.5q7 0 21.5 0.5t22.5 0.5q33 0 49 -2
q3 1 22 1q5 0 15 0.5t14 0.5q2 0 4 -1l4 -2h8q10 -3 12 -2q2 -1 4.5 0t4.5 1q3 0 12 -1.5t14 -0.5q2 1 4 3t4 3q8 0 10 -1q7 -3 10.5 -11t-0.5 -16z" />
    <glyph glyph-name="grave" unicode="`" horiz-adv-x="154" 
d="M42 350q1 -1 4 -6t5 -7v-6q0 -2 3 -4.5t3 -5.5q3 -3 7 -10.5t6 -10.5q2 -1 6 -3.5t7 -3.5q3 -4 11.5 -11t12.5 -11q4 0 10.5 -4t11.5 -4q5 -5 9 -12q0 -2 1 -9.5t0 -12t-4 -7.5q-2 0 -6 2q-8 6 -10 12q-1 1 -9 5l-2 3q-1 2 -2 2q-2 2 -5.5 3.5t-4.5 2.5q-2 1 -6 1
q-24 14 -32 22l-4 2q-2 3 -15 19q0 1 -0.5 2t-0.5 2q-2 1 -6 10q-2 4 -3 5t-1 2.5t-1 2.5t-5 5.5t-4 7.5l1 3q1 4 2 7q2 8 3 8q16 0 18 -1z" />
    <glyph glyph-name="a" unicode="a" horiz-adv-x="264" 
d="M155 46q-4 -3 -10.5 -9t-8.5 -8q-1 -3 -3 -7q-6 -4 -18 -14q-2 -5 -5 -6q-3 0 -4 -1q-2 -1 -3.5 -2.5t-2.5 -1.5t-3 -0.5t-3 -1.5q-2 -1 -5 -2t-5 -2q-6 -1 -18 -1h-20q-4 1 -15 16q-3 4 -7 16q-4 4 -6 8q0 18 5 22q1 1 1 2.5t1 2.5q3 4 16 16q1 1 9.5 8t15.5 9l6.5 6.5
t11.5 4.5q2 1 4 3t4 2q4 0 8 2t7.5 5.5t6.5 4.5q11 -2 20.5 9t19.5 7q6 -5 8 -14q1 -3 -0.5 -8t-0.5 -7q0 -1 4 -3t5 -4q0 -6 2.5 -16.5t2.5 -17.5q4 -3 9.5 -12t8.5 -12q1 -2 1 -6q16 -12 25 -15q14 -14 15 -16q3 -1 12 -10q0 -11 -7 -14h-6l-12 6q-3 2 -8 5.5t-7 4.5
q-4 1 -10 4t-10 4q-4 3 -7.5 6.5t-8 9.5t-6.5 8q-1 11 -9 19zM143 104l-20 -10q-10 -8 -17 -10h-4t-4 -1q-2 -1 -4.5 -3t-3.5 -2q-4 0 -5 -1q-3 -2 -8 -6.5t-9 -7.5t-9 -4q-3 -2 -6 -7t-5 -7q-5 -14 2.5 -23t22.5 -8q11 7 18 6q3 1 7 5t6 5l6 3q1 1 2 3l1 3q7 5 15 16.5
t11 14.5q1 7 6 12q2 19 4 22q-4 2 -6 0z" />
    <glyph glyph-name="b" unicode="b" horiz-adv-x="208" 
d="M58 69q2 -1 4 1.5t3 2.5q1 1 3 1h2q7 4 19 14t18 14q4 1 9.5 5.5t8.5 5.5q4 0 10.5 0.5t11.5 0.5q13 7 28 5q6 -4 10 -8q-1 -4 3 -8q2 -3 3 -4t0 -8t-1 -9t-2 -5.5t-3 -6.5q-9 -14 -19 -25l-21 -15l-3 -6q-2 -1 -8.5 -6.5t-10.5 -7.5q-3 0 -6 -3t-5 -3q-1 -1 -3 -1h-2
q-2 -1 -19 -10q-3 0 -8 -3t-6 -4h-9q-1 0 -4.5 -1.5t-5.5 -1.5q-9 1 -17 7q-9 6 -11 8q-4 4 -5 12q-7 12 -5 23q5 9 5 37q4 4 6 7q0 9 5 17q1 10 6 18q0 4 1 6q6 6 6 20q0 2 2 4t3 4v8t1 7q1 2 3 4.5t2 3.5q0 5 3 11.5t3 9.5q1 1 2.5 4t2.5 4q0 2 0.5 6t0.5 6l3 3t2 3
q0 11 4 28t3 28q6 7 4 23q0 1 -3 5t-3 6q-1 12 16 21q13 -1 17 -19q-5 -11 -2 -23q0 -2 1.5 -5.5t1.5 -5.5q0 -4 -2 -11.5t-2 -8.5q-1 -2 -1 -5.5v-4.5t-2.5 -7.5t-1.5 -10.5l-6 -27l-6 -6q0 -5 -1 -7q0 -1 -1.5 -3.5t-2.5 -4.5q-1 -3 -1.5 -10t-1.5 -10q0 -1 -1.5 -3.5
t-1.5 -3.5q-1 -1 -1 -5q-1 -2 -3.5 -4t-2.5 -4v-13q0 -1 -2.5 -3.5t-2.5 -4.5q-1 -2 0 -4t1 -3q0 -6 -3.5 -15t-3.5 -13q0 -1 -3 -5.5t-2 -7.5zM150 92q-2 -1 -7 -1.5t-7 -0.5q-13 -11 -14 -11q-5 0 -8 -1t-6.5 -5t-5.5 -5q-11 -7 -13 -7q-6 -9 -22.5 -18.5t-20.5 -12.5
q-2 -11 0 -15q4 -9 16 -6q3 1 12 5q2 1 6.5 1.5t6.5 0.5q17 10 19 10q2 2 6.5 6t6.5 6h4l10 10l10 10q3 7 12 16t12 13v7q-4 4 -12 0q-3 -1 -5 -2z" />
    <glyph glyph-name="c" unicode="c" horiz-adv-x="245" 
d="M131 142q-5 -1 -16.5 -1.5t-16.5 -3.5q-1 -1 -3 -3.5t-3 -3.5t-6 -3.5t-7 -4.5q-6 -4 -9 -12q-2 -2 -8 -8.5t-8 -11.5q0 -6 -5 -16q-1 -3 -1.5 -7.5t-0.5 -6.5l-3 -14q0 -1 1.5 -3.5t1.5 -3.5q1 -2 1.5 -5t0.5 -4q1 -3 6 -7.5t6 -7.5q10 -6 27 -13h11.5t12.5 -1
q9 -5 13 -4q1 0 3.5 1.5t3.5 1.5q3 1 9 1.5t8 0.5q6 6 23 6q16 8 18 10h2q3 0 4 1q2 2 7.5 6t6.5 5h4.5t3.5 1q1 0 3 2t4 2q5 0 5 -7q-1 -6 -11 -11.5t-11 -8.5l-6 -2q-6 -6 -18 -16l-12 -6q-3 -1 -8.5 -0.5t-7.5 0.5q-2 -1 -3.5 -3.5t-2.5 -2.5q-5 1 -12 -2t-10 -3h-18
q-12 1 -16 5q-3 1 -9.5 0.5t-9.5 0.5l-3 3t-3 2h-7q-9 6 -11 6q0 1 -19 16q-1 4 -4 9.5t-4 9.5q-6 5 -6 27q0 14 1 20q1 2 4 7t2 8q1 3 5 7v8q1 1 13 16t19 22q3 1 14 10q7 7 10 8q2 1 6 1.5t6 2.5q5 2 28 2q1 -2 6.5 -5.5t5.5 -6.5q1 -2 -7 -10z" />
    <glyph glyph-name="d" unicode="d" horiz-adv-x="208" 
d="M166 23q5 0 10.5 7.5t12.5 6.5q7 -5 -3 -15q-1 -3 -1 -12q-2 -4 -8 -10t-8 -9q-3 -1 -10 -1q-9 6 -21 26q2 2 0 2v16q0 12 -2 13q-7 -2 -8 -6l-2 -6q0 -1 -3.5 -4.5t-2.5 -7.5q-3 -3 -6 -9.5t-5 -9.5q-4 -3 -10.5 -12t-10.5 -12q-4 -1 -10 -7q-5 1 -9 -3l-3 -3h-24
q-8 6 -12 7q-3 8 -8 13q0 6 -2 16.5t-2 17.5q4 8 4 13q6 8 19.5 19.5t19.5 18.5q1 1 4 3.5t6 2.5q2 1 4 3l3 3h15q1 0 5 -3.5t8 -2.5q2 -1 4 -3.5t3 -2.5q3 2 5.5 8.5t3.5 8.5q0 1 2 4t2 4v3t1 2l3 12q4 8 4 12q0 2 4 8q0 20 6 28q1 3 0.5 10.5t1.5 9.5q0 2 2 5t2 4v22
q6 7 6 28t2 29l3 9q1 7 1 21l4 8t6.5 6.5t10.5 0.5q2 -1 7 -10q1 -7 1 -47q0 -20 -11 -33q-1 -4 -1 -13.5v-13.5q-5 -10 -5 -35q-1 -2 -2.5 -5.5t-1.5 -4.5v-8q-2 -4 -2 -6t-3 -28l-3 -9q0 -14 1 -20q-2 -10 0 -38q0 -18 3 -21zM106 61q-4 -1 -12 -1t-11 -1q-5 -4 -15.5 -15
t-17.5 -15q-6 -6 -4 -28q7 -7 8 -7q2 0 5 2t6 1q20 15 33 37v5q1 2 3 4l3 3q0 2 4 8t-2 7z" />
    <glyph glyph-name="e" unicode="e" horiz-adv-x="212" 
d="M46 57q0 -1 9 -28q1 -1 4.5 -3t4.5 -4l2 -4t1 -3l2 -1l4 -2q1 0 2.5 -1t2.5 -2q0 -1 2 -2t3 -1q14 -5 19 -4q1 -1 20 -1q16 0 17 1q8 1 22 5q6 -1 25 4q7 -2 8 -6q0 -4 -12 -10q-1 0 -3 -2t-4 -3h-5q-2 -1 -8 -3t-8 -4q-2 -1 -4.5 -2.5t-3.5 -1.5q-1 -1 -5.5 -1h-5.5
t-4 -2t-5 -3q-10 -2 -23.5 2t-20.5 4q-2 2 -7 3.5t-7 2.5q-3 1 -6.5 5t-4.5 5h-6q-1 2 -5 6q-4 2 -10 8q0 1 -2 3q-1 2 -2 2l-1 2q-1 2 -1 3q0 2 -2 3.5t-2 2.5q-1 2 -1 6.5t-1 5.5q0 2 -2 4.5t-2 3.5q1 5 -1 13.5t-2 11.5l3 15q5 8 6 12q0 1 2 2.5t2 2.5q6 16 22 28h4
q6 5 21 14t21 15q16 3 24 -5q12 0 18 -6q12 0 19 -6q7 -7 5 -20q-3 -6 -5.5 -11.5t-7.5 -10t-12 -6.5q-2 -2 -6.5 -5t-6.5 -5q-5 -1 -13.5 -6t-9.5 -6q-11 0 -17 -6q-14 0 -24 -6q-14 0 -16 -3zM114 131q-12 -2 -20 -1q-2 -1 -17 -16q-1 -3 -7.5 -8t-7.5 -9q11 -8 25 3
q7 -1 15 3t13 4q2 1 5.5 5.5t5.5 5.5q3 1 6.5 3t2.5 6q-2 2 -5.5 3t-8.5 1h-7z" />
    <glyph glyph-name="f" unicode="f" horiz-adv-x="218" 
d="M202 50q-2 -1 -6.5 -1h-7.5l-3 3t-3 2q-14 3 -36 18q-13 0 -15 -1l-3 -3q-1 -3 -1.5 -9.5t-0.5 -8.5q0 -1 -2 -3.5t-2 -3.5q-1 -4 -1.5 -13t-2.5 -12l-3 -12q1 -10 -4 -19q0 -3 -0.5 -9t-1.5 -9q0 -1 -1.5 -3t-1.5 -4q-1 -2 -1.5 -6.5t-1.5 -7.5q-5 -3 -5 -21
q0 -1 -6.5 -7t-5.5 -13q-4 -6 -12 -11l-8 -4q-6 -2 -7 -2q-7 -2 -12 2q-4 2 -9.5 9t-8.5 9q-2 7 -6 10q-1 5 -1 15q0 1 -2 3.5t-3 4.5q-1 9 -0.5 25.5t0.5 24.5q1 2 3 4t2 4v9t1 8t3 4.5t2 4.5v7q6 8 6 16q1 1 6 8t6 12q3 2 9.5 9t10.5 10q1 1 5 1q2 0 4 2q2 3 3 3
q0 1 2.5 1.5t2.5 1.5q-1 2 -6.5 2.5t-6.5 1.5q-1 2 -1 8q2 2 4.5 7t4.5 7q6 0 10 9q1 1 4 2.5t4 2.5t2 3.5t2 3.5t4 3t4 3q2 4 1.5 13t0.5 14q1 2 2.5 4.5t1.5 3.5q1 4 1.5 13.5t0.5 13.5q1 2 2.5 4.5t2.5 4.5q0 1 0.5 4t0.5 5q2 5 3.5 15.5t2.5 14.5t4 8q7 30 7 43l6 15
q0 2 2.5 7t2.5 8q2 3 14 15q4 -1 8.5 2t6.5 3q1 0 14 -10l3 -3q0 -1 2 -4.5t2 -4.5q2 -6 2 -17t-2 -15q0 -1 1 -3.5t1 -4.5q-8 -18 -9 -33q-1 -1 -3 -4q-6 -7 -5 -13q-4 -4 -6 -5q1 -17 -5 -23q1 -3 -6 -16q-1 -3 -2 -10t-2 -10l-3 -12q-5 -16 -5 -17q-1 -3 -11.5 -9.5
t-10.5 -13.5q0 -2 1 -4t1 -4q0 -4 -2 -10t0 -9q1 -4 7.5 -8t12.5 -3l4 -3q4 -3 8 -3q1 -2 4 -5q3 -1 7 -3.5t6 -3.5q1 -2 11 -10t8 -18zM153 237q5 0 2 14q1 2 3 4l3 3q0 2 3 6.5t3 6.5q1 3 1 9t1 10l1 2q2 3 3 5q-1 4 1 11.5t2 12t-5 6.5q0 1 -1 0q-1 0 -3 -10
q0 -1 -2.5 -4.5t-2.5 -5.5l-3 -15v-6q0 -3 -2 -9t-1 -11q-1 -1 -5 -7v-9q-3 -14 2 -13zM98 109q0 -6 3 -6q6 4 7 7q-2 3 -5.5 2t-4.5 -3zM86 66q-4 -2 -12 -10t-12 -10q0 -4 -3.5 -10.5t-1.5 -12.5q0 -1 -1.5 -4l-2.5 -5q-1 -3 -4 -11t-3.5 -11.5t0.5 -14.5q0 -1 -1.5 -3.5
t-1.5 -3.5q0 -4 3 -11t3 -9q1 -2 0 -5l-1 -3q0 -3 2 -8t3 -8q2 -1 3 -5t4 -5q2 0 5 4t4 5v5q1 2 3 4t2 3q1 2 1 6.5v6.5q0 1 2 3.5t3 4.5v3.5t1 4.5q6 23 5 27q2 2 6 8q0 3 1 8t0 9q1 2 5 11v20q0 3 3 10t2 11q-5 4 -17 -4z" />
    <glyph glyph-name="g" unicode="g" horiz-adv-x="204" 
d="M140 19v-8.5t-1 -8.5q0 -1 -2.5 -5t-2.5 -7q-2 -2 -6 -7.5t-5 -6.5q0 -5 -12 -21v-5l-5 -5q0 -3 -3.5 -9t-4.5 -10q-5 -11 -16 -20q0 -1 -6 -10v-5q-10 -10 -10 -17q-5 -6 -13.5 -17t-10.5 -14v-3l-1 -2q-5 -4 -11.5 -14t-11.5 -15v-5q-3 -2 -6 -6.5t-5 -5.5
q-1 -1 -1 -2.5v-2.5q-26 -28 -38 -34q-2 -2 -6 -7q-7 -10 -15 -10q-1 -1 -4 -2.5t-4 -2.5q-9 -2 -20 0q-5 5 -9 6q-7 7 -9 11q-6 8 -5 13q-1 2 -3.5 4t-2.5 4v50q8 10 6 19q1 2 2.5 4t2.5 4t1 6v6q1 1 3.5 4.5t2.5 5.5q4 3 20 19q5 2 12 6.5t10 5.5h18q2 1 3.5 2.5t2.5 1.5
q4 -1 4 -6q-5 -10 -16 -10l-36 -37q-2 0 -2 -4q-3 -2 -5 -17q0 -2 -1.5 -8.5t-1.5 -10.5q2 -8 2 -12q0 -2 -1.5 -5t-1.5 -4q0 -3 2.5 -7.5t1.5 -7.5q6 -10 11 -14q4 -1 8.5 2.5t7.5 3.5q9 10 17 16q7 2 8 4v6q3 2 6.5 6t5.5 6q0 3 1 5q4 2 8 8q2 3 3 5q7 9 7 11q4 2 9 8.5
t7 8.5q0 3 1 4q1 2 8 11.5t9 15.5q3 1 4 4q2 2 2 5q2 2 5 6t5 6q1 4 11 19q0 4 3.5 8.5t3.5 8.5q6 8 6 10q10 10 12 18q1 2 3 4t2 3l1 2v3t2 3l3 3q-1 5 3 9.5t4 8.5q13 13 7 19q-3 0 -11 -5q-10 0 -18 -6q-14 0 -22 -1q-1 0 -5 -1.5t-6 -1.5t-6 2.5t-7 1.5q-15 10 -20 20
v22q2 3 6 8t7 9t5 9l7 6q7 6 12 7q6 6 10 8q1 3 5 3q3 1 10 1h10q1 1 3.5 3t4.5 3h16q1 0 7 -6q6 -4 6 -7q1 -4 -3.5 -9t-9.5 -5q-1 -1 -3.5 1t-3.5 2q-13 4 -22 -5q-4 0 -9 -3t-8 -3q-10 -8 -15 -13q-1 -3 -3.5 -7.5t-3 -7t1.5 -8.5l2 -4q4 0 12 4q26 -2 33 2q8 5 11 6
q1 0 4.5 2.5t7.5 1.5q13 10 28 28v5l6 6q-1 4 2.5 8t3.5 9q1 0 3.5 3.5t4.5 4.5q9 6 20 0q3 0 1.5 -9.5t-1.5 -10.5t-2 -3l-3 -3q0 -4 -3.5 -8.5t-2.5 -9.5l-3 -4q-4 -3 -3 -7q-1 -1 -3 -2.5t-3 -2.5q-1 -5 -6 -11t-6 -12q-1 -4 -11 -12z" />
    <glyph glyph-name="h" unicode="h" horiz-adv-x="196" 
d="M67 60q1 0 5 0.5t6 1.5q1 0 2.5 2.5t2.5 2.5q1 1 3 1t3 1t3 2t3 2t3.5 1t3.5 1q16 5 32 3q2 0 6.5 -2t7.5 -3q6 -4 14 -15q0 -3 7 -12v-52q-3 -8 1 -9q2 -1 4 0t4 1q4 -2 0 -9.5t-4 -9.5q-1 -2 -3 -3.5t-2 -2.5q-1 -1 -1 -3.5t-1 -3.5l-17 -6q-9 1 -16 12q-1 4 0.5 11.5
t1.5 10.5v6q0 2 1.5 6t1.5 6q3 14 0 30q0 1 -1 4.5t0 6.5q0 5 -7 9h-25q-9 -8 -22 -12q-22 -26 -26 -28q-3 0 -5 -2l-6.5 -6.5t-7.5 -6.5q-12 -8 -21 5v18q0 1 2 3.5t2 4.5q1 6 4 14t4 12q6 8 5 13l6 6v5q0 1 2.5 3.5t2.5 4.5v6t1 5q1 2 3 4q1 2 2 3q4 9 5 9v6q0 1 2.5 3
t3.5 4q0 1 0.5 4.5t0.5 5.5l6 6v15q1 2 3 4.5t2 3.5q0 8 1 11q6 10 6 30q3 4 5 21q1 3 2.5 7t1.5 6q0 1 0.5 5.5t1.5 6.5q0 7 -1 33.5t2 30.5q5 4 12.5 1.5t9.5 -7.5q0 -20 5 -25q1 -7 0 -14q-6 -5 -2 -18q-4 -3 -3 -20t0 -22q0 -1 -3.5 -5.5t-2.5 -9.5q-1 -2 -3 -5l-2 -3
q0 -10 -3 -16q0 -7 -1.5 -13t-4 -12.5t-3.5 -10.5q-1 -2 -3 -4l-3 -3v-16q0 -1 -2.5 -2.5t-2.5 -2.5q0 -8 -1 -11q-2 -2 -6 -8q1 -2 -5 -13v-6q-1 -5 -3 -8z" />
    <glyph glyph-name="i" unicode="i" horiz-adv-x="104" 
d="M82 253v-18q-9 -9 -15 -9q-10 8 -12 15q2 3 3 12t2 11q1 0 7 5t10 4q3 -1 7 -5q2 -1 3 -2q2 -6 -5 -13zM72 147q1 -6 0 -19t-1 -18q0 -2 1.5 -6t1.5 -5q0 -2 -2 -7t-2 -8q0 -1 -2 -3.5t-2 -4.5q-1 -3 -1 -7v-6q-1 -1 -3 -2.5t-3 -2.5q0 -1 -1 -3v-2q-5 -10 -5 -19
q-1 -2 -2.5 -5.5t-2.5 -5.5q-1 -4 -1 -13q0 -1 -2.5 -3t-2.5 -4v-11q-2 -4 -6 -6q-4 -6 -7 -4q-2 0 -11 9q0 41 5 47q0 3 0.5 6.5t0.5 5.5t3 4t3 3q-1 4 2 9.5t3 6.5l5 13q0 2 5 31q0 1 0.5 5t0.5 5v16q1 7 11.5 8t14.5 -4z" />
    <glyph glyph-name="j" unicode="j" horiz-adv-x="82" 
d="M40 240q-2 -2 -10 -2q-7 4 -7 17t5 20q1 3 1 7q1 1 4.5 4t5.5 4q4 0 8 -5l4 -4q1 -3 1 -15q-1 -2 -3 -4l-3 -3l-6 -12v-7zM-50 -157q4 -3 2 -7t-4 -6q-5 -13 -6 -14q0 -24 2 -29q-1 -3 -0.5 -11.5t-1.5 -9.5q0 -8 1 -12q3 -4 7 -7q7 2 14 11.5t11 11.5q1 5 7 11.5t7 12.5
q2 1 5 5.5t5 5.5q0 2 6 11q1 1 1 3v3q0 2 2 3q3 2 3 3q-1 3 3 8q2 3 3 4q1 3 1 10q0 1 2.5 7.5t2.5 11.5q2 2 7 33q3 3 4.5 13t2.5 13q0 3 -1 11.5t0 13.5q0 1 3 10.5t1 14.5l-5 10q-1 3 1 8t2 6q0 2 -1.5 4t-1.5 4q-1 7 0 27t-1 28q-4 20 -4 21q0 2 -0.5 8t-1.5 9t-5 7
q0 5 -4 14t-1 16t13.5 7.5t14.5 -6.5q0 -12 6 -18q0 -2 -0.5 -8t0.5 -9q0 -2 3 -5t3 -5v-34q0 -6 2 -20.5t2 -22.5v-28q1 -1 1.5 -3t0.5 -3q1 -12 0 -34t-1 -30q0 -2 -2 -5.5t-3 -6.5v-10q-1 -2 -3 -4.5t-3 -3.5q-1 -7 -0.5 -13.5t-0.5 -12.5t-4 -9q-1 -5 -1 -15
q-3 -3 -6.5 -10l-4.5 -9q1 -5 -3 -11l-2 -4q-1 -1 -1 -2q-1 -2 -1 -3l-10 -13v-3.5t-1 -3.5q-12 -12 -14 -21q-5 -5 -12.5 -15.5t-15 -17t-18.5 -7.5q-2 0 -5 -2t-5 -2t-6 2.5t-7 2.5q-12 9 -10 19l-6 6q1 5 -3 9l-2 4q-1 7 0 12q0 2 2 4.5t2 4.5t-1.5 4t-1.5 3t2 4l2 3v11
q9 9 10 12q1 2 1.5 5.5t0.5 4.5q1 2 4 5.5t4 4.5q9 7 12 5z" />
    <glyph glyph-name="k" unicode="k" horiz-adv-x="237" 
d="M101 111q3 0 5 2t3 2q9 4 17 12q0 1 2.5 1h3.5q2 2 5 5.5t5 5.5q12 9 13 10t2 3l1 2l3 3l2 1q1 1 2 3l1 2l3 3l3 3q2 0 5.5 0.5t5.5 0.5q3 -1 4 -4q1 -2 -5 -14q0 -3 -1 -5q-2 -3 -6 -6t-5 -5q0 -1 -0.5 -2.5t-0.5 -2.5q-3 -3 -9.5 -10.5t-10.5 -10.5h-5q-3 -2 -9 -8
t-10 -9h-5q-3 -4 -12 -9.5t-12 -7.5q-2 0 -6 -2q-5 -3 -7.5 -11.5t0.5 -15.5q5 0 12 -3.5t12 -3.5q1 -1 3.5 -3t4.5 -3h10q2 0 4.5 -2.5t3.5 -2.5h9q12 -11 30 -12l12 -6q4 -5 15 -13t16 -12q1 -2 3 -4q5 -9 3 -15q-2 -1 -6 -1q-5 2 -14.5 8.5t-10.5 7.5h-7q-7 7 -16 6
q-3 2 -7 6h-10q-2 3 -10 5.5t-10 5.5q-4 0 -15 3.5t-18 2.5q-1 0 -3 2.5t-4 3.5t-4.5 1h-3.5l-8 4q-7 4 -8 -1q-1 -6 -7 -14v-15q1 -2 3 -4l3 -3q2 -4 -2 -9.5t-4 -6.5t0.5 -3t-0.5 -4t-3 -3.5t-2 -2.5q0 -5 -4 -9.5t-4 -7.5q-5 -7 -16 -4.5t-11 11.5q0 2 2 6.5t2 5.5
q1 2 1 7t1 8q1 4 4 8q1 3 1 9v8q1 2 2.5 4t2.5 4t1 6v6l6 12q0 4 -10.5 10.5t-7.5 16.5q5 5 17 13t17 14q1 4 4 8q2 3 3 4v6q7 9 5 17l5 7q1 4 1 12t2 11q0 2 2 4.5t2 3.5v9q5 11 6 14q0 2 0.5 8.5t1.5 9.5q0 2 1.5 4.5t1.5 3.5q1 6 -0.5 28.5t5.5 24.5q0 4 1.5 13t1 15
t-3.5 10q-3 0 -6.5 -2.5t-5.5 -2.5q-10 2 -8 12q1 3 8 10q6 6 9 8l6 12q3 12 7 20q4 1 11 -1q6 -3 6 -30q0 -3 -0.5 -10t-0.5 -11q0 -2 1 -8.5t0 -10.5q0 -5 -1 -14t-1 -14q0 -13 -1 -18q-3 -5 -3 -7q-1 -9 -1 -24v-24q-5 -5 -7 -21q0 -2 -2 -4.5t-2 -3.5q0 -2 -3 -27
q-7 -11 -2 -15z" />
    <glyph glyph-name="l" unicode="l" horiz-adv-x="112" 
d="M72 382q6 1 11 -3t8 -7v-23t5 -18q3 -26 -1 -46q-2 -18 0 -23q-2 -13 -2.5 -40.5t-1.5 -39.5q0 -1 -2 -8t-3 -12q-1 -4 -1 -10.5t-0.5 -11t-3.5 -7.5q0 -2 -0.5 -9t-1.5 -10q-1 -2 -2.5 -5.5t-1.5 -4.5q-1 -3 -1 -9.5v-9.5q-1 -2 -3 -5.5t-2 -4.5q-1 -5 -1 -19
q-1 -2 -3 -5.5t-3 -5.5q1 -11 -4 -23q-1 -5 -4.5 -20.5t-3.5 -26.5q0 -2 -2.5 -4.5t-2.5 -4.5q-1 -3 -0.5 -13.5t0.5 -14.5q-6 -8 -9 -9q-16 -5 -20 9q0 10 3.5 27.5t2.5 28.5q0 2 2.5 4.5t2.5 3.5q0 15 1 21q6 18 6 19q3 8 6 34.5t10 36.5q0 16 6 22q1 4 1 10.5v11.5l3 9
v12q2 8 2 12q0 20 1 32q4 5 4.5 12.5t0 17.5t-0.5 15q0 3 0.5 9t0.5 10q2 16 2 20q0 2 -1 5t-1 4q-1 3 -1 19q0 2 -0.5 8t-0.5 8v12l-2 8q-1 8 2 8q0 4 6 4z" />
    <glyph glyph-name="m" unicode="m" 
d="M83 89q3 0 6 4q0 1 1 2l25 25q5 -1 8 3l3 3h12q12 -9 13 -14q0 -2 -3 -7.5t-2 -10.5q-3 -4 -2.5 -10t5.5 -6q3 0 6.5 5.5t4.5 6.5q3 1 7 4t7 4l28 28h5l3 3t4 3h16q1 -2 7 -6t8 -8q1 -2 1 -7.5v-8.5q0 -1 2 -3.5t3 -4.5q0 -8 0.5 -28.5t-0.5 -28.5v-9q4 -1 5.5 1.5
t2.5 4.5q7 0 9 -2q1 -1 1 -14q-1 -1 -3.5 -2.5t-3.5 -2.5q-2 -22 -15 -27q-5 -1 -8.5 0t-7 4.5l-4.5 4.5v7q0 1 -2.5 5t-2.5 7v30v29q0 24 -1 28q-4 3 -7.5 1t-4.5 -6l-15 -12q-4 -6 -16 -16.5t-17 -17.5q-3 0 -11 -5q-3 1 -7.5 -1.5t-5.5 -2.5q-3 -1 -10 1q-4 0 -9 5
q1 4 -2 9t-3 6q0 2 2.5 5t2.5 4q0 11 -3 15q-5 -1 -9 -7.5t-6 -7.5q0 -3 -2 -5q-8 -8 -14 -11q-4 -9 -13 -18q-1 -1 -1 -3v-2q-7 -11 -32 -34q-12 -2 -17 4t-3 17q1 1 2.5 3.5t2.5 3.5q1 2 1.5 6.5t1.5 6.5q0 2 2 3.5t2 2.5q0 5 1 6t2 3l2 4q1 0 1 2t1 3t5 6t5 8q-1 7 7 17
q-2 7 5 16q-1 4 5 15q0 1 1 3l1 2q0 1 2 3t2 3v2.5t1 2.5l4 4q1 1 3 5q2 2 4 6q2 2 3 4q3 0 9.5 3t9.5 3q9 0 11 -7q0 -4 -7 -9l-8 -4v-11q-1 -1 -3 -2.5t-3 -2.5v-6l-6 -6q0 -5 -5 -12q0 -2 -1 -9t1 -8z" />
    <glyph glyph-name="n" unicode="n" horiz-adv-x="176" 
d="M81 112q2 1 3 3t2 3q4 2 10 8t9 8l9 6l9 6q4 1 22 1q3 -2 5.5 -5t4.5 -8t4 -8q0 -6 1 -25.5t-1 -25.5q-1 -1 -3 -3.5t-2 -4.5q0 -20 -6 -23q-2 -6 -2 -21q0 -2 -2.5 -8t-1.5 -9q0 -2 2 -4.5t2 -3.5q1 -4 -1.5 -9t-2.5 -7q-3 -2 -8 -10q-20 0 -21 10q-4 21 1 32q0 1 2 3
t2 3q2 2 1.5 11.5t-0.5 12.5l2.5 5t2.5 4q0 8 5 21q1 4 1 12q1 2 3 5t3 5q0 1 -5 14q0 8 -3 8t-10 -10q-7 -3 -8 -6q-2 0 -4 -1l-1 -1q-3 -2 -5 -7q-2 -2 -10.5 -8.5t-11.5 -11.5v-5q-2 -2 -5 -9t-6 -9q1 -5 -3 -11q-2 -2 -3 -4q-1 -1 -1 -2q-1 -2 -1 -3q0 -2 -2 -5.5
t-3 -6.5q0 -2 -2 -4t-2 -3v-3t-1 -2q-1 -1 -2 -3q-16 -20 -25 -9q-4 8 -4 12q0 5 4 13t4 14q1 2 3 3.5t2 2.5q-1 6 3 12t4 11l4 8q0 3 2.5 7t2.5 5q2 16 2 27q2 4 3 7q0 5 -3.5 10.5t-3.5 8.5q0 2 1.5 4.5t1.5 3.5q3 6 7 12.5t10 8.5q12 3 16 -12q0 -1 -0.5 -3.5t-0.5 -3.5
t1.5 -6.5t0.5 -7.5q0 -2 -2 -7q-4 -9 1 -12z" />
    <glyph glyph-name="o" unicode="o" horiz-adv-x="250" 
d="M172 186q1 0 5 -2.5t8 -2.5q9 -12 9 -14q3 -4 11.5 -11t11.5 -12q2 -8 5 -12q0 -3 6 -18v-5.5t1 -5.5t3 -4t2 -4q0 -3 -2 -9q-2 -24 -4 -29q-4 -3 -11.5 -14t-14.5 -13q-14 -20 -30 -28q-2 -1 -5 -1l-6 -6q-2 0 -12 -5q-6 0 -11.5 -3.5t-8.5 -4.5q-2 -2 -16 -4
q-10 -4 -22 -6q-15 -2 -28 1q-3 1 -9 5h-6q-6 3 -16 11q-4 3 -8 11q-2 2 -4 6q-1 3 -1 26q4 6 5 8q3 18 12 29q-1 6 3 12t4 10q2 1 12 11q5 7 5 12q1 2 3 3.5t3 3.5v5q1 2 3 3.5t2 2.5v5q4 4 10 12.5t9 12.5q2 0 8 7q7 3 18 12q4 1 11 3t11 3q7 1 18.5 0t15.5 -1zM138 153
q-7 -12 -20 -13q-7 -4 -12.5 -10t-12 -15t-9.5 -13q-4 -8 -6 -11q0 -5 -4 -11l-3 -6q-2 -3 -7 -7.5t-7.5 -9.5t-2.5 -12q0 -1 -2 -3.5t-3 -4.5t-1 -7.5t-1 -7.5q0 -2 -1 -3.5t-1 -2.5q1 -5 6.5 -9.5t6.5 -5.5q3 0 11 -3t13 -2l6 3q3 1 10.5 1.5t10.5 1.5q4 0 11 2t11 3
q1 1 3 2.5t4 2.5q1 0 3 0.5t3 0.5l3 3t3 2h2q2 0 3 1q16 12 25 17q4 5 12.5 16t12.5 16q-1 4 2 9t3 7t-1.5 7t-1.5 7q-1 4 -1 9q-1 3 -1 7q-1 4 -6 9.5t-6 8.5q-2 5 -6 12t-5 10q-10 8 -11 8q-6 1 -14 7q-6 1 -8 -3q0 -1 -1.5 -6.5t-3.5 -6.5h-6z" />
    <glyph glyph-name="p" unicode="p" horiz-adv-x="192" 
d="M52 -15q0 -4 -4 -10t-3 -13q-2 -2 -5.5 -7.5t-5.5 -7.5q0 -6 -6 -16v-10q-1 -1 -3 -4t-3 -4v-9q0 -1 -3 -4.5t-3 -6.5q-3 -4 -8.5 -14.5t-8.5 -14.5q0 -4 -5 -14q0 -7 -6 -13q-2 -11 -12 -21q0 -2 -2 -6.5t-3 -6.5q-1 -3 -1 -8q-8 -12 -21 -3q-4 5 -3 14t6 12q-1 9 11 28
q1 1 1 5l3 3t3 4q0 4 3.5 9.5t2.5 10.5q3 2 6 9.5t5 9.5q1 6 5.5 15t5.5 14q1 2 3 4l3 3q0 5 3.5 10.5t2.5 11.5q3 3 6.5 10l4.5 9l-3 18q0 2 8 10q1 4 8 11v11q0 2 2.5 7.5t2.5 8.5v10q1 6 4 18t3 14t2.5 7t1.5 10q0 2 -1 4t-1 3q2 19 12 26h3t3 1q2 1 3.5 3t2.5 2
q3 0 7.5 2.5t5.5 2.5l4 2q1 0 7 5t10 6q8 0 11 2q3 -1 11 -1t12.5 -1.5t7.5 -4.5q11 -1 18 -8q0 -3 3.5 -7t4.5 -6q2 -3 -1 -36l-3 -4q-3 -3 -4 -6q0 -1 -2 -2.5t-2 -3.5q-14 -28 -44 -56h-5q-15 -16 -23 -17q-6 -4 -11 -7q-1 0 -3 -2l-2 -2q-2 -1 -7 -3t-7 -4q-4 0 -8 -2z
M126 131q-4 0 -9.5 -2.5t-8.5 -2.5q-3 -1 -11.5 -6t-13.5 -7q-5 -6 -3.5 -25t-2.5 -26q-1 -1 -3 -2t-3 -2q-2 -4 -3 -8q-4 -3 -5.5 -11t1.5 -14q4 -2 10 0.5t9 2.5q4 2 13.5 9t14.5 10q4 6 14 16.5t13 14.5q2 5 7 12q3 5 4 7q1 4 1 11t1 10q-1 5 -4 8q-5 0 -11.5 2.5
t-9.5 2.5z" />
    <glyph glyph-name="q" unicode="q" horiz-adv-x="240" 
d="M222 127q0 -4 -3.5 -10t-4.5 -10q-5 -4 -7 -13q-2 -2 -4.5 -7.5t-4.5 -7.5q0 -3 -2.5 -7t-2.5 -5l-7 -12q0 -4 -3.5 -10t-3.5 -11q-2 -2 -6 -12l-1 -2q-2 -3 -3 -5q-1 -1 -1 -3.5t-1 -3.5t-2 -2.5t-2 -2.5q-1 -2 -1 -8l-5 -5q-5 -8 -7 -9q0 -5 -1.5 -9t-5 -8t-4.5 -6
q1 -5 -2 -10l-3 -5q-1 -1 -1 -2q-1 -2 -1 -3q-1 -2 -4 -5q0 -1 -0.5 -3.5t-1.5 -3.5q0 -1 -2 -3t-2 -3t-2 -5q-2 -2 -3 -4q-1 -1 -1 -4q0 -1 -3 -3.5t-3 -4.5v-9q-2 -2 -5.5 -9t-6.5 -9q1 -4 -2 -8t-3 -5q-4 -11 -6 -12q1 -3 -2 -7.5t-3 -5.5q-2 -4 -2 -13t-1 -14
q-4 -5 -4 -45q1 -2 3 -4l3 -3q0 -6 3.5 -10.5t9.5 -9t8 -6.5q15 1 26 -8q1 -2 1 -7q-3 -3 -10 -3.5t-16 0t-13 0.5q-8 7 -26 21q0 1 -6 10q0 6 -1 8t-3 3.5t-2 3.5q-1 2 -1.5 6.5t-0.5 6.5q0 3 -2 7q-2 7 -1 12q0 1 3 11.5t2 17.5q0 2 2 4t3 4q-1 9 3 19.5t4 12.5t2.5 4.5
t2.5 3.5q1 7 6 17.5t6 17.5q2 2 5 7.5t6 8.5q0 5 1 6q4 8 5 12q2 2 5.5 7.5t5.5 8.5q1 2 1 6l3 3l2 3q0 4 1 7q0 1 2 3t3 4q1 1 1 3v2q0 2 2 4t2 3q1 1 1 2q1 2 1 3t2 3t2 3v5q6 12 6 13q10 8 5 13q-3 1 -5 -2l-2 -3q-5 -2 -11.5 -8.5l-8.5 -8.5q-1 0 -3 -0.5t-3 -1.5
q-4 -2 -9.5 -5.5t-6.5 -4.5q-12 -2 -16 -4q-5 1 -12.5 -0.5t-10.5 -1.5q-1 0 -7 3.5t-10 2.5q-4 2 -9.5 7t-6.5 6q0 3 -2.5 8t-2.5 8l5 15v7q2 3 7 7.5t5 6.5v7q28 32 50 43q6 -1 11.5 3t10.5 4q4 4 18 5.5t18 5.5h11q2 -2 7 -5t7 -5q4 -19 -7 -30q-11 -5 -13 4q-1 2 1 4.5
t2 4.5q-1 6 -18 3q-4 -4 -23 -6q-37 -19 -56 -50q-2 -6 -2 -8q-5 -11 -5 -14q0 -6 11 -6q17 -4 25 -1q2 1 4.5 2t3.5 2h4q2 1 4.5 3t3.5 2l11 8q3 3 8.5 8t8.5 8q2 1 5.5 3.5t5.5 3.5l22 22l11 11q1 1 5 5.5t5 6.5q2 4 2 6q0 1 2 3t2 3t0.5 3t1.5 4l6 9q2 1 4 3t4 3
q13 -1 16 -13z" />
    <glyph glyph-name="r" unicode="r" horiz-adv-x="236" 
d="M219 113q-2 1 -3.5 3.5t-2.5 2.5q-1 1 -3 1h-3q-3 3 -9 8t-10 8q-3 1 -11 6q-21 4 -29 -4q-3 0 -4 -1l-18 -12q-5 -3 -13 -12t-13 -12q-16 -29 -18 -31q0 -4 -1 -5l-15 -24q0 -11 -7 -18q0 -4 -3 -10.5t-3 -10.5q-6 -7 -11 -19q0 -5 -1 -7q-9 -6 -12 -6q-6 0 -11 7
q-4 18 5 25q0 2 0.5 5t0.5 4q3 3 5.5 10t4.5 9q0 2 6 17q0 1 6 16v5t1 6l1 2q2 3 3 5q2 7 2 22v19q1 2 8 9q7 5 11 5q9 0 11 -14q5 2 11 8t10 8q2 5 11 10l3.5 3.5t3.5 2.5t3.5 1t4.5 1q2 1 6.5 5t6.5 5q5 0 14.5 1t16.5 1t12 -2q4 -2 5 -4q3 -2 15 -12q1 -1 4 -4.5t4 -5.5
q13 -16 5 -27z" />
    <glyph glyph-name="s" unicode="s" horiz-adv-x="208" 
d="M26 -27q-7 7 -8 9q0 5 2.5 8.5t7 6.5t6.5 5h4q2 1 5.5 3t5.5 3l5 5l4 2q1 0 2.5 1.5t2.5 1.5t3.5 0.5t3.5 1.5q7 5 8 5q19 3 20 4q6 0 8 -1v-6q0 -4 10 0l9 3q2 3 7 6.5t6 4.5l6 3q0 3 -4 5l-5 3q-2 1 -7 2l-6 1q-2 2 -8 4t-8 5q-2 0 -18 11q0 4 -5 6q-3 1 -4 2t-3.5 4.5
t-3.5 4.5q-10 16 11 35q2 3 7 7t6 6q10 4 18 12q3 0 4 1q13 10 14 11q4 -1 9.5 1t6.5 2q8 10 13 14q10 0 15 5q11 -3 14 -12q-3 -10 -14 -21q-2 0 -8 -2q-3 -3 -12 -5q-2 -1 -6 -5l-12 -6h-6q-8 -8 -18 -12q-2 -2 -4 -5t-3 -4t-3.5 -3t-3.5 -3q-4 -6 0 -12q3 -3 10 -7t9 -6
q7 -1 19.5 -6t20.5 -6q1 -2 5 -5t5 -5q5 -11 -3 -24q-10 -12 -16 -18q-4 0 -7 -2t-6 -5.5t-5 -4.5h-6q-4 -4 -13 -9.5t-12 -7.5q-7 0 -10 -1t-7 -5h-11t-10 -1t-4 -3t-3 -2h-30zM101 16q1 -2 2 0t-1 2q-1 -1 -1 -2zM94 10q4 0 3 2q-1 1 -2 0t-1 -2z" />
    <glyph glyph-name="t" unicode="t" horiz-adv-x="321" 
d="M172 182q2 0 4 1t3 1q22 0 29 4q4 1 12.5 1t14 1.5t8.5 4.5q4 -1 10 1.5t9 2.5q2 0 5 -0.5t4 -0.5q3 0 7 1.5t6 1.5q9 0 21 -8q0 -7 -7 -12q-3 -2 -4 -3q-20 2 -28 -5q-10 1 -18 -7q-7 0 -19.5 -3.5t-18.5 -3.5q-2 0 -5 1t-5 0q-2 0 -5.5 -2.5t-4.5 -2.5q-5 1 -10 -2
t-7 -3q-1 0 -4.5 -0.5t-4.5 -1.5q-5 -5 -5 -12q-1 -6 0 -23t-1 -23q-4 -6 -5.5 -22t-2.5 -19q0 -5 -3 -8q-2 -12 -4 -19q-5 -23 -7 -27q-1 -7 -1.5 -21t-0.5 -18q0 -1 -1 -5t0 -6q3 -20 1 -23q-1 -3 -8 -12h-3l-2 -1q-16 1 -16 22q0 4 0.5 14t0.5 15v6q0 2 1.5 4t1.5 4v8
q1 3 1 7q1 5 1.5 13.5t0.5 10.5q1 6 4 22q2 3 6 7q0 24 6 35v15.5t1 16.5q0 1 2.5 10.5t0.5 14.5q-11 -1 -18 -8q-4 1 -9.5 -2t-8.5 -3q-12 -2 -14 -3q-1 0 -3.5 -1.5t-4.5 -2.5q-8 0 -12 -3q-1 -1 -5 -1q-1 -1 -4.5 -4t-5.5 -4q-5 0 -7 -1q-1 0 -3.5 -2t-4.5 -2
q-8 -1 -14 8q-3 14 10 21h10q2 2 6.5 4t6.5 3q1 1 3 2l4 2q1 1 4 1q15 10 17 11q4 0 12.5 4t16.5 2l12 6t14 9q0 2 2 7t2 9q1 3 1.5 10.5t1.5 10.5q0 1 2 4t2 5q1 4 -1.5 10.5t-2.5 7.5q-1 3 -0.5 12t0.5 12q-1 3 -6 7t-6 7q0 6 12 13q11 7 19 3q7 -9 9 -22l3 -28
q-2 -8 -2 -12v-32q-2 -10 2 -12z" />
    <glyph glyph-name="u" unicode="u" horiz-adv-x="268" 
d="M149 35q0 -1 -2 -5q-3 -4 -9.5 -10t-9.5 -10q-5 0 -6 -1t-5 -8q-1 -1 -7 -4q-2 -2 -5 -5.5t-4 -4.5t-4.5 -2.5t-4.5 -2.5q-13 -2 -18 -7q-15 -1 -22 6q-7 -1 -11 1t-8.5 6.5t-6.5 5.5q0 3 -3 7t-3 6v11q-2 12 -1 18q2 19 1 28q1 1 4 7q-3 17 6 31q6 0 6 5q1 2 -1.5 6
t-2.5 5t4 7q1 1 1 3q1 1 1 2q1 2 4 4t4 4h12q10 -12 8 -20l-6 -6v-15q0 -1 -2 -4t-3 -4q-1 -3 -0.5 -10.5t-0.5 -12.5q-2 -4 -4 -7q2 -4 -1 -12.5t-3 -10.5q0 -1 1 -3t1 -3t-1 -3t-1 -4q0 -14 12 -19h10q12 6 13 6l11 11q6 1 14 9q2 3 30 34q0 3 3 7.5t3 8.5q5 6 22 33
q0 5 3.5 11.5t3.5 10.5q2 8 13.5 9.5t14.5 -6.5q6 -10 0 -25q-1 -2 -3 -5.5t-2 -5.5l-3 -15q-2 -25 4 -44q2 -4 5 -7q-1 -6 9 -20q3 -1 11 -1q1 0 3 2.5t4 3.5t5.5 1h4.5q2 0 4 2.5t3 2.5q5 1 7 -3t0 -10q-13 -15 -25 -21q-21 -4 -29 3q-14 9 -26 22q-1 1 -1 3v3q-4 8 -4 14
q-2 12 -4 12l-7 -7q-5 -7 -6 -8z" />
    <glyph glyph-name="v" unicode="v" horiz-adv-x="232" 
d="M206 238q2 -2 5 -7.5t5 -7.5q0 -5 -10 -23q-1 -5 -7 -13q-4 -17 -9 -23l-4 -2l-4 -2v-6l-12 -12q0 -1 -6 -10q0 -1 -1 -3t-1 -3l-4 -4q0 -4 -1 -7l-6 -9q-1 -2 -4 -5q-1 -2 -1 -5q-1 -2 -5 -6t-6 -7q0 -1 -0.5 -2t-0.5 -2t-2 -3l-3 -3q-2 -7 -11 -18v-3t-1 -2
q-1 -2 -3 -3t-3 -2q0 -3 -3 -8t-3 -9q-14 -22 -23 -31v-5q-16 -20 -27 -27q-1 -2 -5 -6q-2 1 -5.5 -1t-4.5 -2q-2 0 -5 2t-5 2q-8 12 -12 19q0 10 -0.5 35t0.5 35q0 3 3.5 13t2.5 16q0 2 -1 4t-1 3t1 3t1 3q2 11 1 16q0 3 -1 8.5t-1 9.5q0 3 1 10.5t1 11.5q9 15 21 10
q3 -2 6.5 -7.5t5.5 -7.5q-1 -7 0 -22t0 -22q0 -1 -2 -4t-2 -5q0 -1 0.5 -5t0.5 -5q0 -3 -1.5 -9.5t-1.5 -10.5q-1 -2 0 -4.5t1 -4.5l-2 -4l-2 -4q-2 -5 -2 -15v-12q0 -9 3 -9q2 0 5 4t4 4q1 10 10 13q0 1 8 11v5q0 2 2.5 5t2.5 6q6 6 7 11q6 10 10 14q-1 6 3 11.5t4 8.5
q11 13 11 14l12 12q0 4 3 8q2 2 2 3v3.5t1 2.5q5 9 22 31q0 1 1 3v2q4 4 5 6q2 6 25 42q2 5 6.5 9.5t11.5 2.5z" />
    <glyph glyph-name="w" unicode="w" horiz-adv-x="294" 
d="M118 29q-3 -1 -4.5 -5.5t-3.5 -5.5q-1 -5 -6.5 -12.5t-6.5 -14.5q-8 -8 -15 -9q-2 -4 -16 -17q-9 -5 -18 -6q-6 2 -13 10.5t-8 9.5q0 4 -4 12q-1 4 -1 47q0 2 -0.5 4.5t-0.5 3.5q0 3 1 7t1 6q0 4 -1 12t0 13q5 10 5 14q0 3 -1.5 8.5t-1.5 7.5q-2 8 -2 29q0 2 0.5 5t0.5 4
q0 4 -1 10.5t-1.5 10.5t0.5 8.5t3 8.5q11 2 14 0q4 -2 6.5 -10t4.5 -10q3 -26 3 -28v-23l3 -9q0 -2 -0.5 -4t-0.5 -4t2 -6.5t1 -6.5q0 -1 -1.5 -3t-1.5 -4q-2 -8 -2.5 -25t-1.5 -23q0 -2 -1.5 -5t-1.5 -4q0 -2 1.5 -4t1.5 -3q1 -3 1 -11t2 -11q2 -1 4.5 1.5t3.5 2.5
q3 5 12.5 14.5t12.5 16.5q0 1 2 2.5t3 2.5t1 3t1 3q4 6 15 16t15 16q9 5 22 0q5 -5 5 -26q0 -3 2.5 -8t2.5 -8q-3 -10 -2 -12q0 -4 5 -6q2 0 4.5 2t3.5 2q2 4 7 10t7 10l16 16q-1 5 2.5 9t3.5 9q6 4 12 17.5t11 17.5q1 4 11 19q1 2 1.5 7.5t0.5 6.5t2 3.5t2 3.5q0 5 4 12.5
t2 12.5q-5 1 -10.5 -4.5t-9.5 -5.5q0 4 5 8q3 3 4 5q1 9 9 15q10 3 11 3q12 -1 20 -23q0 -3 -2.5 -6t-2.5 -5t-0.5 -7.5t-1.5 -8.5q-3 -3 -4 -5q-2 -10 -5 -13q1 -10 -6 -19q0 -7 -5 -12q0 -4 -7 -11q-1 -1 -1 -3v-2q-12 -17 -16 -35l-6 -6q-2 -4 -2 -5q-4 -7 -14 -16
t-14 -15q-3 -2 -8.5 -7.5l-7.5 -7.5q-1 0 -3 -2t-3 -2h-22q-2 2 -8.5 7.5t-9.5 8.5q0 2 -3.5 6t-3.5 6q-1 2 0 10.5t-3 8.5z" />
    <glyph glyph-name="x" unicode="x" horiz-adv-x="240" 
d="M119 105q4 2 13 9.5t16 9.5l6 6q2 0 12 5q4 0 5 1q15 11 24 11q1 0 4 2t5 3q2 0 5 -1t4 -1t3 1t3 0q3 -1 3 -13q-2 -4 -10.5 -7.5t-10.5 -6.5q-6 0 -12 -6q-5 1 -10.5 -3t-9.5 -4q-15 -9 -27 -21q-1 0 -13 -9q-1 -3 1 -11q16 -29 27 -36q1 -1 4 -6t5 -7q1 -1 3 -2l2 -1
q7 -6 11 -14l2 -4q3 -4 2 -7q-2 -6 -17 -3q-7 4 -19 12l-27 27q-3 1 -6.5 4.5l-4.5 4.5q-3 6 -6 9l-3 10q-3 0 -6 -1.5t-5 -1.5q-4 -3 -10 -9.5t-9 -8.5q-10 -8 -12 -10q-1 0 -2 -2l-1 -3q-1 -1 -2 -3l-2 -1q0 -1 -1 -2.5t-1 -2.5q-1 -1 -3 -4q-5 -4 -6 -8q0 -2 1 -4
q2 -2 2 -3q0 -4 -8 -10q-9 0 -20 11v20q14 16 22 23l6 6l3 5q2 2 4 2q1 1 1 3t1 3q3 4 10.5 9t8.5 6q4 1 8.5 3.5t5.5 3.5q3 4 0 15q-2 14 -5 17q-1 4 -1 12q0 2 -2 4l-3 3q0 5 -4 13t-3 13q0 3 4 7t11 -1q11 -7 14 -11q7 -10 7 -23q2 -2 5 -11t8 -11z" />
    <glyph glyph-name="y" unicode="y" horiz-adv-x="209" 
d="M122 6q-3 0 -5.5 -2t-3.5 -2q-6 -1 -14 -7l-25 -3q-2 0 -7.5 1.5t-8.5 1.5q-12 6 -13 6q-6 6 -11 7l-15 18q1 5 -2.5 16.5t1.5 13.5q1 4 1 11.5v12.5q1 1 5.5 6t9.5 4q2 0 8 -9q2 -1 0.5 -12.5t-1.5 -14.5q2 -19 7 -22q1 -2 4.5 -4.5t4.5 -3.5q5 1 11.5 -2.5t10.5 -3.5
q2 0 7.5 3.5t11.5 2.5q2 2 5.5 5t6 5t6 4.5t6.5 3.5q8 7 21 24t21 24q2 8 10 15q15 2 19 -3q6 -19 -5 -31q0 -1 -1 -4t-1 -4q-14 -22 -16 -25v-4q-4 -4 -8.5 -13t-8.5 -12q0 -4 -3 -8.5t-2 -9.5l-6 -9q-1 -1 -1.5 -3t-0.5 -3t-1.5 -2.5t-2.5 -3.5q-1 -1 -1 -3l-1 -2
q-5 -11 -5 -13q-2 -2 -5.5 -7t-5.5 -7v-5q-6 -10 -12 -15q-1 -2 -5 -8l-6 -9q-1 -2 -5 -11q0 -2 -7 -9v-6q-6 -5 -12 -21q-2 -3 -5.5 -8t-5.5 -7q0 -4 -3.5 -9.5t-2.5 -10.5q-4 -5 -12 -13q-1 -5 -11 -18q0 -3 -3 -7t-3 -5q-1 -1 -1 -2.5v-2.5q-8 -10 -11 -25q-6 -6 -6 -10
q0 -1 -2 -2.5t-3 -3.5q0 -2 -0.5 -5t-0.5 -5q-4 -2 -6 -10.5t-5 -10.5q0 -6 -5 -21v-6q-2 -5 -9 -4.5t-9 5.5q-2 19 1 33q4 6 5 12q1 1 3 3.5t2 3.5q0 4 3.5 11t2.5 13q4 4 5 6q1 4 4 9.5t3 9.5q2 2 5 7.5t6 7.5q0 3 1 5q2 2 6 8t6 8l6 12q15 24 16 25v5q1 2 3 4t2 3
q-1 5 4 10q1 2 2 3q1 2 1 5q1 1 3.5 4t2.5 6q1 1 2.5 3t2.5 4q0 4 3.5 8t2.5 8l6 6v6q1 1 3.5 4.5t3.5 6.5q4 3 9 9q1 6 7 14q0 4 1 6l3 3q2 1 2 3v6q6 6 6 11q2 1 6 9q7 9 4 12z" />
    <glyph glyph-name="z" unicode="z" horiz-adv-x="241" 
d="M174 184q2 -9 0 -27q0 -2 -2 -4.5t-2 -3.5v-3t-1 -2q-1 -1 -3.5 -5.5t-2.5 -7.5q-14 -16 -16 -18q-2 -5 -9 -11.5t-8 -7.5q0 -3 -9 -17q-5 -1 -12 -6q-4 -2 -6 -4l-1 -3l-3 -3q-1 -2 -5 -4q-2 -4 -4 -7q-4 -6 -5 -7t-5 -3q-1 -1 -3 -2.5t-3 -2.5q-8 -9 -13 -10
q0 -1 -3.5 -5t-3.5 -6q0 -1 15 -1h14q6 2 10 4q4 1 22 0.5t18 4.5q20 2 33 1q10 7 29 7q3 0 9 4q19 -4 21 -8q2 -9 -10 -14q-1 0 -5 -0.5t-6 -1.5q-1 0 -3.5 -2t-3.5 -2h-11q-2 -1 -5 -4l-3 -2q-6 1 -12 -5q-24 0 -39 -4q-9 -2 -13 -1q-10 0 -28 -2q-4 0 -15 -3t-18 -2
q-12 6 -19 6q-7 4 -16 15v10q18 20 34 33q12 15 23 24q6 8 18.5 19.5t16.5 16.5q1 4 10.5 12.5t9.5 18.5q0 3 5.5 7.5t2.5 9.5q-1 0 -3.5 -1.5t-3.5 -1.5q-3 -1 -16 -1q-7 -5 -24 -5q-4 0 -6 2q-17 -4 -28 0q-1 -1 -2.5 -4t-3.5 -4q-14 -7 -25 -1q-2 2 -7 11q3 8 14 19h5
q1 0 8 5h9q1 0 3.5 2t3.5 2q2 0 4 -1t3 -1q8 -1 27 1q5 3 19 4t16 1q1 0 7 3q4 0 12.5 1t14.5 1t9 -3z" />
    <glyph glyph-name="braceleft" unicode="{" horiz-adv-x="276" 
d="M172 382q-3 -1 -6.5 -4.5t-7.5 -5t-10 -1.5q-10 -5 -17 -20q-3 -2 -24 -20l-1 -1q-2 0 -2 -1q-3 -2 -8 -8t-7 -8q-10 -8 -10 -13q-4 -5 -9 -18v-11t-1 -10q-6 -10 -5 -13q0 -2 2.5 -4.5t2.5 -3.5q0 -3 1 -4t3 -5t4 -5q3 0 5 -1q1 0 3.5 -2t4.5 -2q1 -1 6 -1q1 0 3.5 -2
t3.5 -3q1 0 4 -0.5t4 -1.5q14 -4 23 -4h13q2 0 8 -3t9 -4h11q2 0 5 -2.5t4 -2.5q10 0 14 -1q8 -6 9 -13q0 -2 -2.5 -5t-2.5 -7q-2 -3 -8 -5.5t-8 -4.5q-3 -2 -9.5 -7.5t-11.5 -7.5q-2 -1 -6.5 -3t-6.5 -4q-17 0 -23 -5q-11 0 -16 -1q-12 0 -13 -5q1 -4 12 -6q15 0 22 -1
q3 -1 16 -20v-6l-3.5 -3.5l-4.5 -4.5q-2 -1 -13 -7q-1 0 -6 -5l-12 -6q-1 -4 -7 -8q-3 -2 -4 -3q-1 0 -2 -0.5t-2 -0.5q-4 -3 -12 -11h-6l-14 -14q-5 -10 -12 -17q-8 -12 -5 -29q2 -3 3 -9.5t2 -7.5q1 -2 3 -4.5t2 -3.5q1 -2 1 -7q4 -6 4 -8v-4.5t1 -4.5q1 -3 5.5 -8t5.5 -7
q0 -4 1 -5l6 -9q5 -5 8 -7q3 -1 7 -2.5t7 -2.5q14 -2 43 0q5 3 8 4q13 -1 22 6h14t12 1t5 3t4 2h6q1 0 2.5 2.5t3.5 3.5q7 0 10 1q1 0 5 2q17 8 22 1q1 -2 1 -8q-3 -3 -11 -7t-10 -6q-4 0 -5 -1q-3 -3 -10 -5.5t-9 -4.5q-4 0 -9.5 -3.5t-7.5 -4.5q-23 -3 -28 -5q-2 -1 -4 -3
t-3 -2q-6 -1 -16 -1h-16q-2 0 -7.5 -2.5t-8.5 -1.5q-2 0 -8 2t-10 2h-8q-2 1 -6 5.5t-6 5.5q-2 2 -7 4.5t-6 3.5q-2 4 -9.5 10t-9.5 10q1 5 -3 11q-2 3 -3 5v3.5t-1 4.5q0 1 -5 8q-1 1 -12 41q0 1 -2 4.5t-3 4.5v15q1 1 6 11q2 3 5 5q0 1 1 3t1 4l2 3q3 5 12 14q11 11 15 12
l30 27q11 3 17 9q-2 3 -6.5 3.5t-11.5 0t-10 -0.5q-2 0 -5.5 1.5t-5.5 1.5q-1 1 -3.5 2t-3.5 1h-5q-9 7 -9 10q-1 6 5 13q3 2 4 4q4 1 12 7.5t15 7.5q2 0 4 2t3 2q2 0 13 6q8 0 28 10q1 0 2.5 0.5t2.5 1.5q1 0 3 2t4 3h5q6 0 7 3q-1 3 -20 3l-6 6q-3 1 -12.5 0.5t-14.5 0.5
q-10 6 -19 5q-4 3 -21 13q-3 3 -5.5 6t-5 7t-4.5 6v2t-1 2t-3 3.5t-2 3.5q-2 29 0 40q0 2 2 6l3 6t1 5v5q6 12 6 13q5 5 6 9q2 1 17 22l19 19q17 10 20 15q2 2 5 6t4 5l12 9l12 6q3 0 7 1t6 1q2 1 5.5 -1t5.5 -2q4 0 13 1t14 1q2 0 5 2q8 3 12 2t10 -10v-8q-10 -10 -19 -10
q-2 -1 -5 -3q-6 -3 -11 -2q-2 0 -4 2t-4 3z" />
    <glyph glyph-name="bar" unicode="|" horiz-adv-x="140" 
d="M96 549q12 0 12 -11q10 -15 10 -19q0 -2 -2 -7l-2 -4q-1 -5 0 -14t0 -13q-6 -8 -6 -10q-1 -2 -4 -10q-2 -3 -2 -11q1 -1 8 -5.5t8 -9.5q0 -7 -4.5 -10t-11.5 0q-2 -3 -3 -10.5t-3 -10.5q-4 -11 -4 -38.5v-33.5q0 -4 -2 -15t-2 -17t2 -17.5t2 -14.5q0 -16 -6 -29
q0 -4 1 -14t1 -15q0 -2 -1.5 -7t-1.5 -8q0 -4 0.5 -10t0.5 -9q0 -2 -0.5 -6.5t-0.5 -7.5v-14q0 -5 -2.5 -13t-2.5 -9q-1 -2 0 -6t1 -5q-3 -23 -2 -26q0 -1 5 -18q0 -4 0.5 -11.5t0.5 -10.5q0 -1 -6 -19q-3 -13 -7 -18q-3 -45 -1 -142q0 -1 -0.5 -4t-0.5 -4q0 -2 2.5 -5
t2.5 -5q-1 -2 -3.5 -1.5t-3.5 -0.5q-2 -2 -7 -9t-10 -10.5t-11 -2.5q-5 0 -9 5t-5 6q0 2 -2 5.5t-2 5.5q2 6 4 30q6 36 6 38q0 3 -0.5 8.5t-0.5 7.5t0.5 6t0.5 5q1 7 1 23t2 24q0 3 2 8.5t2 7.5v18q2 6 2 8q1 2 1 8v8q0 3 1 10.5t1 14.5t-2 13q0 3 2 10.5t1 13.5
q0 4 -1.5 10.5t-1.5 9.5q0 6 3.5 18.5t3.5 17.5v61l3 33v13q0 2 1 6t1 7q0 5 -2.5 19.5t-0.5 22.5q1 2 2 6t2 6q2 8 2 23t1 24q0 3 2 11q1 4 1 6q1 4 3 15t4 17q4 43 1 67q0 3 -4 12.5t-5 14.5q0 9 14 28q14 -2 22 -11z" />
    <glyph glyph-name="braceright" unicode="}" horiz-adv-x="273" 
d="M164 230q0 -2 8 -4q1 0 3 -2t3 -2h7q2 -1 5 -3.5t6 -3.5q3 -3 9 -8t9 -8q7 -2 8 -3q5 -14 -9 -26q-4 0 -8.5 -3.5t-7.5 -3.5q-3 -1 -7 -5h-5q-1 -1 -4 -3q-4 -4 -8 -3q-2 -1 -4 -3q-2 -1 -3 -2q-7 1 -8 -6q-2 -7 8 -7q13 -11 29 -17l3 -3t4 -3l2 1q2 0 4 -1q1 0 2.5 -2
t3.5 -3h5q2 -2 6 -5.5t7 -5.5q2 -4 9 -10.5t9 -10.5q1 -2 1 -4q1 -2 3 -4.5t3 -3.5v-28q-2 -2 -4 -6.5t-3 -6.5q0 -2 -2.5 -5.5t-2.5 -5.5q-18 -23 -39 -37q-2 0 -8 -2l-14 -12l-4 -4q-2 -1 -5 -1q-2 -1 -5 -4.5t-5 -4.5q-10 -8 -20 -8q-2 -1 -9.5 -5t-10.5 -6
q-4 0 -12 -3.5t-14 -3.5q-13 -5 -19 -5q-9 -7 -24 -7q-20 0 -22 1t-4 3q-2 1 -3 2l-7 5q-5 13 5 28q2 3 5.5 7t4.5 5q1 3 3 7q3 1 10 1t10 1q2 0 5.5 2t6.5 3q14 0 18 -10q-1 -4 -7 -4q-4 -1 -11.5 -5.5t-11.5 -5.5q-5 -5 -5 -9q12 -2 20 -1q2 1 4.5 3t3.5 2h7t8 1q1 0 4 2
t5 3q1 1 4 1.5t4 0.5q2 0 4 2t4 2q9 2 13 5q3 1 10 1q1 0 4.5 3t6.5 3q18 18 34 24q12 8 19 12q1 2 4 4t4 4q0 1 0.5 2.5t1.5 2.5q0 1 4 5q0 3 1 5q4 6 4 8q5 12 1 22q-1 1 -2 3q-5 5 -4 10q-13 10 -14 13q-4 0 -9 3t-8 4q-3 2 -7 6q-5 0 -11 3.5t-12 2.5q-1 1 -7 6t-10 6
q-2 2 -12 10q-3 0 -8.5 0.5t-9.5 0.5q-8 6 -8 12q1 3 4 6t4 5q4 1 11.5 6t12.5 6l12 9q2 6 3 7q12 4 17 7l4 1q5 0 6 2t-3 5t-4 4q-3 0 -5 1q-3 3 -12.5 7.5t-13.5 8.5q-5 0 -8 1q-2 2 -7 4.5l-7 3.5q-2 2 -3 7.5t1 8.5q9 8 24 11q11 5 22 16q8 5 14 13q4 8 4 13q7 8 5 46
q-9 10 -20 13q-1 0 -3.5 -0.5t-4.5 -0.5q-7 2 -21 15q-2 0 -7.5 2t-7.5 1.5t-8 -2.5h-23q-2 -1 -4 -3.5t-3 -2.5q-2 0 -6 3t-5 3h-12q-9 5 -8 13q1 2 9 10q9 -1 21 2.5t18 3.5q4 3 15 4.5t19 -1.5q1 0 4 -2l3 -2q7 0 11 -1q3 -3 4 -3q1 -1 3 -1.5t3 -0.5q5 -5 9 -5l3 -3
t3 -2t3 -0.5t3 -0.5q3 -3 12 -11q5 0 6 -3q1 0 3 -5q0 -1 2 -2.5t2 -2.5q1 -1 2.5 -5t3.5 -6q4 -16 -1 -30q-3 -4 -5 -24q0 -1 -2.5 -5t-2.5 -8q-7 -9 -7 -11q-2 -2 -11 -11.5t-14 -14.5q-8 0 -9 -4z" />
    <glyph glyph-name="asciitilde" unicode="~" horiz-adv-x="392" 
d="M158 121q-15 2 -32 -11l-4 -1q-3 -2 -8.5 -5.5t-8.5 -5.5q-22 -18 -31 -28q-10 -15 -29 -29q-3 -1 -11 -1q-2 -1 -3 -3.5t-3 -2.5q-3 0 -6.5 3.5t-3.5 6.5q-1 5 6 11t7 7q7 4 23 22q0 3 8 13q4 2 12 9t13 10l3 3l3 3h4q1 3 6 5l3 3t4 3q1 1 4 1l10 5q3 4 10 5t18 1h14
q7 -4 16 -15q6 -18 7 -28q-2 -2 -0.5 -14t1.5 -14q5 -10 6 -11h12q2 0 3 2.5t3 3.5q9 1 19.5 6.5t16.5 6.5q2 0 4 2t3 2h5q3 2 17 14t23 16q3 2 12.5 11t16.5 12q25 30 27 34q1 0 3.5 2.5t4.5 3.5q2 2 6 0l2 -2v-22q-2 -3 -8 -9.5t-8 -10.5q-1 -1 -1 -2q-1 -2 -1 -3
q-3 -1 -4 -4q-1 -1 -2.5 -3.5t-3.5 -4.5t-8 -6.5t-9 -7.5q-2 -2 -4 -6q-5 1 -9.5 -2.5t-7.5 -3.5q-4 -4 -12.5 -11t-12.5 -11q-1 -1 -5 -3.5t-6 -4.5q-1 0 -2.5 -2t-3.5 -2l-12 -6q-3 0 -9.5 -3.5t-12.5 -2.5q-2 0 -3.5 -2t-3.5 -3q-4 0 -21.5 -1.5t-20.5 1.5q-2 0 -5 2.5
t-5 2.5q-4 2 -8 9q0 3 -2.5 6.5t-3.5 5.5q-2 21 0 42q0 11 -1 12z" />
  </font>
</defs>
</svg>
